<svg version="1.1" xmlns="http://www.w3.org/2000/svg" viewBox="0 0 1051.2000427246094 590.3999786376953" width="1051.2000427246094" height="590.3999786376953">
  <!-- svg-source:excalidraw -->
  
  <defs>
    <style>
      @font-face {
        font-family: "Virgil";
        src: url("https://excalidraw.com/Virgil.woff2");
      }
      @font-face {
        font-family: "Cascadia";
        src: url("https://excalidraw.com/Cascadia.woff2");
      }
    </style>
  </defs>
  <rect x="0" y="0" width="1051.2000427246094" height="590.3999786376953" fill="#310e41"></rect><g stroke-linecap="round"><g stroke-opacity="0.8" fill-opacity="0.8" transform="translate(43.600006103515625 10.800003051757812) rotate(0 -2 142.8000030517578)"><path d="M0 0 C-0.67 47.6, -3.33 238, -4 285.6 M0 0 C-0.67 47.6, -3.33 238, -4 285.6" stroke="#fff" stroke-width="2" fill="none"></path></g></g><g stroke-linecap="round"><g stroke-opacity="0.8" fill-opacity="0.8" transform="translate(144.39999389648438 10.800003051757812) rotate(0 -0.399993896484375 68.7999954223633)"><path d="M0 0 C-0.13 22.93, -0.67 114.67, -0.8 137.6 M0 0 C-0.13 22.93, -0.67 114.67, -0.8 137.6" stroke="#fff" stroke-width="2" fill="none"></path></g></g><g stroke-linecap="round"><g stroke-opacity="0.8" fill-opacity="0.8" transform="translate(228.39999389648438 10.800003051757798) rotate(0 -0.399993896484375 107.20000457763673)"><path d="M0 0 C-0.13 35.73, -0.67 178.67, -0.8 214.4 M0 0 C-0.13 35.73, -0.67 178.67, -0.8 214.4" stroke="#fff" stroke-width="2" fill="none"></path></g></g><g stroke-linecap="round"><g stroke-opacity="0.8" fill-opacity="0.8" transform="translate(1013.9999694824219 10) rotate(0 0 130.79999542236328)"><path d="M0 0 C0 43.6, 0 218, 0 261.6 M0 0 C0 43.6, 0 218, 0 261.6" stroke="#fff" stroke-width="2" fill="none"></path></g></g><g stroke-linecap="round"><g stroke-opacity="0.8" fill-opacity="0.8" transform="translate(913.9999694824219 10) rotate(0 0 76.40000152587892)"><path d="M0 0 C0 25.47, 0 127.33, 0 152.8 M0 0 C0 25.47, 0 127.33, 0 152.8" stroke="#fff" stroke-width="2" fill="none"></path></g></g><g stroke-linecap="round"><g stroke-opacity="0.8" fill-opacity="0.8" transform="translate(815.6000671386719 11.600013732910156) rotate(0 1.199951171875 100.39999771118165)"><path d="M0 0 C0.4 33.47, 2 167.33, 2.4 200.8 M0 0 C0.4 33.47, 2 167.33, 2.4 200.8" stroke="#fff" stroke-width="2" fill="none"></path></g></g><g stroke-opacity="0.8" fill-opacity="0.8" stroke-linecap="round" transform="translate(194.80007934570312 235.6000213623047) rotate(0 32.79998779296875 34.80000305175781)"><path d="M33 0 C40.79 8.36, 48.58 16.73, 65.6 35 M33 0 C45.69 13.63, 58.38 27.25, 65.6 35 M65.6 35 C58.7 42.32, 51.8 49.64, 33 69.6 M65.6 35 C52.84 48.55, 40.07 62.09, 33 69.6 M33 69.6 C21.32 57.36, 9.65 45.12, 0 35 M33 69.6 C25.88 62.13, 18.76 54.67, 0 35 M0 35 C8.43 26.06, 16.85 17.13, 33 0 M0 35 C10.32 24.06, 20.63 13.12, 33 0" stroke="#fff" stroke-width="2" fill="none"></path></g><g stroke-opacity="0.8" fill-opacity="0.8" stroke-linecap="round" transform="translate(185.39996337890625 228) rotate(0 41.59999084472656 43.19999694824219)"><path d="M42 0 C55.38 14.29, 68.77 28.59, 83.2 44 M42 0 C53.77 12.57, 65.53 25.13, 83.2 44 M83.2 44 C72.14 55.39, 61.07 66.77, 42 86.4 M83.2 44 C70.05 57.54, 56.89 71.08, 42 86.4 M42 86.4 C30.38 74.67, 18.77 62.95, 0 44 M42 86.4 C26.57 70.83, 11.15 55.25, 0 44 M0 44 C14.03 29.31, 28.05 14.61, 42 0 M0 44 C8.61 34.98, 17.22 25.96, 42 0" stroke="#fff" stroke-width="2" fill="none"></path></g><g stroke-opacity="0.8" fill-opacity="0.8" stroke-linecap="round" transform="translate(788.4000549316406 220.40000915527344) rotate(0 28.399993896484375 28)"><path d="M56.8 28 C56.8 29.62, 56.65 31.27, 56.37 32.86 C56.08 34.46, 55.65 36.05, 55.09 37.58 C54.53 39.1, 53.82 40.6, 53 42 C52.17 43.4, 51.21 44.76, 50.16 46 C49.1 47.24, 47.91 48.41, 46.66 49.45 C45.4 50.49, 44.02 51.44, 42.6 52.25 C41.18 53.06, 39.66 53.76, 38.11 54.31 C36.57 54.87, 34.95 55.29, 33.33 55.57 C31.71 55.86, 30.04 56, 28.4 56 C26.76 56, 25.09 55.86, 23.47 55.57 C21.85 55.29, 20.23 54.87, 18.69 54.31 C17.14 53.76, 15.62 53.06, 14.2 52.25 C12.78 51.44, 11.4 50.49, 10.14 49.45 C8.89 48.41, 7.7 47.24, 6.64 46 C5.59 44.76, 4.63 43.4, 3.8 42 C2.98 40.6, 2.27 39.1, 1.71 37.58 C1.15 36.05, 0.72 34.46, 0.43 32.86 C0.15 31.27, 0 29.62, 0 28 C0 26.38, 0.15 24.73, 0.43 23.14 C0.72 21.54, 1.15 19.95, 1.71 18.42 C2.27 16.9, 2.98 15.4, 3.8 14 C4.63 12.6, 5.59 11.24, 6.64 10 C7.7 8.76, 8.89 7.59, 10.14 6.55 C11.4 5.51, 12.78 4.56, 14.2 3.75 C15.62 2.94, 17.14 2.24, 18.69 1.69 C20.23 1.13, 21.85 0.71, 23.47 0.43 C25.09 0.14, 26.76 0, 28.4 0 C30.04 0, 31.71 0.14, 33.33 0.43 C34.95 0.71, 36.57 1.13, 38.11 1.69 C39.66 2.24, 41.18 2.94, 42.6 3.75 C44.02 4.56, 45.4 5.51, 46.66 6.55 C47.91 7.59, 49.1 8.76, 50.16 10 C51.21 11.24, 52.17 12.6, 53 14 C53.82 15.4, 54.53 16.9, 55.09 18.42 C55.65 19.95, 56.08 21.54, 56.37 23.14 C56.65 24.73, 56.73 27.19, 56.8 28 C56.87 28.81, 56.87 27.19, 56.8 28" stroke="#fff" stroke-width="2" fill="none"></path></g><g stroke-opacity="0.8" fill-opacity="0.8" stroke-linecap="round" transform="translate(781.4000244140625 213.60003662109375) rotate(0 35.600006103515625 34.80000305175781)"><path d="M71.2 34.8 C71.2 36.61, 71.05 38.45, 70.76 40.24 C70.47 42.04, 70.03 43.83, 69.46 45.55 C68.88 47.28, 68.16 48.98, 67.32 50.6 C66.48 52.22, 65.49 53.79, 64.4 55.25 C63.31 56.72, 62.09 58.12, 60.77 59.41 C59.46 60.69, 58.03 61.89, 56.53 62.95 C55.02 64.02, 53.42 64.98, 51.76 65.81 C50.11 66.63, 48.37 67.34, 46.6 67.9 C44.84 68.46, 43 68.89, 41.17 69.17 C39.34 69.46, 37.46 69.6, 35.6 69.6 C33.74 69.6, 31.86 69.46, 30.03 69.17 C28.2 68.89, 26.36 68.46, 24.6 67.9 C22.83 67.34, 21.09 66.63, 19.44 65.81 C17.78 64.98, 16.18 64.02, 14.67 62.95 C13.17 61.89, 11.74 60.69, 10.43 59.41 C9.11 58.12, 7.89 56.72, 6.8 55.25 C5.71 53.79, 4.72 52.22, 3.88 50.6 C3.04 48.98, 2.32 47.28, 1.74 45.55 C1.17 43.83, 0.73 42.04, 0.44 40.24 C0.15 38.45, 0 36.61, 0 34.8 C0 32.99, 0.15 31.15, 0.44 29.36 C0.73 27.56, 1.17 25.77, 1.74 24.05 C2.32 22.32, 3.04 20.62, 3.88 19 C4.72 17.38, 5.71 15.81, 6.8 14.35 C7.89 12.88, 9.11 11.48, 10.43 10.19 C11.74 8.91, 13.17 7.71, 14.67 6.65 C16.18 5.58, 17.78 4.62, 19.44 3.79 C21.09 2.97, 22.83 2.26, 24.6 1.7 C26.36 1.14, 28.2 0.71, 30.03 0.43 C31.86 0.14, 33.74 0, 35.6 0 C37.46 0, 39.34 0.14, 41.17 0.43 C43 0.71, 44.84 1.14, 46.6 1.7 C48.37 2.26, 50.11 2.97, 51.76 3.79 C53.42 4.62, 55.02 5.58, 56.53 6.65 C58.03 7.71, 59.46 8.91, 60.77 10.19 C62.09 11.48, 63.31 12.88, 64.4 14.35 C65.49 15.81, 66.48 17.38, 67.32 19 C68.16 20.62, 68.88 22.32, 69.46 24.05 C70.03 25.77, 70.47 27.56, 70.76 29.36 C71.05 31.15, 71.13 33.89, 71.2 34.8 C71.27 35.71, 71.27 33.89, 71.2 34.8" stroke="#fff" stroke-width="2" fill="none"></path></g><g stroke-opacity="0.7" fill-opacity="0.7" stroke-linecap="round" transform="translate(116.39999389648438 150.80001831054688) rotate(0 26.400009155273438 26.400001525878906)"><path d="M0 0 C19.15 0, 38.3 0, 52.8 0 M0 0 C15.96 0, 31.92 0, 52.8 0 M52.8 0 C52.8 20.58, 52.8 41.15, 52.8 52.8 M52.8 0 C52.8 19.42, 52.8 38.83, 52.8 52.8 M52.8 52.8 C41.59 52.8, 30.38 52.8, 0 52.8 M52.8 52.8 C31.87 52.8, 10.94 52.8, 0 52.8 M0 52.8 C0 31.73, 0 10.66, 0 0 M0 52.8 C0 32.07, 0 11.35, 0 0" stroke="#fff" stroke-width="2" fill="none"></path></g><g stroke-opacity="0.7" fill-opacity="0.7" stroke-linecap="round" transform="translate(10 296.40000915527344) rotate(0 31.20001220703125 32.39997863769531)"><path d="M62.4 32.4 C62.4 34.28, 62.24 36.18, 61.93 38.03 C61.61 39.87, 61.14 41.72, 60.52 43.48 C59.9 45.24, 59.12 46.98, 58.22 48.6 C57.32 50.22, 56.26 51.79, 55.1 53.23 C53.94 54.66, 52.64 56.01, 51.25 57.22 C49.87 58.43, 48.36 59.52, 46.8 60.46 C45.24 61.4, 43.57 62.2, 41.87 62.85 C40.17 63.49, 38.4 63.98, 36.62 64.31 C34.84 64.63, 33.01 64.8, 31.2 64.8 C29.39 64.8, 27.56 64.63, 25.78 64.31 C24 63.98, 22.23 63.49, 20.53 62.85 C18.83 62.2, 17.16 61.4, 15.6 60.46 C14.04 59.52, 12.53 58.43, 11.15 57.22 C9.76 56.01, 8.46 54.66, 7.3 53.23 C6.14 51.79, 5.08 50.22, 4.18 48.6 C3.28 46.98, 2.5 45.24, 1.88 43.48 C1.26 41.72, 0.79 39.87, 0.47 38.03 C0.16 36.18, 0 34.28, 0 32.4 C0 30.52, 0.16 28.62, 0.47 26.77 C0.79 24.93, 1.26 23.08, 1.88 21.32 C2.5 19.56, 3.28 17.82, 4.18 16.2 C5.08 14.58, 6.14 13.01, 7.3 11.57 C8.46 10.14, 9.76 8.79, 11.15 7.58 C12.53 6.37, 14.04 5.28, 15.6 4.34 C17.16 3.4, 18.83 2.6, 20.53 1.95 C22.23 1.31, 24 0.82, 25.78 0.49 C27.56 0.17, 29.39 0, 31.2 0 C33.01 0, 34.84 0.17, 36.62 0.49 C38.4 0.82, 40.17 1.31, 41.87 1.95 C43.57 2.6, 45.24 3.4, 46.8 4.34 C48.36 5.28, 49.87 6.37, 51.25 7.58 C52.64 8.79, 53.94 10.14, 55.1 11.57 C56.26 13.01, 57.32 14.58, 58.22 16.2 C59.12 17.82, 59.9 19.56, 60.52 21.32 C61.14 23.08, 61.61 24.93, 61.93 26.77 C62.24 28.62, 62.32 31.46, 62.4 32.4 C62.48 33.34, 62.48 31.46, 62.4 32.4" stroke="#fff" stroke-width="2" fill="none"></path></g><g stroke-opacity="0.7" fill-opacity="0.7" stroke-linecap="round" transform="translate(38 332.40000915527344) rotate(0 25.600006103515625 24.399993896484375)"><path d="M51.2 24.4 C51.2 25.81, 51.07 27.25, 50.81 28.64 C50.55 30.03, 50.16 31.42, 49.66 32.75 C49.15 34.07, 48.51 35.38, 47.77 36.6 C47.03 37.82, 46.16 39, 45.21 40.08 C44.26 41.17, 43.19 42.18, 42.06 43.09 C40.92 44, 39.68 44.82, 38.4 45.53 C37.12 46.24, 35.75 46.85, 34.36 47.33 C32.96 47.81, 31.5 48.18, 30.05 48.43 C28.59 48.67, 27.08 48.8, 25.6 48.8 C24.12 48.8, 22.61 48.67, 21.15 48.43 C19.7 48.18, 18.24 47.81, 16.84 47.33 C15.45 46.85, 14.08 46.24, 12.8 45.53 C11.52 44.82, 10.28 44, 9.14 43.09 C8.01 42.18, 6.94 41.17, 5.99 40.08 C5.04 39, 4.17 37.82, 3.43 36.6 C2.69 35.38, 2.05 34.07, 1.54 32.75 C1.04 31.42, 0.65 30.03, 0.39 28.64 C0.13 27.25, 0 25.81, 0 24.4 C0 22.99, 0.13 21.55, 0.39 20.16 C0.65 18.77, 1.04 17.38, 1.54 16.05 C2.05 14.73, 2.69 13.42, 3.43 12.2 C4.17 10.98, 5.04 9.8, 5.99 8.72 C6.94 7.63, 8.01 6.62, 9.14 5.71 C10.28 4.8, 11.52 3.98, 12.8 3.27 C14.08 2.56, 15.45 1.95, 16.84 1.47 C18.24 0.99, 19.7 0.62, 21.15 0.37 C22.61 0.13, 24.12 0, 25.6 0 C27.08 0, 28.59 0.13, 30.05 0.37 C31.5 0.62, 32.96 0.99, 34.36 1.47 C35.75 1.95, 37.12 2.56, 38.4 3.27 C39.68 3.98, 40.92 4.8, 42.06 5.71 C43.19 6.62, 44.26 7.63, 45.21 8.72 C46.16 9.8, 47.03 10.98, 47.77 12.2 C48.51 13.42, 49.15 14.73, 49.66 16.05 C50.16 17.38, 50.55 18.77, 50.81 20.16 C51.07 21.55, 51.14 23.69, 51.2 24.4 C51.26 25.11, 51.26 23.69, 51.2 24.4" stroke="#fff" stroke-width="2" fill="none"></path></g><g stroke-opacity="0.7" fill-opacity="0.7" stroke-linecap="round" transform="translate(70.79998779296875 354.79994201660156) rotate(0 20.400009155273438 20)"><path d="M40.8 20 C40.8 21.16, 40.7 22.33, 40.49 23.47 C40.29 24.61, 39.97 25.75, 39.57 26.84 C39.17 27.93, 38.66 29, 38.07 30 C37.48 31, 36.79 31.97, 36.03 32.86 C35.27 33.74, 34.42 34.58, 33.51 35.32 C32.61 36.07, 31.62 36.74, 30.6 37.32 C29.58 37.9, 28.49 38.4, 27.38 38.79 C26.27 39.19, 25.11 39.5, 23.94 39.7 C22.78 39.9, 21.58 40, 20.4 40 C19.22 40, 18.02 39.9, 16.86 39.7 C15.69 39.5, 14.53 39.19, 13.42 38.79 C12.31 38.4, 11.22 37.9, 10.2 37.32 C9.18 36.74, 8.19 36.07, 7.29 35.32 C6.38 34.58, 5.53 33.74, 4.77 32.86 C4.01 31.97, 3.32 31, 2.73 30 C2.14 29, 1.63 27.93, 1.23 26.84 C0.83 25.75, 0.51 24.61, 0.31 23.47 C0.1 22.33, 0 21.16, 0 20 C0 18.84, 0.1 17.67, 0.31 16.53 C0.51 15.39, 0.83 14.25, 1.23 13.16 C1.63 12.07, 2.14 11, 2.73 10 C3.32 9, 4.01 8.03, 4.77 7.14 C5.53 6.26, 6.38 5.42, 7.29 4.68 C8.19 3.93, 9.18 3.26, 10.2 2.68 C11.22 2.1, 12.31 1.6, 13.42 1.21 C14.53 0.81, 15.69 0.5, 16.86 0.3 C18.02 0.1, 19.22 0, 20.4 0 C21.58 0, 22.78 0.1, 23.94 0.3 C25.11 0.5, 26.27 0.81, 27.38 1.21 C28.49 1.6, 29.58 2.1, 30.6 2.68 C31.62 3.26, 32.61 3.93, 33.51 4.68 C34.42 5.42, 35.27 6.26, 36.03 7.14 C36.79 8.03, 37.48 9, 38.07 10 C38.66 11, 39.17 12.07, 39.57 13.16 C39.97 14.25, 40.29 15.39, 40.49 16.53 C40.7 17.67, 40.75 19.42, 40.8 20 C40.85 20.58, 40.85 19.42, 40.8 20" stroke="#fff" stroke-width="2" fill="none"></path></g><g stroke-opacity="0.7" fill-opacity="0.7" stroke-linecap="round" transform="translate(80.39999389648438 379.59999084472656) rotate(0 17.199996948242188 16.800003051757812)"><path d="M34.4 16.8 C34.4 17.77, 34.31 18.76, 34.14 19.72 C33.97 20.67, 33.7 21.63, 33.36 22.55 C33.02 23.46, 32.59 24.36, 32.1 25.2 C31.6 26.04, 31.02 26.85, 30.38 27.6 C29.74 28.34, 29.02 29.04, 28.26 29.67 C27.49 30.29, 26.66 30.86, 25.8 31.35 C24.94 31.84, 24.02 32.25, 23.08 32.59 C22.15 32.92, 21.17 33.18, 20.19 33.34 C19.21 33.51, 18.2 33.6, 17.2 33.6 C16.2 33.6, 15.19 33.51, 14.21 33.34 C13.23 33.18, 12.25 32.92, 11.32 32.59 C10.38 32.25, 9.46 31.84, 8.6 31.35 C7.74 30.86, 6.91 30.29, 6.14 29.67 C5.38 29.04, 4.66 28.34, 4.02 27.6 C3.38 26.85, 2.8 26.04, 2.3 25.2 C1.81 24.36, 1.38 23.46, 1.04 22.55 C0.7 21.63, 0.43 20.67, 0.26 19.72 C0.09 18.76, 0 17.77, 0 16.8 C0 15.83, 0.09 14.84, 0.26 13.88 C0.43 12.93, 0.7 11.97, 1.04 11.05 C1.38 10.14, 1.81 9.24, 2.3 8.4 C2.8 7.56, 3.38 6.75, 4.02 6 C4.66 5.26, 5.38 4.56, 6.14 3.93 C6.91 3.31, 7.74 2.74, 8.6 2.25 C9.46 1.76, 10.38 1.35, 11.32 1.01 C12.25 0.68, 13.23 0.42, 14.21 0.26 C15.19 0.09, 16.2 0, 17.2 0 C18.2 0, 19.21 0.09, 20.19 0.26 C21.17 0.42, 22.15 0.68, 23.08 1.01 C24.02 1.35, 24.94 1.76, 25.8 2.25 C26.66 2.74, 27.49 3.31, 28.26 3.93 C29.02 4.56, 29.74 5.26, 30.38 6 C31.02 6.75, 31.6 7.56, 32.1 8.4 C32.59 9.24, 33.02 10.14, 33.36 11.05 C33.7 11.97, 33.97 12.93, 34.14 13.88 C34.31 14.84, 34.36 16.31, 34.4 16.8 C34.44 17.29, 34.44 16.31, 34.4 16.8" stroke="#fff" stroke-width="2" fill="none"></path></g><g stroke-opacity="0.7" fill-opacity="0.7" stroke-linecap="round" transform="translate(989.2000427246094 270.8000030517578) rotate(0 26 23.600006103515625)"><path d="M0 0 C14.23 0, 28.46 0, 52 0 M0 0 C15.75 0, 31.51 0, 52 0 M52 0 C52 13.07, 52 26.14, 52 47.2 M52 0 C52 14.63, 52 29.26, 52 47.2 M52 47.2 C35.86 47.2, 19.72 47.2, 0 47.2 M52 47.2 C33.57 47.2, 15.14 47.2, 0 47.2 M0 47.2 C0 37.35, 0 27.5, 0 0 M0 47.2 C0 33.13, 0 19.05, 0 0" stroke="#fff" stroke-width="2" fill="none"></path></g><g stroke-opacity="0.7" fill-opacity="0.7" stroke-linecap="round" transform="translate(996.3999938964844 300.40000915527344) rotate(0 10.79998779296875 18.800003051757812)"><path d="M0 0 C5.77 0, 11.55 0, 21.6 0 M0 0 C5.18 0, 10.36 0, 21.6 0 M21.6 0 C21.6 10.75, 21.6 21.5, 21.6 37.6 M21.6 0 C21.6 12.6, 21.6 25.19, 21.6 37.6 M21.6 37.6 C15.57 37.6, 9.55 37.6, 0 37.6 M21.6 37.6 C15.95 37.6, 10.29 37.6, 0 37.6 M0 37.6 C0 26.71, 0 15.83, 0 0 M0 37.6 C0 25.85, 0 14.1, 0 0" stroke="#fff" stroke-width="2" fill="none"></path></g><g stroke-opacity="0.7" fill-opacity="0.7" stroke-linecap="round" transform="translate(1007.6000671386719 330.00001525878906) rotate(0 12.79998779296875 21.199996948242188)"><path d="M0 0 C5.24 0, 10.49 0, 25.6 0 M0 0 C6.43 0, 12.87 0, 25.6 0 M25.6 0 C25.6 9.74, 25.6 19.48, 25.6 42.4 M25.6 0 C25.6 13.14, 25.6 26.28, 25.6 42.4 M25.6 42.4 C16.91 42.4, 8.22 42.4, 0 42.4 M25.6 42.4 C19.66 42.4, 13.72 42.4, 0 42.4 M0 42.4 C0 25.58, 0 8.75, 0 0 M0 42.4 C0 29.43, 0 16.46, 0 0" stroke="#fff" stroke-width="2" fill="none"></path></g><g stroke-opacity="0.7" fill-opacity="0.7" stroke-linecap="round" transform="translate(888.3999938964844 162.00003051757812) rotate(0 26 34.79998016357422)"><path d="M27 0 C32.41 7.58, 37.83 15.16, 52 35 M27 0 C35.03 11.25, 43.07 22.5, 52 35 M52 35 C42.06 48.75, 32.13 62.5, 27 69.6 M52 35 C42.98 47.48, 33.96 59.96, 27 69.6 M27 69.6 C19.59 60.1, 12.18 50.61, 0 35 M27 69.6 C21.45 62.49, 15.91 55.39, 0 35 M0 35 C7.19 25.68, 14.37 16.37, 27 0 M0 35 C8.24 24.31, 16.49 13.63, 27 0" stroke="#fff" stroke-width="2" fill="none"></path></g><g stroke-opacity="0.7" fill-opacity="0.7" stroke-linecap="round" transform="translate(880.3999938964844 146.00003051757812) rotate(0 34 52.399986267089844)"><path d="M34 0 C43.33 14.55, 52.66 29.09, 68 53 M34 0 C40.98 10.89, 47.97 21.77, 68 53 M68 53 C58.95 66.79, 49.9 80.58, 34 104.8 M68 53 C57.62 68.81, 47.24 84.63, 34 104.8 M34 104.8 C24.64 90.54, 15.28 76.28, 0 53 M34 104.8 C20.52 84.26, 7.04 63.73, 0 53 M0 53 C10.99 35.87, 21.98 18.74, 34 0 M0 53 C10.76 36.23, 21.52 19.46, 34 0" stroke="#fff" stroke-width="2" fill="none"></path></g><g stroke-opacity="0.7" fill-opacity="0.7" stroke-linecap="round" transform="translate(341.1999816894531 40.400001525878906) rotate(0 11.20001220703125 11.200000762939453)"><path d="M12 0 C15.08 3.56, 18.16 7.11, 22.4 12 M12 0 C14.74 3.16, 17.48 6.33, 22.4 12 M22.4 12 C19.35 15.05, 16.3 18.1, 12 22.4 M22.4 12 C18.59 15.81, 14.78 19.62, 12 22.4 M12 22.4 C8.35 19.24, 4.71 16.08, 0 12 M12 22.4 C7.9 18.85, 3.81 15.3, 0 12 M0 12 C4.6 7.4, 9.21 2.79, 12 0 M0 12 C3.92 8.08, 7.83 4.17, 12 0" stroke="#fff" stroke-width="2" fill="none"></path></g><g stroke-opacity="0.7" fill-opacity="0.7" stroke-linecap="round" transform="translate(410.1999816894531 69.99999618530273) rotate(0 11.20001220703125 11.200000762939453)"><path d="M12 0 C14.82 3.25, 17.63 6.5, 22.4 12 M12 0 C15.29 3.8, 18.59 7.6, 22.4 12 M22.4 12 C19.66 14.74, 16.92 17.48, 12 22.4 M22.4 12 C19.06 15.34, 15.72 18.68, 12 22.4 M12 22.4 C9.12 19.91, 6.25 17.41, 0 12 M12 22.4 C7.5 18.5, 3 14.6, 0 12 M0 12 C3.59 8.41, 7.19 4.81, 12 0 M0 12 C3.05 8.95, 6.1 5.9, 12 0" stroke="#fff" stroke-width="2" fill="none"></path></g><g stroke-opacity="0.7" fill-opacity="0.7" stroke-linecap="round" transform="translate(515.1999816894531 50.999996185302734) rotate(0 11.20001220703125 11.200000762939453)"><path d="M12 0 C15.05 3.52, 18.1 7.03, 22.4 12 M12 0 C15.81 4.39, 19.62 8.79, 22.4 12 M22.4 12 C19.24 15.16, 16.08 18.32, 12 22.4 M22.4 12 C18.85 15.55, 15.3 19.1, 12 22.4 M12 22.4 C7.4 18.41, 2.79 14.42, 0 12 M12 22.4 C8.08 19.01, 4.17 15.61, 0 12 M0 12 C4.19 7.81, 8.39 3.61, 12 0 M0 12 C2.59 9.41, 5.18 6.82, 12 0" stroke="#fff" stroke-width="2" fill="none"></path></g><g stroke-opacity="0.7" fill-opacity="0.7" stroke-linecap="round" transform="translate(539.1999816894531 134.99999618530273) rotate(0 11.20001220703125 11.200000762939453)"><path d="M12 0 C15.82 4.41, 19.65 8.82, 22.4 12 M12 0 C16.15 4.78, 20.29 9.57, 22.4 12 M22.4 12 C19.08 15.32, 15.76 18.64, 12 22.4 M22.4 12 C19.17 15.23, 15.95 18.45, 12 22.4 M12 22.4 C8.03 18.96, 4.06 15.52, 0 12 M12 22.4 C8.99 19.79, 5.98 17.19, 0 12 M0 12 C2.59 9.41, 5.18 6.82, 12 0 M0 12 C4.74 7.26, 9.48 2.52, 12 0" stroke="#fff" stroke-width="2" fill="none"></path></g><g stroke-opacity="0.7" fill-opacity="0.7" stroke-linecap="round" transform="translate(678.1999816894531 50.999996185302734) rotate(0 11.20001220703125 11.200000762939453)"><path d="M12 0 C14.24 2.58, 16.47 5.16, 22.4 12 M12 0 C15.13 3.61, 18.25 7.22, 22.4 12 M22.4 12 C18.49 15.91, 14.58 19.82, 12 22.4 M22.4 12 C19.55 14.85, 16.7 17.7, 12 22.4 M12 22.4 C8.72 19.56, 5.44 16.72, 0 12 M12 22.4 C7.26 18.29, 2.52 14.19, 0 12 M0 12 C4.53 7.47, 9.07 2.93, 12 0 M0 12 C2.59 9.41, 5.17 6.83, 12 0" stroke="#fff" stroke-width="2" fill="none"></path></g><g stroke-opacity="0.7" fill-opacity="0.7" stroke-linecap="round" transform="translate(429.1999816894531 138.99999618530273) rotate(0 11.20001220703125 11.200000762939453)"><path d="M12 0 C15.81 4.4, 19.62 8.79, 22.4 12 M12 0 C15.65 4.21, 19.29 8.41, 22.4 12 M22.4 12 C19.4 15, 16.41 17.99, 12 22.4 M22.4 12 C20.14 14.26, 17.88 16.52, 12 22.4 M12 22.4 C9.59 20.31, 7.19 18.23, 0 12 M12 22.4 C7.46 18.46, 2.91 14.52, 0 12 M0 12 C4.48 7.52, 8.95 3.05, 12 0 M0 12 C2.62 9.38, 5.25 6.75, 12 0" stroke="#fff" stroke-width="2" fill="none"></path></g><g stroke-opacity="0.7" fill-opacity="0.7" stroke-linecap="round" transform="translate(127.60000610351562 486.80003356933594) rotate(0 7.5999908447265625 7.199981689453125)"><path d="M15.2 7.2 C15.2 7.62, 15.16 8.04, 15.08 8.45 C15.01 8.86, 14.89 9.27, 14.74 9.66 C14.59 10.05, 14.4 10.44, 14.18 10.8 C13.96 11.16, 13.7 11.51, 13.42 11.83 C13.14 12.15, 12.82 12.45, 12.49 12.72 C12.15 12.98, 11.78 13.23, 11.4 13.44 C11.02 13.64, 10.61 13.82, 10.2 13.97 C9.79 14.11, 9.35 14.22, 8.92 14.29 C8.49 14.36, 8.04 14.4, 7.6 14.4 C7.16 14.4, 6.71 14.36, 6.28 14.29 C5.85 14.22, 5.41 14.11, 5 13.97 C4.59 13.82, 4.18 13.64, 3.8 13.44 C3.42 13.23, 3.05 12.98, 2.71 12.72 C2.38 12.45, 2.06 12.15, 1.78 11.83 C1.5 11.51, 1.24 11.16, 1.02 10.8 C0.8 10.44, 0.61 10.05, 0.46 9.66 C0.31 9.27, 0.19 8.86, 0.12 8.45 C0.04 8.04, 0 7.62, 0 7.2 C0 6.78, 0.04 6.36, 0.12 5.95 C0.19 5.54, 0.31 5.13, 0.46 4.74 C0.61 4.35, 0.8 3.96, 1.02 3.6 C1.24 3.24, 1.5 2.89, 1.78 2.57 C2.06 2.25, 2.38 1.95, 2.71 1.68 C3.05 1.42, 3.42 1.17, 3.8 0.96 C4.18 0.76, 4.59 0.58, 5 0.43 C5.41 0.29, 5.85 0.18, 6.28 0.11 C6.71 0.04, 7.16 0, 7.6 0 C8.04 0, 8.49 0.04, 8.92 0.11 C9.35 0.18, 9.79 0.29, 10.2 0.43 C10.61 0.58, 11.02 0.76, 11.4 0.96 C11.78 1.17, 12.15 1.42, 12.49 1.68 C12.82 1.95, 13.14 2.25, 13.42 2.57 C13.7 2.89, 13.96 3.24, 14.18 3.6 C14.4 3.96, 14.59 4.35, 14.74 4.74 C14.89 5.13, 15.01 5.54, 15.08 5.95 C15.16 6.36, 15.18 6.99, 15.2 7.2 C15.22 7.41, 15.22 6.99, 15.2 7.2" stroke="#fff" stroke-width="2" fill="none"></path></g><g stroke-opacity="0.7" fill-opacity="0.7" stroke-linecap="round" transform="translate(236.8000030517578 527.0000152587891) rotate(0 7.5999908447265625 7.199981689453125)"><path d="M15.2 7.2 C15.2 7.62, 15.16 8.04, 15.08 8.45 C15.01 8.86, 14.89 9.27, 14.74 9.66 C14.59 10.05, 14.4 10.44, 14.18 10.8 C13.96 11.16, 13.7 11.51, 13.42 11.83 C13.14 12.15, 12.82 12.45, 12.49 12.72 C12.15 12.98, 11.78 13.23, 11.4 13.44 C11.02 13.64, 10.61 13.82, 10.2 13.97 C9.79 14.11, 9.35 14.22, 8.92 14.29 C8.49 14.36, 8.04 14.4, 7.6 14.4 C7.16 14.4, 6.71 14.36, 6.28 14.29 C5.85 14.22, 5.41 14.11, 5 13.97 C4.59 13.82, 4.18 13.64, 3.8 13.44 C3.42 13.23, 3.05 12.98, 2.71 12.72 C2.38 12.45, 2.06 12.15, 1.78 11.83 C1.5 11.51, 1.24 11.16, 1.02 10.8 C0.8 10.44, 0.61 10.05, 0.46 9.66 C0.31 9.27, 0.19 8.86, 0.12 8.45 C0.04 8.04, 0 7.62, 0 7.2 C0 6.78, 0.04 6.36, 0.12 5.95 C0.19 5.54, 0.31 5.13, 0.46 4.74 C0.61 4.35, 0.8 3.96, 1.02 3.6 C1.24 3.24, 1.5 2.89, 1.78 2.57 C2.06 2.25, 2.38 1.95, 2.71 1.68 C3.05 1.42, 3.42 1.17, 3.8 0.96 C4.18 0.76, 4.59 0.58, 5 0.43 C5.41 0.29, 5.85 0.18, 6.28 0.11 C6.71 0.04, 7.16 0, 7.6 0 C8.04 0, 8.49 0.04, 8.92 0.11 C9.35 0.18, 9.79 0.29, 10.2 0.43 C10.61 0.58, 11.02 0.76, 11.4 0.96 C11.78 1.17, 12.15 1.42, 12.49 1.68 C12.82 1.95, 13.14 2.25, 13.42 2.57 C13.7 2.89, 13.96 3.24, 14.18 3.6 C14.4 3.96, 14.59 4.35, 14.74 4.74 C14.89 5.13, 15.01 5.54, 15.08 5.95 C15.16 6.36, 15.18 6.99, 15.2 7.2 C15.22 7.41, 15.22 6.99, 15.2 7.2" stroke="#fff" stroke-width="2" fill="none"></path></g><g stroke-opacity="0.7" fill-opacity="0.7" stroke-linecap="round" transform="translate(368.8000030517578 520.0000152587891) rotate(0 7.5999908447265625 7.199981689453125)"><path d="M15.2 7.2 C15.2 7.62, 15.16 8.04, 15.08 8.45 C15.01 8.86, 14.89 9.27, 14.74 9.66 C14.59 10.05, 14.4 10.44, 14.18 10.8 C13.96 11.16, 13.7 11.51, 13.42 11.83 C13.14 12.15, 12.82 12.45, 12.49 12.72 C12.15 12.98, 11.78 13.23, 11.4 13.44 C11.02 13.64, 10.61 13.82, 10.2 13.97 C9.79 14.11, 9.35 14.22, 8.92 14.29 C8.49 14.36, 8.04 14.4, 7.6 14.4 C7.16 14.4, 6.71 14.36, 6.28 14.29 C5.85 14.22, 5.41 14.11, 5 13.97 C4.59 13.82, 4.18 13.64, 3.8 13.44 C3.42 13.23, 3.05 12.98, 2.71 12.72 C2.38 12.45, 2.06 12.15, 1.78 11.83 C1.5 11.51, 1.24 11.16, 1.02 10.8 C0.8 10.44, 0.61 10.05, 0.46 9.66 C0.31 9.27, 0.19 8.86, 0.12 8.45 C0.04 8.04, 0 7.62, 0 7.2 C0 6.78, 0.04 6.36, 0.12 5.95 C0.19 5.54, 0.31 5.13, 0.46 4.74 C0.61 4.35, 0.8 3.96, 1.02 3.6 C1.24 3.24, 1.5 2.89, 1.78 2.57 C2.06 2.25, 2.38 1.95, 2.71 1.68 C3.05 1.42, 3.42 1.17, 3.8 0.96 C4.18 0.76, 4.59 0.58, 5 0.43 C5.41 0.29, 5.85 0.18, 6.28 0.11 C6.71 0.04, 7.16 0, 7.6 0 C8.04 0, 8.49 0.04, 8.92 0.11 C9.35 0.18, 9.79 0.29, 10.2 0.43 C10.61 0.58, 11.02 0.76, 11.4 0.96 C11.78 1.17, 12.15 1.42, 12.49 1.68 C12.82 1.95, 13.14 2.25, 13.42 2.57 C13.7 2.89, 13.96 3.24, 14.18 3.6 C14.4 3.96, 14.59 4.35, 14.74 4.74 C14.89 5.13, 15.01 5.54, 15.08 5.95 C15.16 6.36, 15.18 6.99, 15.2 7.2 C15.22 7.41, 15.22 6.99, 15.2 7.2" stroke="#fff" stroke-width="2" fill="none"></path></g><g stroke-opacity="0.7" fill-opacity="0.7" stroke-linecap="round" transform="translate(312.8000030517578 566.0000152587891) rotate(0 7.5999908447265625 7.199981689453125)"><path d="M15.2 7.2 C15.2 7.62, 15.16 8.04, 15.08 8.45 C15.01 8.86, 14.89 9.27, 14.74 9.66 C14.59 10.05, 14.4 10.44, 14.18 10.8 C13.96 11.16, 13.7 11.51, 13.42 11.83 C13.14 12.15, 12.82 12.45, 12.49 12.72 C12.15 12.98, 11.78 13.23, 11.4 13.44 C11.02 13.64, 10.61 13.82, 10.2 13.97 C9.79 14.11, 9.35 14.22, 8.92 14.29 C8.49 14.36, 8.04 14.4, 7.6 14.4 C7.16 14.4, 6.71 14.36, 6.28 14.29 C5.85 14.22, 5.41 14.11, 5 13.97 C4.59 13.82, 4.18 13.64, 3.8 13.44 C3.42 13.23, 3.05 12.98, 2.71 12.72 C2.38 12.45, 2.06 12.15, 1.78 11.83 C1.5 11.51, 1.24 11.16, 1.02 10.8 C0.8 10.44, 0.61 10.05, 0.46 9.66 C0.31 9.27, 0.19 8.86, 0.12 8.45 C0.04 8.04, 0 7.62, 0 7.2 C0 6.78, 0.04 6.36, 0.12 5.95 C0.19 5.54, 0.31 5.13, 0.46 4.74 C0.61 4.35, 0.8 3.96, 1.02 3.6 C1.24 3.24, 1.5 2.89, 1.78 2.57 C2.06 2.25, 2.38 1.95, 2.71 1.68 C3.05 1.42, 3.42 1.17, 3.8 0.96 C4.18 0.76, 4.59 0.58, 5 0.43 C5.41 0.29, 5.85 0.18, 6.28 0.11 C6.71 0.04, 7.16 0, 7.6 0 C8.04 0, 8.49 0.04, 8.92 0.11 C9.35 0.18, 9.79 0.29, 10.2 0.43 C10.61 0.58, 11.02 0.76, 11.4 0.96 C11.78 1.17, 12.15 1.42, 12.49 1.68 C12.82 1.95, 13.14 2.25, 13.42 2.57 C13.7 2.89, 13.96 3.24, 14.18 3.6 C14.4 3.96, 14.59 4.35, 14.74 4.74 C14.89 5.13, 15.01 5.54, 15.08 5.95 C15.16 6.36, 15.18 6.99, 15.2 7.2 C15.22 7.41, 15.22 6.99, 15.2 7.2" stroke="#fff" stroke-width="2" fill="none"></path></g><g stroke-opacity="0.7" fill-opacity="0.7" stroke-linecap="round" transform="translate(487.8000030517578 466.00001525878906) rotate(0 7.5999908447265625 7.199981689453125)"><path d="M15.2 7.2 C15.2 7.62, 15.16 8.04, 15.08 8.45 C15.01 8.86, 14.89 9.27, 14.74 9.66 C14.59 10.05, 14.4 10.44, 14.18 10.8 C13.96 11.16, 13.7 11.51, 13.42 11.83 C13.14 12.15, 12.82 12.45, 12.49 12.72 C12.15 12.98, 11.78 13.23, 11.4 13.44 C11.02 13.64, 10.61 13.82, 10.2 13.97 C9.79 14.11, 9.35 14.22, 8.92 14.29 C8.49 14.36, 8.04 14.4, 7.6 14.4 C7.16 14.4, 6.71 14.36, 6.28 14.29 C5.85 14.22, 5.41 14.11, 5 13.97 C4.59 13.82, 4.18 13.64, 3.8 13.44 C3.42 13.23, 3.05 12.98, 2.71 12.72 C2.38 12.45, 2.06 12.15, 1.78 11.83 C1.5 11.51, 1.24 11.16, 1.02 10.8 C0.8 10.44, 0.61 10.05, 0.46 9.66 C0.31 9.27, 0.19 8.86, 0.12 8.45 C0.04 8.04, 0 7.62, 0 7.2 C0 6.78, 0.04 6.36, 0.12 5.95 C0.19 5.54, 0.31 5.13, 0.46 4.74 C0.61 4.35, 0.8 3.96, 1.02 3.6 C1.24 3.24, 1.5 2.89, 1.78 2.57 C2.06 2.25, 2.38 1.95, 2.71 1.68 C3.05 1.42, 3.42 1.17, 3.8 0.96 C4.18 0.76, 4.59 0.58, 5 0.43 C5.41 0.29, 5.85 0.18, 6.28 0.11 C6.71 0.04, 7.16 0, 7.6 0 C8.04 0, 8.49 0.04, 8.92 0.11 C9.35 0.18, 9.79 0.29, 10.2 0.43 C10.61 0.58, 11.02 0.76, 11.4 0.96 C11.78 1.17, 12.15 1.42, 12.49 1.68 C12.82 1.95, 13.14 2.25, 13.42 2.57 C13.7 2.89, 13.96 3.24, 14.18 3.6 C14.4 3.96, 14.59 4.35, 14.74 4.74 C14.89 5.13, 15.01 5.54, 15.08 5.95 C15.16 6.36, 15.18 6.99, 15.2 7.2 C15.22 7.41, 15.22 6.99, 15.2 7.2" stroke="#fff" stroke-width="2" fill="none"></path></g><g stroke-opacity="0.7" fill-opacity="0.7" stroke-linecap="round" transform="translate(671.8000030517578 560.0000152587891) rotate(0 7.5999908447265625 7.199981689453125)"><path d="M15.2 7.2 C15.2 7.62, 15.16 8.04, 15.08 8.45 C15.01 8.86, 14.89 9.27, 14.74 9.66 C14.59 10.05, 14.4 10.44, 14.18 10.8 C13.96 11.16, 13.7 11.51, 13.42 11.83 C13.14 12.15, 12.82 12.45, 12.49 12.72 C12.15 12.98, 11.78 13.23, 11.4 13.44 C11.02 13.64, 10.61 13.82, 10.2 13.97 C9.79 14.11, 9.35 14.22, 8.92 14.29 C8.49 14.36, 8.04 14.4, 7.6 14.4 C7.16 14.4, 6.71 14.36, 6.28 14.29 C5.85 14.22, 5.41 14.11, 5 13.97 C4.59 13.82, 4.18 13.64, 3.8 13.44 C3.42 13.23, 3.05 12.98, 2.71 12.72 C2.38 12.45, 2.06 12.15, 1.78 11.83 C1.5 11.51, 1.24 11.16, 1.02 10.8 C0.8 10.44, 0.61 10.05, 0.46 9.66 C0.31 9.27, 0.19 8.86, 0.12 8.45 C0.04 8.04, 0 7.62, 0 7.2 C0 6.78, 0.04 6.36, 0.12 5.95 C0.19 5.54, 0.31 5.13, 0.46 4.74 C0.61 4.35, 0.8 3.96, 1.02 3.6 C1.24 3.24, 1.5 2.89, 1.78 2.57 C2.06 2.25, 2.38 1.95, 2.71 1.68 C3.05 1.42, 3.42 1.17, 3.8 0.96 C4.18 0.76, 4.59 0.58, 5 0.43 C5.41 0.29, 5.85 0.18, 6.28 0.11 C6.71 0.04, 7.16 0, 7.6 0 C8.04 0, 8.49 0.04, 8.92 0.11 C9.35 0.18, 9.79 0.29, 10.2 0.43 C10.61 0.58, 11.02 0.76, 11.4 0.96 C11.78 1.17, 12.15 1.42, 12.49 1.68 C12.82 1.95, 13.14 2.25, 13.42 2.57 C13.7 2.89, 13.96 3.24, 14.18 3.6 C14.4 3.96, 14.59 4.35, 14.74 4.74 C14.89 5.13, 15.01 5.54, 15.08 5.95 C15.16 6.36, 15.18 6.99, 15.2 7.2 C15.22 7.41, 15.22 6.99, 15.2 7.2" stroke="#fff" stroke-width="2" fill="none"></path></g><g stroke-opacity="0.7" fill-opacity="0.7" stroke-linecap="round" transform="translate(822.8000030517578 518.0000152587891) rotate(0 7.5999908447265625 7.199981689453125)"><path d="M15.2 7.2 C15.2 7.62, 15.16 8.04, 15.08 8.45 C15.01 8.86, 14.89 9.27, 14.74 9.66 C14.59 10.05, 14.4 10.44, 14.18 10.8 C13.96 11.16, 13.7 11.51, 13.42 11.83 C13.14 12.15, 12.82 12.45, 12.49 12.72 C12.15 12.98, 11.78 13.23, 11.4 13.44 C11.02 13.64, 10.61 13.82, 10.2 13.97 C9.79 14.11, 9.35 14.22, 8.92 14.29 C8.49 14.36, 8.04 14.4, 7.6 14.4 C7.16 14.4, 6.71 14.36, 6.28 14.29 C5.85 14.22, 5.41 14.11, 5 13.97 C4.59 13.82, 4.18 13.64, 3.8 13.44 C3.42 13.23, 3.05 12.98, 2.71 12.72 C2.38 12.45, 2.06 12.15, 1.78 11.83 C1.5 11.51, 1.24 11.16, 1.02 10.8 C0.8 10.44, 0.61 10.05, 0.46 9.66 C0.31 9.27, 0.19 8.86, 0.12 8.45 C0.04 8.04, 0 7.62, 0 7.2 C0 6.78, 0.04 6.36, 0.12 5.95 C0.19 5.54, 0.31 5.13, 0.46 4.74 C0.61 4.35, 0.8 3.96, 1.02 3.6 C1.24 3.24, 1.5 2.89, 1.78 2.57 C2.06 2.25, 2.38 1.95, 2.71 1.68 C3.05 1.42, 3.42 1.17, 3.8 0.96 C4.18 0.76, 4.59 0.58, 5 0.43 C5.41 0.29, 5.85 0.18, 6.28 0.11 C6.71 0.04, 7.16 0, 7.6 0 C8.04 0, 8.49 0.04, 8.92 0.11 C9.35 0.18, 9.79 0.29, 10.2 0.43 C10.61 0.58, 11.02 0.76, 11.4 0.96 C11.78 1.17, 12.15 1.42, 12.49 1.68 C12.82 1.95, 13.14 2.25, 13.42 2.57 C13.7 2.89, 13.96 3.24, 14.18 3.6 C14.4 3.96, 14.59 4.35, 14.74 4.74 C14.89 5.13, 15.01 5.54, 15.08 5.95 C15.16 6.36, 15.18 6.99, 15.2 7.2 C15.22 7.41, 15.22 6.99, 15.2 7.2" stroke="#fff" stroke-width="2" fill="none"></path></g><g stroke-opacity="0.7" fill-opacity="0.7" stroke-linecap="round" transform="translate(646.8000183105469 477.99998474121094) rotate(0 5.5999755859375 5.600006103515625)"><path d="M0 0 C3.06 0, 6.12 0, 11.2 0 M0 0 C4.42 0, 8.84 0, 11.2 0 M11.2 0 C11.2 4.23, 11.2 8.46, 11.2 11.2 M11.2 0 C11.2 2.41, 11.2 4.83, 11.2 11.2 M11.2 11.2 C7.18 11.2, 3.15 11.2, 0 11.2 M11.2 11.2 C8.85 11.2, 6.51 11.2, 0 11.2 M0 11.2 C0 8.71, 0 6.22, 0 0 M0 11.2 C0 7.99, 0 4.79, 0 0" stroke="#fff" stroke-width="2" fill="none"></path></g><g stroke-opacity="0.7" fill-opacity="0.7" stroke-linecap="round" transform="translate(522.8000183105469 555.5999908447266) rotate(0 5.5999755859375 5.600006103515625)"><path d="M0 0 C3.76 0, 7.53 0, 11.2 0 M0 0 C3.57 0, 7.14 0, 11.2 0 M11.2 0 C11.2 3.38, 11.2 6.76, 11.2 11.2 M11.2 0 C11.2 3.38, 11.2 6.76, 11.2 11.2 M11.2 11.2 C8.32 11.2, 5.44 11.2, 0 11.2 M11.2 11.2 C8.13 11.2, 5.07 11.2, 0 11.2 M0 11.2 C0 6.97, 0 2.74, 0 0 M0 11.2 C0 8.2, 0 5.21, 0 0" stroke="#fff" stroke-width="2" fill="none"></path></g><g stroke-opacity="0.7" fill-opacity="0.7" stroke-linecap="round" transform="translate(745.8000183105469 479.59999084472656) rotate(0 5.5999755859375 5.600006103515625)"><path d="M0 0 C2.58 0, 5.15 0, 11.2 0 M0 0 C3.48 0, 6.96 0, 11.2 0 M11.2 0 C11.2 3.36, 11.2 6.71, 11.2 11.2 M11.2 0 C11.2 2.99, 11.2 5.98, 11.2 11.2 M11.2 11.2 C7.65 11.2, 4.11 11.2, 0 11.2 M11.2 11.2 C8.09 11.2, 4.99 11.2, 0 11.2 M0 11.2 C0 7.31, 0 3.41, 0 0 M0 11.2 C0 7.91, 0 4.62, 0 0" stroke="#fff" stroke-width="2" fill="none"></path></g><g stroke-opacity="0.7" fill-opacity="0.7" stroke-linecap="round" transform="translate(921.8000183105469 537.5999908447266) rotate(0 5.5999755859375 5.600006103515625)"><path d="M0 0 C4.3 0, 8.6 0, 11.2 0 M0 0 C3.91 0, 7.83 0, 11.2 0 M11.2 0 C11.2 3.19, 11.2 6.37, 11.2 11.2 M11.2 0 C11.2 2.42, 11.2 4.83, 11.2 11.2 M11.2 11.2 C8.08 11.2, 4.96 11.2, 0 11.2 M11.2 11.2 C8.3 11.2, 5.41 11.2, 0 11.2 M0 11.2 C0 7.31, 0 3.43, 0 0 M0 11.2 C0 7.1, 0 3, 0 0" stroke="#fff" stroke-width="2" fill="none"></path></g><g stroke-opacity="0.7" fill-opacity="0.7" stroke-linecap="round" transform="translate(754.8000183105469 535.5999908447266) rotate(0 5.5999755859375 5.600006103515625)"><path d="M0 0 C3.04 0, 6.07 0, 11.2 0 M0 0 C3.31 0, 6.63 0, 11.2 0 M11.2 0 C11.2 4, 11.2 8, 11.2 11.2 M11.2 0 C11.2 2.59, 11.2 5.17, 11.2 11.2 M11.2 11.2 C7.63 11.2, 4.07 11.2, 0 11.2 M11.2 11.2 C6.97 11.2, 2.73 11.2, 0 11.2 M0 11.2 C0 7.01, 0 2.82, 0 0 M0 11.2 C0 8.4, 0 5.59, 0 0" stroke="#fff" stroke-width="2" fill="none"></path></g><g stroke-opacity="0.7" fill-opacity="0.7" stroke-linecap="round" transform="translate(566.8000183105469 504.59999084472656) rotate(0 5.5999755859375 5.600006103515625)"><path d="M0 0 C3.43 0, 6.85 0, 11.2 0 M0 0 C3.68 0, 7.36 0, 11.2 0 M11.2 0 C11.2 3.78, 11.2 7.57, 11.2 11.2 M11.2 0 C11.2 4.05, 11.2 8.11, 11.2 11.2 M11.2 11.2 C8.15 11.2, 5.11 11.2, 0 11.2 M11.2 11.2 C8.55 11.2, 5.9 11.2, 0 11.2 M0 11.2 C0 7.79, 0 4.37, 0 0 M0 11.2 C0 7.43, 0 3.66, 0 0" stroke="#fff" stroke-width="2" fill="none"></path></g></svg>