<svg version="1.1" xmlns="http://www.w3.org/2000/svg" viewBox="0 0 1170.4000244140625 535.1999816894531" width="1170.4000244140625" height="535.1999816894531">
  <!-- svg-source:excalidraw -->
  
  <defs>
    <style>
      @font-face {
        font-family: "Virgil";
        src: url("https://excalidraw.com/Virgil.woff2");
      }
      @font-face {
        font-family: "Cascadia";
        src: url("https://excalidraw.com/Cascadia.woff2");
      }
    </style>
  </defs>
  <rect x="0" y="0" width="1170.4000244140625" height="535.1999816894531" fill="#000000"></rect><g stroke-linecap="round" transform="translate(60.399993896484375 41.20001220703122) rotate(0 99.59999084472656 75.60000610351562)"><path d="M0 0 C79.55 0, 159.1 0, 199.2 0 M0 0 C68.75 0, 137.51 0, 199.2 0 M199.2 0 C199.2 38.25, 199.2 76.5, 199.2 151.2 M199.2 0 C199.2 52.61, 199.2 105.22, 199.2 151.2 M199.2 151.2 C121.2 151.2, 43.19 151.2, 0 151.2 M199.2 151.2 C139.78 151.2, 80.36 151.2, 0 151.2 M0 151.2 C0 105.31, 0 59.42, 0 0 M0 151.2 C0 98.23, 0 45.25, 0 0" stroke="#fff" stroke-width="4" fill="none"></path></g><g stroke-opacity="0.6" fill-opacity="0.6" stroke-linecap="round" transform="translate(10 133.20001220703122) rotate(0 84.80000305175781 54.399993896484375)"><path d="M0 0 C53.16 0, 106.32 0, 169.6 0 M0 0 C47.11 0, 94.21 0, 169.6 0 M169.6 0 C169.6 25.51, 169.6 51.03, 169.6 108.8 M169.6 0 C169.6 35.69, 169.6 71.38, 169.6 108.8 M169.6 108.8 C135.61 108.8, 101.62 108.8, 0 108.8 M169.6 108.8 C105.22 108.8, 40.84 108.8, 0 108.8 M0 108.8 C0 70.85, 0 32.9, 0 0 M0 108.8 C0 80.61, 0 52.41, 0 0" stroke="#fff" stroke-width="4" fill="none"></path></g><g stroke-opacity="0.6" fill-opacity="0.6" stroke-linecap="round" transform="translate(790.800048828125 34.800010681152315) rotate(0 35.20001220703125 35.200008392333984)"><path d="M70.4 35.2 C70.4 37.04, 70.25 38.89, 69.97 40.71 C69.68 42.52, 69.24 44.33, 68.68 46.08 C68.11 47.82, 67.4 49.55, 66.56 51.18 C65.73 52.82, 64.76 54.41, 63.68 55.89 C62.6 57.38, 61.39 58.79, 60.09 60.09 C58.79 61.39, 57.38 62.6, 55.89 63.68 C54.41 64.76, 52.82 65.73, 51.18 66.56 C49.55 67.4, 47.82 68.11, 46.08 68.68 C44.33 69.24, 42.52 69.68, 40.71 69.97 C38.89 70.25, 37.04 70.4, 35.2 70.4 C33.36 70.4, 31.51 70.25, 29.69 69.97 C27.88 69.68, 26.07 69.24, 24.32 68.68 C22.58 68.11, 20.85 67.4, 19.22 66.56 C17.58 65.73, 15.99 64.76, 14.51 63.68 C13.03 62.6, 11.61 61.39, 10.31 60.09 C9.01 58.79, 7.8 57.38, 6.72 55.89 C5.64 54.41, 4.67 52.82, 3.84 51.18 C3 49.55, 2.29 47.82, 1.72 46.08 C1.16 44.33, 0.72 42.52, 0.43 40.71 C0.15 38.89, 0 37.04, 0 35.2 C0 33.36, 0.15 31.51, 0.43 29.69 C0.72 27.88, 1.16 26.07, 1.72 24.32 C2.29 22.58, 3 20.85, 3.84 19.22 C4.67 17.58, 5.64 15.99, 6.72 14.51 C7.8 13.03, 9.01 11.61, 10.31 10.31 C11.61 9.01, 13.03 7.8, 14.51 6.72 C15.99 5.64, 17.58 4.67, 19.22 3.84 C20.85 3, 22.58 2.29, 24.32 1.72 C26.07 1.16, 27.88 0.72, 29.69 0.43 C31.51 0.15, 33.36 0, 35.2 0 C37.04 0, 38.89 0.15, 40.71 0.43 C42.52 0.72, 44.33 1.16, 46.08 1.72 C47.82 2.29, 49.55 3, 51.18 3.84 C52.82 4.67, 54.41 5.64, 55.89 6.72 C57.38 7.8, 58.79 9.01, 60.09 10.31 C61.39 11.61, 62.6 13.03, 63.68 14.51 C64.76 15.99, 65.73 17.58, 66.56 19.22 C67.4 20.85, 68.11 22.58, 68.68 24.32 C69.24 26.07, 69.68 27.88, 69.97 29.69 C70.25 31.51, 70.33 34.28, 70.4 35.2 C70.47 36.12, 70.47 34.28, 70.4 35.2" stroke="#fff" stroke-width="4" fill="none"></path></g><g stroke-opacity="0.6" fill-opacity="0.6" stroke-linecap="round" transform="translate(886.800048828125 15.599998474121065) rotate(0 33.5999755859375 34.000003814697266)"><path d="M67.2 34 C67.2 35.77, 67.06 37.57, 66.79 39.32 C66.51 41.07, 66.1 42.82, 65.56 44.51 C65.01 46.19, 64.33 47.86, 63.54 49.44 C62.74 51.02, 61.81 52.55, 60.78 53.98 C59.75 55.42, 58.6 56.79, 57.36 58.04 C56.12 59.3, 54.77 60.46, 53.35 61.51 C51.93 62.55, 50.42 63.49, 48.85 64.29 C47.29 65.1, 45.65 65.79, 43.98 66.34 C42.32 66.88, 40.59 67.3, 38.86 67.58 C37.13 67.86, 35.35 68, 33.6 68 C31.85 68, 30.07 67.86, 28.34 67.58 C26.61 67.3, 24.88 66.88, 23.22 66.34 C21.55 65.79, 19.91 65.1, 18.35 64.29 C16.78 63.49, 15.27 62.55, 13.85 61.51 C12.43 60.46, 11.08 59.3, 9.84 58.04 C8.6 56.79, 7.45 55.42, 6.42 53.98 C5.39 52.55, 4.46 51.02, 3.66 49.44 C2.87 47.86, 2.19 46.19, 1.64 44.51 C1.1 42.82, 0.69 41.07, 0.41 39.32 C0.14 37.57, 0 35.77, 0 34 C0 32.23, 0.14 30.43, 0.41 28.68 C0.69 26.93, 1.1 25.18, 1.64 23.49 C2.19 21.81, 2.87 20.14, 3.66 18.56 C4.46 16.98, 5.39 15.45, 6.42 14.02 C7.45 12.58, 8.6 11.21, 9.84 9.96 C11.08 8.7, 12.43 7.54, 13.85 6.49 C15.27 5.45, 16.78 4.51, 18.35 3.71 C19.91 2.9, 21.55 2.21, 23.22 1.66 C24.88 1.12, 26.61 0.7, 28.34 0.42 C30.07 0.14, 31.85 0, 33.6 0 C35.35 0, 37.13 0.14, 38.86 0.42 C40.59 0.7, 42.32 1.12, 43.98 1.66 C45.65 2.21, 47.29 2.9, 48.85 3.71 C50.42 4.51, 51.93 5.45, 53.35 6.49 C54.77 7.54, 56.12 8.7, 57.36 9.96 C58.6 11.21, 59.75 12.58, 60.78 14.02 C61.81 15.45, 62.74 16.98, 63.54 18.56 C64.33 20.14, 65.01 21.81, 65.56 23.49 C66.1 25.18, 66.51 26.93, 66.79 28.68 C67.06 30.43, 67.13 33.11, 67.2 34 C67.27 34.89, 67.27 33.11, 67.2 34" stroke="#fff" stroke-width="4" fill="none"></path></g><g stroke-linecap="round" transform="translate(859.5999755859375 109.99999999999997) rotate(0 33.60003662109375 34)"><path d="M67.2 34 C67.2 35.77, 67.06 37.57, 66.79 39.32 C66.51 41.07, 66.1 42.82, 65.56 44.51 C65.01 46.19, 64.33 47.86, 63.54 49.44 C62.74 51.02, 61.81 52.55, 60.78 53.98 C59.75 55.42, 58.6 56.79, 57.36 58.04 C56.12 59.3, 54.77 60.46, 53.35 61.51 C51.93 62.55, 50.42 63.49, 48.85 64.29 C47.29 65.1, 45.65 65.79, 43.98 66.34 C42.32 66.88, 40.59 67.3, 38.86 67.58 C37.13 67.86, 35.35 68, 33.6 68 C31.85 68, 30.07 67.86, 28.34 67.58 C26.61 67.3, 24.88 66.88, 23.22 66.34 C21.55 65.79, 19.91 65.1, 18.35 64.29 C16.78 63.49, 15.27 62.55, 13.85 61.51 C12.43 60.46, 11.08 59.3, 9.84 58.04 C8.6 56.79, 7.45 55.42, 6.42 53.98 C5.39 52.55, 4.46 51.02, 3.66 49.44 C2.87 47.86, 2.19 46.19, 1.64 44.51 C1.1 42.82, 0.69 41.07, 0.41 39.32 C0.14 37.57, 0 35.77, 0 34 C0 32.23, 0.14 30.43, 0.41 28.68 C0.69 26.93, 1.1 25.18, 1.64 23.49 C2.19 21.81, 2.87 20.14, 3.66 18.56 C4.46 16.98, 5.39 15.45, 6.42 14.02 C7.45 12.58, 8.6 11.21, 9.84 9.96 C11.08 8.7, 12.43 7.54, 13.85 6.49 C15.27 5.45, 16.78 4.51, 18.35 3.71 C19.91 2.9, 21.55 2.21, 23.22 1.66 C24.88 1.12, 26.61 0.7, 28.34 0.42 C30.07 0.14, 31.85 0, 33.6 0 C35.35 0, 37.13 0.14, 38.86 0.42 C40.59 0.7, 42.32 1.12, 43.98 1.66 C45.65 2.21, 47.29 2.9, 48.85 3.71 C50.42 4.51, 51.93 5.45, 53.35 6.49 C54.77 7.54, 56.12 8.7, 57.36 9.96 C58.6 11.21, 59.75 12.58, 60.78 14.02 C61.81 15.45, 62.74 16.98, 63.54 18.56 C64.33 20.14, 65.01 21.81, 65.56 23.49 C66.1 25.18, 66.51 26.93, 66.79 28.68 C67.06 30.43, 67.13 33.11, 67.2 34 C67.27 34.89, 67.27 33.11, 67.2 34" stroke="#fff" stroke-width="4" fill="none"></path></g><g stroke-linecap="round"><g stroke-opacity="0.6" fill-opacity="0.6" transform="translate(999.5999755859375 21.99999237060544) rotate(0 -76.79998779296875 108.39999771118165)"><path d="M0 0 C-25.6 36.13, -128 180.67, -153.6 216.8 M0 0 C-25.6 36.13, -128 180.67, -153.6 216.8" stroke="#fff" stroke-width="4" fill="none"></path></g></g><g stroke-linecap="round"><g stroke-opacity="0.9" fill-opacity="0.9" transform="translate(972.4000244140625 9.999999999999972) rotate(0 10 224.0000152587891)"><path d="M0 0 C3.33 74.67, 16.67 373.33, 20 448 M0 0 C3.33 74.67, 16.67 373.33, 20 448" stroke="#fff" stroke-width="4" fill="none"></path></g></g><g stroke-linecap="round"><g stroke-opacity="0.6" fill-opacity="0.6" transform="translate(763.5999755859375 121.20002746582028) rotate(0 171.60003662109375 159.99997711181643)"><path d="M0 0 C57.2 53.33, 286 266.67, 343.2 320 M0 0 C57.2 53.33, 286 266.67, 343.2 320" stroke="#fff" stroke-width="4" fill="none"></path></g></g><g stroke-opacity="0.3" fill-opacity="0.3" transform="translate(52.399993896484375 409.00006103515625) rotate(0 206 40)"><text x="0" y="32" font-family="Cascadia, Segoe UI Emoji" font-size="33.439990234374996px" fill="#fff" text-anchor="start" style="white-space: pre;" direction="ltr">Collaborate With</text><text x="0" y="72" font-family="Cascadia, Segoe UI Emoji" font-size="33.439990234374996px" fill="#fff" text-anchor="start" style="white-space: pre;" direction="ltr">               Anyone</text></g><g stroke-opacity="0.3" fill-opacity="0.3" stroke-linecap="round" transform="translate(389.2000732421875 206.80001831054685) rotate(246.66599450149272 98.4000244140625 50.399993896484375)"><path d="M0 0 C61.06 0, 122.13 0, 196.8 0 M0 0 C64.06 0, 128.11 0, 196.8 0 M196.8 0 C196.8 21.07, 196.8 42.13, 196.8 100.8 M196.8 0 C196.8 39.13, 196.8 78.26, 196.8 100.8 M196.8 100.8 C147.74 100.8, 98.69 100.8, 0 100.8 M196.8 100.8 C134.65 100.8, 72.51 100.8, 0 100.8 M0 100.8 C0 71.06, 0 41.33, 0 0 M0 100.8 C0 64.01, 0 27.22, 0 0" stroke="#fff" stroke-width="4" fill="none"></path></g><g stroke-opacity="0.3" fill-opacity="0.3" stroke-linecap="round" transform="translate(516.4000854492188 205.1999816894531) rotate(336.25049295067794 88.39999389648438 58)"><path d="M0 0 C69.27 0, 138.53 0, 176.8 0 M0 0 C45.5 0, 91 0, 176.8 0 M176.8 0 C176.8 35.25, 176.8 70.5, 176.8 116 M176.8 0 C176.8 40.96, 176.8 81.91, 176.8 116 M176.8 116 C112.08 116, 47.36 116, 0 116 M176.8 116 C138.24 116, 99.67 116, 0 116 M0 116 C0 77.13, 0 38.25, 0 0 M0 116 C0 83.67, 0 51.34, 0 0" stroke="#fff" stroke-width="4" fill="none"></path></g><g stroke-opacity="0.3" fill-opacity="0.3" stroke-linecap="round" transform="translate(594 264.3999938964844) rotate(0 40.800018310546875 40.79999542236328)"><path d="M81.6 40.8 C81.6 42.74, 81.46 44.69, 81.18 46.61 C80.91 48.52, 80.49 50.44, 79.95 52.29 C79.4 54.15, 78.72 55.99, 77.91 57.75 C77.11 59.51, 76.17 61.23, 75.12 62.86 C74.08 64.49, 72.9 66.06, 71.63 67.52 C70.37 68.98, 68.98 70.37, 67.52 71.63 C66.06 72.9, 64.49 74.08, 62.86 75.12 C61.23 76.17, 59.51 77.11, 57.75 77.91 C55.99 78.72, 54.15 79.4, 52.29 79.95 C50.44 80.49, 48.52 80.91, 46.61 81.18 C44.69 81.46, 42.74 81.6, 40.8 81.6 C38.86 81.6, 36.91 81.46, 34.99 81.18 C33.08 80.91, 31.16 80.49, 29.31 79.95 C27.45 79.4, 25.61 78.72, 23.85 77.91 C22.09 77.11, 20.37 76.17, 18.74 75.12 C17.11 74.08, 15.54 72.9, 14.08 71.63 C12.62 70.37, 11.23 68.98, 9.97 67.52 C8.7 66.06, 7.52 64.49, 6.48 62.86 C5.43 61.23, 4.49 59.51, 3.69 57.75 C2.88 55.99, 2.2 54.15, 1.65 52.29 C1.11 50.44, 0.69 48.52, 0.42 46.61 C0.14 44.69, 0 42.74, 0 40.8 C0 38.86, 0.14 36.91, 0.42 34.99 C0.69 33.08, 1.11 31.16, 1.65 29.31 C2.2 27.45, 2.88 25.61, 3.69 23.85 C4.49 22.09, 5.43 20.37, 6.48 18.74 C7.52 17.11, 8.7 15.54, 9.97 14.08 C11.23 12.62, 12.62 11.23, 14.08 9.97 C15.54 8.7, 17.11 7.52, 18.74 6.48 C20.37 5.43, 22.09 4.49, 23.85 3.69 C25.61 2.88, 27.45 2.2, 29.31 1.65 C31.16 1.11, 33.08 0.69, 34.99 0.42 C36.91 0.14, 38.86 0, 40.8 0 C42.74 0, 44.69 0.14, 46.61 0.42 C48.52 0.69, 50.44 1.11, 52.29 1.65 C54.15 2.2, 55.99 2.88, 57.75 3.69 C59.51 4.49, 61.23 5.43, 62.86 6.48 C64.49 7.52, 66.06 8.7, 67.52 9.97 C68.98 11.23, 70.37 12.62, 71.63 14.08 C72.9 15.54, 74.08 17.11, 75.12 18.74 C76.17 20.37, 77.11 22.09, 77.91 23.85 C78.72 25.61, 79.4 27.45, 79.95 29.31 C80.49 31.16, 80.91 33.08, 81.18 34.99 C81.46 36.91, 81.53 39.83, 81.6 40.8 C81.67 41.77, 81.67 39.83, 81.6 40.8" stroke="#fff" stroke-width="4" fill="none"></path></g><g stroke-opacity="0.3" fill-opacity="0.3" stroke-linecap="round" transform="translate(618.8000183105469 299.0000534057617) rotate(0 40.800018310546875 40.79999542236328)"><path d="M81.6 40.8 C81.6 42.74, 81.46 44.69, 81.18 46.61 C80.91 48.52, 80.49 50.44, 79.95 52.29 C79.4 54.15, 78.72 55.99, 77.91 57.75 C77.11 59.51, 76.17 61.23, 75.12 62.86 C74.08 64.49, 72.9 66.06, 71.63 67.52 C70.37 68.98, 68.98 70.37, 67.52 71.63 C66.06 72.9, 64.49 74.08, 62.86 75.12 C61.23 76.17, 59.51 77.11, 57.75 77.91 C55.99 78.72, 54.15 79.4, 52.29 79.95 C50.44 80.49, 48.52 80.91, 46.61 81.18 C44.69 81.46, 42.74 81.6, 40.8 81.6 C38.86 81.6, 36.91 81.46, 34.99 81.18 C33.08 80.91, 31.16 80.49, 29.31 79.95 C27.45 79.4, 25.61 78.72, 23.85 77.91 C22.09 77.11, 20.37 76.17, 18.74 75.12 C17.11 74.08, 15.54 72.9, 14.08 71.63 C12.62 70.37, 11.23 68.98, 9.97 67.52 C8.7 66.06, 7.52 64.49, 6.48 62.86 C5.43 61.23, 4.49 59.51, 3.69 57.75 C2.88 55.99, 2.2 54.15, 1.65 52.29 C1.11 50.44, 0.69 48.52, 0.42 46.61 C0.14 44.69, 0 42.74, 0 40.8 C0 38.86, 0.14 36.91, 0.42 34.99 C0.69 33.08, 1.11 31.16, 1.65 29.31 C2.2 27.45, 2.88 25.61, 3.69 23.85 C4.49 22.09, 5.43 20.37, 6.48 18.74 C7.52 17.11, 8.7 15.54, 9.97 14.08 C11.23 12.62, 12.62 11.23, 14.08 9.97 C15.54 8.7, 17.11 7.52, 18.74 6.48 C20.37 5.43, 22.09 4.49, 23.85 3.69 C25.61 2.88, 27.45 2.2, 29.31 1.65 C31.16 1.11, 33.08 0.69, 34.99 0.42 C36.91 0.14, 38.86 0, 40.8 0 C42.74 0, 44.69 0.14, 46.61 0.42 C48.52 0.69, 50.44 1.11, 52.29 1.65 C54.15 2.2, 55.99 2.88, 57.75 3.69 C59.51 4.49, 61.23 5.43, 62.86 6.48 C64.49 7.52, 66.06 8.7, 67.52 9.97 C68.98 11.23, 70.37 12.62, 71.63 14.08 C72.9 15.54, 74.08 17.11, 75.12 18.74 C76.17 20.37, 77.11 22.09, 77.91 23.85 C78.72 25.61, 79.4 27.45, 79.95 29.31 C80.49 31.16, 80.91 33.08, 81.18 34.99 C81.46 36.91, 81.53 39.83, 81.6 40.8 C81.67 41.77, 81.67 39.83, 81.6 40.8" stroke="#fff" stroke-width="4" fill="none"></path></g><g stroke-opacity="0.3" fill-opacity="0.3" stroke-linecap="round" transform="translate(648.3999938964844 345.1999740600586) rotate(0 40.800018310546875 40.79999542236328)"><path d="M81.6 40.8 C81.6 42.74, 81.46 44.69, 81.18 46.61 C80.91 48.52, 80.49 50.44, 79.95 52.29 C79.4 54.15, 78.72 55.99, 77.91 57.75 C77.11 59.51, 76.17 61.23, 75.12 62.86 C74.08 64.49, 72.9 66.06, 71.63 67.52 C70.37 68.98, 68.98 70.37, 67.52 71.63 C66.06 72.9, 64.49 74.08, 62.86 75.12 C61.23 76.17, 59.51 77.11, 57.75 77.91 C55.99 78.72, 54.15 79.4, 52.29 79.95 C50.44 80.49, 48.52 80.91, 46.61 81.18 C44.69 81.46, 42.74 81.6, 40.8 81.6 C38.86 81.6, 36.91 81.46, 34.99 81.18 C33.08 80.91, 31.16 80.49, 29.31 79.95 C27.45 79.4, 25.61 78.72, 23.85 77.91 C22.09 77.11, 20.37 76.17, 18.74 75.12 C17.11 74.08, 15.54 72.9, 14.08 71.63 C12.62 70.37, 11.23 68.98, 9.97 67.52 C8.7 66.06, 7.52 64.49, 6.48 62.86 C5.43 61.23, 4.49 59.51, 3.69 57.75 C2.88 55.99, 2.2 54.15, 1.65 52.29 C1.11 50.44, 0.69 48.52, 0.42 46.61 C0.14 44.69, 0 42.74, 0 40.8 C0 38.86, 0.14 36.91, 0.42 34.99 C0.69 33.08, 1.11 31.16, 1.65 29.31 C2.2 27.45, 2.88 25.61, 3.69 23.85 C4.49 22.09, 5.43 20.37, 6.48 18.74 C7.52 17.11, 8.7 15.54, 9.97 14.08 C11.23 12.62, 12.62 11.23, 14.08 9.97 C15.54 8.7, 17.11 7.52, 18.74 6.48 C20.37 5.43, 22.09 4.49, 23.85 3.69 C25.61 2.88, 27.45 2.2, 29.31 1.65 C31.16 1.11, 33.08 0.69, 34.99 0.42 C36.91 0.14, 38.86 0, 40.8 0 C42.74 0, 44.69 0.14, 46.61 0.42 C48.52 0.69, 50.44 1.11, 52.29 1.65 C54.15 2.2, 55.99 2.88, 57.75 3.69 C59.51 4.49, 61.23 5.43, 62.86 6.48 C64.49 7.52, 66.06 8.7, 67.52 9.97 C68.98 11.23, 70.37 12.62, 71.63 14.08 C72.9 15.54, 74.08 17.11, 75.12 18.74 C76.17 20.37, 77.11 22.09, 77.91 23.85 C78.72 25.61, 79.4 27.45, 79.95 29.31 C80.49 31.16, 80.91 33.08, 81.18 34.99 C81.46 36.91, 81.53 39.83, 81.6 40.8 C81.67 41.77, 81.67 39.83, 81.6 40.8" stroke="#fff" stroke-width="4" fill="none"></path></g><g stroke-opacity="0.3" fill-opacity="0.3" stroke-linecap="round" transform="translate(602.1999816894531 337.2000045776367) rotate(0 40.800018310546875 40.79999542236328)"><path d="M81.6 40.8 C81.6 42.74, 81.46 44.69, 81.18 46.61 C80.91 48.52, 80.49 50.44, 79.95 52.29 C79.4 54.15, 78.72 55.99, 77.91 57.75 C77.11 59.51, 76.17 61.23, 75.12 62.86 C74.08 64.49, 72.9 66.06, 71.63 67.52 C70.37 68.98, 68.98 70.37, 67.52 71.63 C66.06 72.9, 64.49 74.08, 62.86 75.12 C61.23 76.17, 59.51 77.11, 57.75 77.91 C55.99 78.72, 54.15 79.4, 52.29 79.95 C50.44 80.49, 48.52 80.91, 46.61 81.18 C44.69 81.46, 42.74 81.6, 40.8 81.6 C38.86 81.6, 36.91 81.46, 34.99 81.18 C33.08 80.91, 31.16 80.49, 29.31 79.95 C27.45 79.4, 25.61 78.72, 23.85 77.91 C22.09 77.11, 20.37 76.17, 18.74 75.12 C17.11 74.08, 15.54 72.9, 14.08 71.63 C12.62 70.37, 11.23 68.98, 9.97 67.52 C8.7 66.06, 7.52 64.49, 6.48 62.86 C5.43 61.23, 4.49 59.51, 3.69 57.75 C2.88 55.99, 2.2 54.15, 1.65 52.29 C1.11 50.44, 0.69 48.52, 0.42 46.61 C0.14 44.69, 0 42.74, 0 40.8 C0 38.86, 0.14 36.91, 0.42 34.99 C0.69 33.08, 1.11 31.16, 1.65 29.31 C2.2 27.45, 2.88 25.61, 3.69 23.85 C4.49 22.09, 5.43 20.37, 6.48 18.74 C7.52 17.11, 8.7 15.54, 9.97 14.08 C11.23 12.62, 12.62 11.23, 14.08 9.97 C15.54 8.7, 17.11 7.52, 18.74 6.48 C20.37 5.43, 22.09 4.49, 23.85 3.69 C25.61 2.88, 27.45 2.2, 29.31 1.65 C31.16 1.11, 33.08 0.69, 34.99 0.42 C36.91 0.14, 38.86 0, 40.8 0 C42.74 0, 44.69 0.14, 46.61 0.42 C48.52 0.69, 50.44 1.11, 52.29 1.65 C54.15 2.2, 55.99 2.88, 57.75 3.69 C59.51 4.49, 61.23 5.43, 62.86 6.48 C64.49 7.52, 66.06 8.7, 67.52 9.97 C68.98 11.23, 70.37 12.62, 71.63 14.08 C72.9 15.54, 74.08 17.11, 75.12 18.74 C76.17 20.37, 77.11 22.09, 77.91 23.85 C78.72 25.61, 79.4 27.45, 79.95 29.31 C80.49 31.16, 80.91 33.08, 81.18 34.99 C81.46 36.91, 81.53 39.83, 81.6 40.8 C81.67 41.77, 81.67 39.83, 81.6 40.8" stroke="#fff" stroke-width="4" fill="none"></path></g><g stroke-opacity="0.8" fill-opacity="0.8" stroke-linecap="round" transform="translate(124.4000244140625 122.79998779296872) rotate(0 82 68.80000305175781)"><path d="M83 0 C104.08 17.96, 125.17 35.92, 164 69 M83 0 C110.93 23.79, 138.85 47.58, 164 69 M164 69 C135.66 93, 107.32 117, 83 137.6 M164 69 C135.5 93.13, 107.01 117.27, 83 137.6 M83 137.6 C56.24 115.48, 29.47 93.36, 0 69 M83 137.6 C56.59 115.77, 30.17 93.94, 0 69 M0 69 C24.9 48.3, 49.8 27.6, 83 0 M0 69 C20.49 51.97, 40.98 34.93, 83 0" stroke="#fff" stroke-width="4" fill="none"></path></g><g stroke-opacity="0.3" fill-opacity="0.3" transform="translate(322.00006103515625 17.299995422363253) rotate(0 153 12)"><text x="0" y="19" font-family="Cascadia, Segoe UI Emoji" font-size="20px" fill="#fff" text-anchor="start" style="white-space: pre;" direction="ltr">abcDefGHijklMNopQrstUvWxyz</text></g><g stroke-opacity="0.3" fill-opacity="0.3" transform="translate(866.800048828125 256.5) rotate(42.137551169638556 94.5 12)"><text x="0" y="19" font-family="Cascadia, Segoe UI Emoji" font-size="20px" fill="#fff" text-anchor="start" style="white-space: pre;" direction="ltr">Create NEW iDeas</text></g><g stroke-opacity="0.3" fill-opacity="0.3" transform="translate(634 522.0000305175781) rotate(0 228 -67.20001220703125)" stroke="none" fill="#fff"><path d="M -0.49,-1.48 Q -0.49,-1.48 3.65,-2.82 7.80,-4.17 18.57,-7.27 29.33,-10.38 52.34,-15.60 75.34,-20.83 117.32,-29.49 159.29,-38.14 215.74,-52.16 272.19,-66.17 318.92,-80.63 365.66,-95.09 391.00,-105.58 416.34,-116.08 427.57,-121.23 438.80,-126.38 443.56,-128.79 448.32,-131.20 449.15,-132.36 449.97,-133.52 449.86,-133.73 449.75,-133.95 449.72,-134.20 449.69,-134.44 449.73,-134.68 449.78,-134.92 449.90,-135.13 450.02,-135.34 450.20,-135.51 450.38,-135.67 450.61,-135.76 450.83,-135.86 451.08,-135.88 451.32,-135.90 451.56,-135.84 451.79,-135.78 452.00,-135.65 452.20,-135.52 452.36,-135.33 452.51,-135.14 452.59,-134.91 452.68,-134.68 452.68,-134.43 452.69,-134.19 452.62,-133.96 452.55,-133.72 452.40,-133.52 452.26,-133.33 452.06,-133.18 451.86,-133.04 451.63,-132.97 451.40,-132.90 451.15,-132.91 450.91,-132.91 450.68,-133.00 450.45,-133.08 450.26,-133.23 450.07,-133.39 449.94,-133.59 449.81,-133.80 449.75,-134.04 449.69,-134.27 449.71,-134.52 449.73,-134.76 449.83,-134.99 449.92,-135.21 450.09,-135.39 450.25,-135.57 450.46,-135.69 450.68,-135.81 450.92,-135.86 451.16,-135.90 451.40,-135.87 451.64,-135.84 451.86,-135.73 452.08,-135.62 452.25,-135.45 452.42,-135.27 452.42,-135.27 452.42,-135.27 450.97,-132.05 449.53,-128.83 444.72,-126.39 439.91,-123.95 428.64,-118.78 417.36,-113.60 391.91,-103.06 366.46,-92.51 319.65,-78.02 272.84,-63.53 216.35,-49.48 159.85,-35.43 117.91,-26.76 75.97,-18.08 53.05,-12.84 30.14,-7.60 19.44,-4.47 8.75,-1.34 4.62,0.06 0.49,1.48 0.30,1.51 0.12,1.55 -0.06,1.54 -0.25,1.54 -0.43,1.48 -0.61,1.43 -0.77,1.34 -0.93,1.24 -1.07,1.11 -1.21,0.98 -1.31,0.82 -1.41,0.66 -1.47,0.49 -1.53,0.31 -1.54,0.12 -1.56,-0.06 -1.53,-0.24 -1.50,-0.43 -1.42,-0.60 -1.35,-0.78 -1.23,-0.93 -1.12,-1.08 -0.98,-1.20 -0.83,-1.32 -0.66,-1.40 -0.49,-1.48 -0.49,-1.48 L -0.49,-1.48 Z"></path></g><g stroke-opacity="0.3" fill-opacity="0.3" transform="translate(815.5999755859375 423.6000061035156) rotate(0 172.4000244140625 -14.800018310546875)" stroke="none" fill="#fff"><path d="M 0.05,-1.56 Q 0.05,-1.56 6.49,-1.29 12.93,-1.03 27.89,0.24 42.85,1.51 63.19,2.29 83.53,3.06 112.39,2.71 141.26,2.35 176.25,-1.23 211.24,-4.82 241.50,-10.02 271.76,-15.22 291.49,-20.41 311.21,-25.60 320.73,-28.71 330.25,-31.83 334.07,-33.16 337.90,-34.48 338.51,-34.25 339.13,-34.03 338.97,-34.19 338.80,-34.36 338.70,-34.57 338.60,-34.79 338.57,-35.02 338.54,-35.25 338.59,-35.48 338.64,-35.71 338.76,-35.92 338.87,-36.12 339.05,-36.27 339.23,-36.43 339.45,-36.52 339.66,-36.61 339.90,-36.63 340.13,-36.64 340.36,-36.58 340.59,-36.52 340.78,-36.39 340.98,-36.26 341.12,-36.08 341.27,-35.89 341.35,-35.67 341.43,-35.45 341.43,-35.21 341.43,-34.98 341.36,-34.76 341.29,-34.53 341.15,-34.34 341.01,-34.15 340.82,-34.02 340.62,-33.89 340.40,-33.82 340.17,-33.75 339.94,-33.76 339.70,-33.77 339.48,-33.86 339.26,-33.94 339.08,-34.09 338.90,-34.24 338.78,-34.44 338.65,-34.64 338.60,-34.87 338.55,-35.10 338.57,-35.33 338.59,-35.56 338.69,-35.78 338.78,-35.99 338.94,-36.17 339.10,-36.34 339.31,-36.45 339.51,-36.57 339.74,-36.61 339.98,-36.65 340.21,-36.61 340.44,-36.58 340.65,-36.47 340.86,-36.36 340.86,-36.36 340.86,-36.36 339.81,-34.17 338.77,-31.97 334.92,-30.64 331.08,-29.30 321.49,-26.15 311.90,-23.00 292.06,-17.78 272.22,-12.56 241.87,-7.33 211.52,-2.11 176.41,1.50 141.29,5.12 112.36,5.50 83.42,5.88 63.02,5.13 42.61,4.39 27.72,3.17 12.82,1.95 6.38,1.75 -0.05,1.56 -0.24,1.53 -0.42,1.50 -0.60,1.42 -0.77,1.35 -0.92,1.24 -1.07,1.13 -1.19,0.98 -1.31,0.84 -1.39,0.67 -1.47,0.50 -1.51,0.31 -1.55,0.13 -1.54,-0.05 -1.54,-0.24 -1.49,-0.42 -1.43,-0.60 -1.34,-0.76 -1.25,-0.93 -1.12,-1.06 -0.99,-1.20 -0.83,-1.30 -0.67,-1.40 -0.49,-1.46 -0.31,-1.52 -0.13,-1.54 0.05,-1.56 0.05,-1.56 L 0.05,-1.56 Z"></path></g><g stroke-opacity="0.3" fill-opacity="0.3" transform="translate(826.800048828125 514.8000183105469) rotate(0 154.79998779296875 -14.399993896484375)" stroke="none" fill="#fff"><path d="M 0,-1.64 Q 0,-1.64 11.04,-1.60 22.08,-1.55 47.24,-1.52 72.40,-1.48 108.80,-4.22 145.20,-6.95 179.76,-10.64 214.32,-14.32 239.58,-17.72 264.84,-21.12 277.61,-23.70 290.38,-26.29 299.85,-28.20 309.33,-30.12 309.54,-30.13 309.76,-30.13 309.97,-30.07 310.18,-30.01 310.36,-29.88 310.54,-29.76 310.67,-29.58 310.80,-29.41 310.86,-29.20 310.93,-28.99 310.93,-28.77 310.92,-28.55 310.85,-28.35 310.78,-28.14 310.64,-27.97 310.51,-27.80 310.32,-27.68 310.14,-27.56 309.93,-27.51 309.72,-27.45 309.50,-27.47 309.28,-27.48 309.08,-27.57 308.88,-27.65 308.72,-27.79 308.55,-27.94 308.44,-28.13 308.33,-28.32 308.29,-28.53 308.25,-28.74 308.27,-28.96 308.30,-29.18 308.40,-29.37 308.49,-29.57 308.64,-29.73 308.80,-29.88 308.99,-29.98 309.19,-30.08 309.40,-30.11 309.62,-30.14 309.83,-30.10 310.05,-30.07 310.24,-29.96 310.43,-29.86 310.58,-29.69 310.72,-29.53 310.81,-29.33 310.90,-29.13 310.92,-28.92 310.94,-28.70 310.89,-28.49 310.84,-28.27 310.72,-28.09 310.61,-27.90 310.44,-27.77 310.27,-27.63 310.07,-27.55 309.86,-27.47 309.86,-27.47 309.86,-27.47 300.39,-25.54 290.92,-23.62 278.07,-21.00 265.21,-18.38 239.92,-14.95 214.62,-11.52 180.02,-7.80 145.42,-4.08 108.91,-1.29 72.40,1.48 47.24,1.52 22.08,1.55 11.04,1.60 0,1.64 -0.19,1.62 -0.39,1.59 -0.57,1.52 -0.76,1.45 -0.92,1.34 -1.09,1.23 -1.22,1.08 -1.35,0.93 -1.44,0.75 -1.53,0.58 -1.58,0.39 -1.63,0.19 -1.63,-0.00 -1.63,-0.19 -1.58,-0.39 -1.53,-0.58 -1.44,-0.75 -1.35,-0.93 -1.22,-1.08 -1.09,-1.23 -0.92,-1.34 -0.76,-1.45 -0.57,-1.52 -0.39,-1.59 -0.19,-1.62 0.00,-1.64 0.00,-1.64 L 0,-1.64 Z"></path></g><g stroke-opacity="0.3" fill-opacity="0.3" transform="translate(985.2000732421875 477.1999816894531) rotate(0 77.5999755859375 -8.79998779296875)" stroke="none" fill="#fff"><path d="M 0,-1.62 Q 0,-1.62 1.83,-1.65 3.67,-1.67 7.63,-1.85 11.59,-2.03 22.99,-2.09 34.39,-2.15 51.13,-3.32 67.87,-4.48 86.70,-6.81 105.53,-9.13 118.11,-11.49 130.69,-13.84 137.65,-15.30 144.61,-16.76 149.76,-17.84 154.92,-18.92 155.13,-18.93 155.35,-18.94 155.56,-18.88 155.77,-18.82 155.95,-18.69 156.13,-18.57 156.26,-18.39 156.39,-18.22 156.46,-18.01 156.53,-17.80 156.53,-17.58 156.53,-17.36 156.46,-17.16 156.38,-16.95 156.25,-16.78 156.12,-16.61 155.93,-16.48 155.75,-16.36 155.54,-16.31 155.33,-16.25 155.11,-16.26 154.89,-16.28 154.69,-16.36 154.49,-16.44 154.32,-16.59 154.16,-16.73 154.05,-16.92 153.93,-17.11 153.89,-17.32 153.84,-17.53 153.87,-17.75 153.90,-17.97 153.99,-18.17 154.08,-18.36 154.23,-18.52 154.39,-18.68 154.58,-18.78 154.77,-18.88 154.99,-18.91 155.21,-18.95 155.42,-18.91 155.64,-18.87 155.83,-18.77 156.02,-18.66 156.17,-18.50 156.32,-18.34 156.41,-18.14 156.50,-17.94 156.52,-17.73 156.54,-17.51 156.49,-17.30 156.45,-17.08 156.33,-16.90 156.22,-16.71 156.05,-16.57 155.88,-16.43 155.68,-16.35 155.47,-16.27 155.47,-16.27 155.47,-16.27 150.32,-15.18 145.17,-14.08 138.18,-12.60 131.20,-11.12 118.54,-8.72 105.88,-6.32 86.98,-3.95 68.08,-1.59 51.25,-0.37 34.41,0.84 23.09,0.98 11.77,1.11 7.72,1.39 3.68,1.67 1.84,1.65 0,1.62 -0.19,1.60 -0.38,1.58 -0.57,1.51 -0.75,1.44 -0.91,1.33 -1.07,1.21 -1.21,1.07 -1.34,0.92 -1.43,0.75 -1.52,0.57 -1.56,0.38 -1.61,0.19 -1.61,-0.00 -1.61,-0.19 -1.56,-0.38 -1.52,-0.57 -1.43,-0.75 -1.34,-0.92 -1.20,-1.07 -1.07,-1.21 -0.91,-1.33 -0.75,-1.44 -0.57,-1.51 -0.38,-1.58 -0.19,-1.60 0.00,-1.62 0.00,-1.62 L 0,-1.62 Z"></path></g><g stroke-opacity="0.3" fill-opacity="0.3" transform="translate(796.4000244140625 428.3999938964844) rotate(0 168.4000244140625 48)" stroke="none" fill="#fff"><path d="M 1.13,-1.06 Q 1.13,-1.06 4.56,2.63 7.98,6.33 15.31,11.73 22.64,17.14 36.52,24.48 50.39,31.83 70.30,40.01 90.20,48.20 114.50,55.81 138.80,63.42 166.11,69.65 193.43,75.87 218.59,79.89 243.75,83.92 265.48,86.55 287.20,89.18 300.14,90.99 313.07,92.81 319.25,93.58 325.42,94.35 328.49,94.67 331.57,95.00 334.25,95.11 336.94,95.22 337.18,95.29 337.43,95.35 337.64,95.49 337.86,95.63 338.02,95.83 338.17,96.03 338.26,96.27 338.35,96.51 338.35,96.77 338.36,97.02 338.28,97.26 338.20,97.51 338.05,97.71 337.90,97.92 337.69,98.07 337.48,98.21 337.24,98.29 336.99,98.36 336.74,98.35 336.48,98.34 336.25,98.25 336.01,98.16 335.81,98.00 335.61,97.84 335.48,97.62 335.34,97.41 335.28,97.16 335.22,96.91 335.25,96.66 335.27,96.40 335.37,96.17 335.47,95.93 335.65,95.75 335.82,95.56 336.04,95.43 336.26,95.31 336.52,95.26 336.77,95.22 337.02,95.26 337.27,95.29 337.50,95.41 337.73,95.52 337.90,95.70 338.08,95.89 338.20,96.12 338.31,96.35 338.34,96.60 338.37,96.85 338.32,97.10 338.27,97.35 338.14,97.57 338.02,97.79 337.82,97.96 337.63,98.13 337.40,98.23 337.16,98.33 336.91,98.35 336.65,98.37 336.65,98.37 336.65,98.37 333.97,98.00 331.29,97.63 328.19,97.30 325.09,96.97 318.90,96.20 312.71,95.44 299.79,93.63 286.88,91.83 265.10,89.20 243.33,86.56 218.08,82.53 192.83,78.50 165.41,72.26 137.98,66.03 113.57,58.39 89.15,50.75 69.11,42.54 49.08,34.32 35.01,26.90 20.93,19.47 13.37,13.92 5.81,8.38 2.33,4.72 -1.13,1.06 -1.25,0.91 -1.36,0.76 -1.43,0.59 -1.50,0.41 -1.53,0.23 -1.56,0.04 -1.54,-0.14 -1.52,-0.33 -1.46,-0.50 -1.40,-0.68 -1.30,-0.84 -1.19,-1.00 -1.06,-1.13 -0.92,-1.26 -0.75,-1.35 -0.59,-1.44 -0.41,-1.49 -0.23,-1.54 -0.04,-1.55 0.14,-1.55 0.32,-1.51 0.51,-1.47 0.68,-1.39 0.85,-1.31 0.99,-1.18 1.13,-1.06 1.13,-1.06 L 1.13,-1.06 Z"></path></g><g stroke-opacity="0.3" fill-opacity="0.3" transform="translate(525.2000122070312 63.599990844726534) rotate(0 33.600006103515625 2.0000076293945312)" stroke="none" fill="#fff"><path d="M 0.21,-1.79 Q 0.21,-1.79 4.11,-1.27 8.01,-0.74 13.09,-0.27 18.17,0.19 23.59,0.87 29.00,1.55 33.77,1.85 38.55,2.14 42.42,2.28 46.29,2.41 48.85,2.47 51.42,2.54 53.20,2.50 54.97,2.45 56.29,2.15 57.60,1.85 59.45,1.72 61.29,1.59 64.22,1.43 67.15,1.27 67.46,1.32 67.77,1.36 68.04,1.50 68.32,1.64 68.54,1.86 68.76,2.08 68.90,2.36 69.03,2.64 69.08,2.94 69.12,3.25 69.06,3.56 69.00,3.86 68.84,4.13 68.69,4.40 68.46,4.61 68.23,4.82 67.94,4.94 67.65,5.06 67.34,5.09 67.03,5.11 66.73,5.03 66.43,4.96 66.17,4.79 65.91,4.62 65.71,4.38 65.52,4.14 65.41,3.84 65.31,3.55 65.30,3.24 65.29,2.93 65.38,2.63 65.48,2.34 65.66,2.08 65.84,1.83 66.09,1.65 66.35,1.47 66.64,1.38 66.94,1.29 67.25,1.30 67.56,1.31 67.86,1.42 68.15,1.52 68.39,1.72 68.63,1.92 68.80,2.18 68.96,2.44 69.04,2.74 69.11,3.05 69.09,3.36 69.06,3.67 68.94,3.95 68.81,4.24 68.60,4.47 68.39,4.70 68.12,4.85 67.85,5.00 67.55,5.06 67.24,5.12 67.24,5.12 67.24,5.12 64.36,5.10 61.48,5.08 59.79,5.14 58.11,5.19 56.53,5.33 54.94,5.47 53.15,5.39 51.37,5.31 48.78,5.27 46.20,5.24 42.29,5.14 38.39,5.04 33.52,4.79 28.65,4.54 23.28,3.94 17.91,3.34 12.76,2.96 7.62,2.58 3.70,2.19 -0.21,1.79 -0.42,1.74 -0.63,1.69 -0.82,1.59 -1.02,1.49 -1.18,1.34 -1.34,1.20 -1.47,1.02 -1.59,0.84 -1.67,0.64 -1.75,0.43 -1.78,0.22 -1.80,0.00 -1.78,-0.20 -1.75,-0.42 -1.68,-0.63 -1.60,-0.83 -1.48,-1.01 -1.35,-1.19 -1.19,-1.33 -1.03,-1.48 -0.84,-1.58 -0.64,-1.68 -0.43,-1.74 -0.22,-1.79 -0.00,-1.79 0.21,-1.79 0.21,-1.79 L 0.21,-1.79 Z"></path></g><g stroke-opacity="0.3" fill-opacity="0.3" transform="translate(542 62.800003051757784) rotate(0 26.399993896484375 -4)" stroke="none" fill="#fff"><path d="M -0.43,-1.89 Q -0.43,-1.89 2.57,-2.49 5.58,-3.10 9.66,-3.80 13.73,-4.50 18.70,-5.24 23.66,-5.98 28.79,-6.51 33.91,-7.05 37.63,-7.71 41.36,-8.38 43.93,-8.67 46.50,-8.95 48.05,-9.18 49.60,-9.40 51.14,-9.59 52.69,-9.78 52.97,-9.75 53.26,-9.72 53.52,-9.60 53.79,-9.48 54.00,-9.28 54.21,-9.09 54.35,-8.83 54.48,-8.58 54.53,-8.29 54.58,-8.01 54.54,-7.72 54.49,-7.44 54.36,-7.18 54.22,-6.92 54.02,-6.72 53.81,-6.52 53.55,-6.40 53.28,-6.28 53.00,-6.24 52.71,-6.21 52.43,-6.27 52.14,-6.33 51.90,-6.48 51.65,-6.63 51.46,-6.85 51.27,-7.06 51.16,-7.33 51.05,-7.60 51.04,-7.89 51.02,-8.18 51.09,-8.46 51.17,-8.73 51.33,-8.97 51.49,-9.22 51.72,-9.39 51.95,-9.57 52.22,-9.66 52.49,-9.76 52.78,-9.76 53.07,-9.76 53.35,-9.67 53.62,-9.58 53.85,-9.41 54.08,-9.23 54.25,-8.99 54.41,-8.76 54.49,-8.48 54.57,-8.20 54.56,-7.91 54.54,-7.62 54.44,-7.35 54.33,-7.08 54.15,-6.86 53.96,-6.64 53.71,-6.49 53.47,-6.34 53.18,-6.28 52.90,-6.21 52.90,-6.21 52.90,-6.21 51.38,-6.22 49.86,-6.22 48.35,-6.19 46.83,-6.16 44.36,-5.85 41.88,-5.54 38.06,-4.81 34.24,-4.08 29.19,-3.49 24.15,-2.90 19.24,-2.08 14.34,-1.26 10.36,-0.45 6.37,0.34 3.40,1.11 0.43,1.89 0.20,1.91 -0.02,1.94 -0.26,1.90 -0.49,1.87 -0.70,1.79 -0.92,1.70 -1.11,1.56 -1.30,1.43 -1.46,1.25 -1.61,1.07 -1.71,0.86 -1.82,0.66 -1.87,0.43 -1.92,0.20 -1.92,-0.02 -1.92,-0.26 -1.86,-0.48 -1.80,-0.71 -1.69,-0.92 -1.58,-1.12 -1.42,-1.29 -1.26,-1.47 -1.07,-1.60 -0.87,-1.73 -0.65,-1.81 -0.43,-1.89 -0.43,-1.89 L -0.43,-1.89 Z"></path></g><g stroke-opacity="0.3" fill-opacity="0.3" transform="translate(564.4000244140625 52.39999389648435) rotate(0 22 -2.7999954223632812)" stroke="none" fill="#fff"><path d="M -0.26,-1.86 Q -0.26,-1.86 2.96,-2.25 6.19,-2.63 9.60,-3.22 13.01,-3.82 16.82,-4.29 20.63,-4.77 24.55,-5.18 28.46,-5.60 31.96,-6.00 35.46,-6.40 37.66,-6.56 39.86,-6.73 41.88,-6.98 43.89,-7.23 44.15,-7.20 44.41,-7.18 44.66,-7.07 44.90,-6.96 45.09,-6.78 45.29,-6.60 45.41,-6.37 45.54,-6.14 45.59,-5.87 45.63,-5.61 45.59,-5.35 45.55,-5.09 45.43,-4.85 45.31,-4.62 45.12,-4.43 44.93,-4.25 44.69,-4.14 44.45,-4.02 44.19,-3.99 43.92,-3.96 43.67,-4.01 43.41,-4.07 43.18,-4.20 42.95,-4.34 42.78,-4.54 42.60,-4.74 42.50,-4.98 42.40,-5.23 42.38,-5.49 42.37,-5.75 42.43,-6.01 42.50,-6.27 42.65,-6.49 42.79,-6.71 43.00,-6.87 43.21,-7.03 43.46,-7.12 43.71,-7.21 43.98,-7.21 44.24,-7.21 44.49,-7.13 44.75,-7.05 44.96,-6.89 45.17,-6.73 45.32,-6.52 45.47,-6.30 45.55,-6.04 45.62,-5.79 45.61,-5.53 45.60,-5.26 45.50,-5.01 45.41,-4.77 45.24,-4.56 45.07,-4.36 44.84,-4.22 44.62,-4.08 44.36,-4.02 44.10,-3.96 44.10,-3.96 44.10,-3.96 42.10,-3.95 40.09,-3.94 37.94,-3.75 35.80,-3.55 32.30,-3.11 28.80,-2.67 24.92,-2.19 21.04,-1.72 17.33,-1.18 13.62,-0.63 10.15,0.07 6.68,0.79 3.47,1.33 0.26,1.86 0.03,1.87 -0.18,1.87 -0.41,1.82 -0.63,1.77 -0.83,1.67 -1.03,1.57 -1.21,1.42 -1.38,1.28 -1.52,1.09 -1.65,0.91 -1.73,0.70 -1.82,0.49 -1.85,0.26 -1.88,0.03 -1.86,-0.18 -1.84,-0.41 -1.76,-0.62 -1.69,-0.84 -1.56,-1.03 -1.43,-1.22 -1.27,-1.37 -1.10,-1.53 -0.90,-1.64 -0.70,-1.75 -0.48,-1.81 -0.26,-1.86 -0.26,-1.86 L -0.26,-1.86 Z"></path></g><g stroke-opacity="0.3" fill-opacity="0.3" transform="translate(579.6000366210938 42.800003051757784) rotate(0 16.399993896484375 1.5999984741210938)" stroke="none" fill="#fff"><path d="M 0,-2.25 Q 0,-2.25 2.98,-2.13 5.97,-2.00 8.63,-1.91 11.28,-1.82 13.55,-1.75 15.83,-1.68 17.49,-1.73 19.14,-1.77 20.31,-1.86 21.47,-1.95 23.06,-2.10 24.66,-2.25 26.19,-1.77 27.73,-1.28 29.40,-1.23 31.08,-1.17 32.45,-0.29 33.82,0.57 34.21,0.81 34.60,1.04 34.90,1.38 35.20,1.73 35.37,2.15 35.54,2.57 35.57,3.03 35.60,3.48 35.48,3.92 35.36,4.36 35.10,4.74 34.85,5.12 34.49,5.40 34.13,5.67 33.70,5.82 33.27,5.97 32.81,5.97 32.36,5.98 31.92,5.83 31.49,5.69 31.13,5.42 30.76,5.14 30.50,4.77 30.25,4.39 30.12,3.95 30.00,3.52 30.02,3.06 30.04,2.61 30.21,2.18 30.37,1.76 30.67,1.41 30.96,1.06 31.35,0.82 31.74,0.59 32.18,0.48 32.63,0.38 33.08,0.43 33.53,0.48 33.95,0.67 34.36,0.85 34.69,1.17 35.03,1.48 35.24,1.88 35.46,2.28 35.53,2.73 35.61,3.18 35.54,3.63 35.47,4.08 35.26,4.48 35.05,4.89 34.72,5.20 34.39,5.52 33.98,5.71 33.56,5.90 33.11,5.96 32.66,6.01 32.21,5.91 31.77,5.82 31.77,5.82 31.77,5.82 29.75,4.58 27.73,3.34 26.19,2.79 24.66,2.25 23.06,2.10 21.47,1.95 20.31,1.86 19.14,1.77 17.49,1.73 15.83,1.68 13.55,1.75 11.28,1.82 8.63,1.91 5.97,2.00 2.98,2.13 0,2.25 -0.26,2.22 -0.53,2.19 -0.79,2.09 -1.04,1.99 -1.27,1.84 -1.49,1.68 -1.67,1.48 -1.85,1.28 -1.98,1.04 -2.10,0.79 -2.17,0.53 -2.23,0.27 -2.23,-0.00 -2.23,-0.27 -2.17,-0.53 -2.10,-0.80 -1.98,-1.04 -1.85,-1.28 -1.67,-1.48 -1.49,-1.68 -1.27,-1.84 -1.04,-1.99 -0.79,-2.09 -0.53,-2.19 -0.26,-2.22 0.00,-2.25 0.00,-2.25 L 0,-2.25 Z"></path></g><g stroke-opacity="0.3" fill-opacity="0.3" transform="translate(561.2000122070312 80.39999389648435) rotate(0 24.399993896484375 -4.399993896484375)" stroke="none" fill="#fff"><path d="M -0.18,-2.20 Q -0.18,-2.20 2.58,-2.31 5.35,-2.42 7.87,-2.66 10.39,-2.89 12.45,-3.00 14.51,-3.11 15.84,-3.25 17.17,-3.40 18.25,-3.70 19.34,-4.01 20.76,-4.38 22.17,-4.74 23.60,-4.96 25.02,-5.17 26.32,-5.28 27.62,-5.39 28.77,-5.82 29.92,-6.26 31.22,-6.72 32.52,-7.18 34.05,-7.61 35.58,-8.03 37.43,-8.40 39.27,-8.77 40.83,-8.98 42.39,-9.19 43.56,-9.50 44.74,-9.82 46.40,-10.45 48.05,-11.08 48.44,-11.14 48.82,-11.20 49.20,-11.13 49.58,-11.06 49.93,-10.88 50.27,-10.69 50.53,-10.41 50.80,-10.12 50.96,-9.77 51.12,-9.41 51.15,-9.03 51.19,-8.64 51.10,-8.26 51.02,-7.88 50.81,-7.55 50.61,-7.22 50.31,-6.97 50.01,-6.72 49.65,-6.58 49.29,-6.44 48.90,-6.43 48.51,-6.41 48.14,-6.52 47.76,-6.63 47.44,-6.85 47.13,-7.07 46.89,-7.38 46.66,-7.69 46.54,-8.06 46.42,-8.43 46.42,-8.82 46.43,-9.21 46.56,-9.57 46.68,-9.94 46.92,-10.25 47.16,-10.56 47.49,-10.77 47.81,-10.99 48.18,-11.09 48.56,-11.19 48.95,-11.16 49.34,-11.14 49.70,-10.99 50.05,-10.84 50.35,-10.59 50.64,-10.33 50.84,-10.00 51.04,-9.66 51.11,-9.28 51.19,-8.90 51.15,-8.51 51.10,-8.13 50.94,-7.78 50.77,-7.43 50.50,-7.15 50.23,-6.87 49.88,-6.69 49.54,-6.51 49.54,-6.51 49.54,-6.51 47.67,-5.89 45.79,-5.28 44.36,-4.98 42.93,-4.69 41.60,-4.56 40.26,-4.42 38.56,-3.97 36.85,-3.53 35.43,-3.13 34.01,-2.72 32.70,-2.31 31.38,-1.90 29.64,-1.36 27.89,-0.82 26.70,-0.81 25.50,-0.79 24.32,-0.72 23.13,-0.64 21.64,-0.33 20.16,-0.02 18.75,0.17 17.34,0.37 16.05,0.35 14.75,0.32 12.80,0.49 10.85,0.66 8.26,1.08 5.68,1.50 2.93,1.85 0.18,2.20 -0.08,2.19 -0.34,2.18 -0.60,2.10 -0.86,2.03 -1.09,1.90 -1.32,1.76 -1.51,1.58 -1.70,1.40 -1.85,1.17 -1.99,0.95 -2.07,0.69 -2.16,0.44 -2.18,0.18 -2.20,-0.08 -2.16,-0.34 -2.12,-0.60 -2.01,-0.85 -1.91,-1.09 -1.75,-1.31 -1.59,-1.52 -1.39,-1.69 -1.18,-1.86 -0.94,-1.97 -0.70,-2.09 -0.44,-2.14 -0.18,-2.20 -0.18,-2.20 L -0.18,-2.20 Z"></path></g><g stroke-opacity="0.3" fill-opacity="0.3" transform="translate(594 60.39999389648435) rotate(0 13.20001220703125 0)" stroke="none" fill="#fff"><path d="M 0,-2.47 Q 0,-2.47 2.07,-2.34 4.14,-2.20 5.93,-2.16 7.73,-2.13 8.96,-2.18 10.18,-2.24 11.71,-2.36 13.24,-2.48 14.70,-2.60 16.16,-2.72 17.26,-2.74 18.37,-2.76 19.75,-2.74 21.14,-2.72 23.77,-2.77 26.40,-2.82 26.85,-2.75 27.30,-2.67 27.70,-2.46 28.10,-2.24 28.42,-1.91 28.73,-1.58 28.92,-1.17 29.12,-0.75 29.17,-0.30 29.22,0.15 29.12,0.59 29.02,1.04 28.78,1.43 28.55,1.82 28.20,2.12 27.85,2.42 27.43,2.58 27.00,2.75 26.55,2.78 26.09,2.80 25.65,2.68 25.21,2.56 24.83,2.30 24.45,2.05 24.18,1.68 23.90,1.32 23.75,0.88 23.61,0.45 23.61,-0.00 23.61,-0.45 23.75,-0.89 23.90,-1.32 24.18,-1.68 24.45,-2.05 24.83,-2.30 25.21,-2.56 25.65,-2.68 26.09,-2.80 26.55,-2.78 27.00,-2.75 27.43,-2.58 27.85,-2.41 28.20,-2.12 28.55,-1.82 28.78,-1.43 29.02,-1.04 29.12,-0.59 29.22,-0.15 29.17,0.30 29.12,0.75 28.92,1.17 28.73,1.58 28.42,1.91 28.10,2.24 27.70,2.46 27.30,2.67 26.85,2.75 26.39,2.82 26.39,2.82 26.40,2.82 23.77,2.77 21.14,2.72 19.75,2.74 18.37,2.76 17.26,2.74 16.16,2.72 14.70,2.60 13.24,2.48 11.71,2.36 10.18,2.24 8.96,2.18 7.73,2.13 5.93,2.16 4.14,2.20 2.07,2.34 0,2.47 -0.29,2.43 -0.59,2.40 -0.87,2.29 -1.15,2.19 -1.39,2.02 -1.64,1.85 -1.83,1.62 -2.03,1.40 -2.17,1.14 -2.31,0.87 -2.38,0.58 -2.45,0.29 -2.45,-0.00 -2.45,-0.29 -2.38,-0.58 -2.31,-0.87 -2.17,-1.14 -2.03,-1.40 -1.83,-1.62 -1.64,-1.85 -1.39,-2.02 -1.15,-2.19 -0.87,-2.29 -0.59,-2.40 -0.29,-2.43 0.00,-2.47 0.00,-2.47 L 0,-2.47 Z"></path></g><g stroke-opacity="0.3" fill-opacity="0.3" transform="translate(596.4000244140625 69.99999999999997) rotate(0 16.399993896484375 1.6000137329101562)" stroke="none" fill="#fff"><path d="M 0.22,-2.43 Q 0.22,-2.43 2.73,-2.05 5.25,-1.67 7.42,-1.47 9.59,-1.27 10.76,-1.30 11.93,-1.33 13.73,-1.45 15.53,-1.56 17.39,-1.65 19.26,-1.74 20.45,-1.83 21.63,-1.91 23.48,-1.69 25.33,-1.46 26.60,-1.07 27.88,-0.68 31.53,0.28 35.19,1.24 35.44,1.67 35.69,2.11 35.78,2.60 35.88,3.09 35.82,3.58 35.75,4.08 35.54,4.53 35.32,4.98 34.97,5.33 34.62,5.69 34.17,5.91 33.72,6.14 33.23,6.21 32.74,6.28 32.24,6.19 31.75,6.10 31.32,5.86 30.88,5.62 30.54,5.25 30.21,4.88 30.00,4.42 29.80,3.96 29.76,3.47 29.71,2.97 29.83,2.48 29.95,2.00 30.21,1.57 30.48,1.15 30.87,0.83 31.25,0.52 31.72,0.34 32.19,0.17 32.69,0.15 33.19,0.13 33.67,0.27 34.15,0.42 34.55,0.71 34.96,0.99 35.26,1.40 35.55,1.80 35.70,2.28 35.85,2.75 35.84,3.25 35.83,3.75 35.66,4.22 35.50,4.69 35.19,5.09 34.88,5.48 34.46,5.75 34.04,6.02 33.55,6.15 33.07,6.27 32.57,6.23 32.07,6.20 31.61,6.00 31.15,5.81 30.78,5.48 30.40,5.15 30.40,5.15 30.40,5.15 29.06,5.22 27.73,5.30 26.32,4.94 24.92,4.59 23.28,4.05 21.63,3.51 20.44,3.43 19.25,3.34 17.37,3.24 15.49,3.14 13.64,2.97 11.78,2.81 10.60,2.69 9.42,2.58 7.14,2.59 4.86,2.59 2.32,2.51 -0.22,2.43 -0.50,2.36 -0.79,2.30 -1.06,2.17 -1.32,2.05 -1.55,1.86 -1.77,1.67 -1.95,1.43 -2.12,1.19 -2.23,0.92 -2.35,0.65 -2.39,0.36 -2.44,0.07 -2.41,-0.21 -2.38,-0.51 -2.29,-0.79 -2.19,-1.06 -2.03,-1.31 -1.87,-1.56 -1.66,-1.76 -1.44,-1.96 -1.19,-2.11 -0.93,-2.25 -0.65,-2.33 -0.36,-2.41 -0.07,-2.42 0.22,-2.43 0.22,-2.43 L 0.22,-2.43 Z"></path></g></svg>