<svg version="1.1" xmlns="http://www.w3.org/2000/svg" viewBox="0 0 1248.6001892089844 630.541992263794" width="1248.6001892089844" height="630.541992263794">
  <!-- svg-source:excalidraw -->
  
  <defs>
    <style>
      @font-face {
        font-family: "Virgil";
        src: url("https://excalidraw.com/Virgil.woff2");
      }
      @font-face {
        font-family: "Cascadia";
        src: url("https://excalidraw.com/Cascadia.woff2");
      }
    </style>
  </defs>
  <rect x="0" y="0" width="1248.6001892089844" height="630.541992263794" fill="#310e41"></rect><g stroke-opacity="0.5" fill-opacity="0.5" stroke-linecap="round" transform="translate(433.0001525878906 166.8000030517578) rotate(0 72.39999389648438 67.99999237060547)"><path d="M144.8 68 C144.8 70.54, 144.65 73.09, 144.34 75.61 C144.04 78.14, 143.59 80.66, 142.98 83.13 C142.38 85.61, 141.63 88.06, 140.74 90.46 C139.84 92.85, 138.8 95.22, 137.63 97.5 C136.46 99.79, 135.14 102.03, 133.7 104.18 C132.27 106.33, 130.69 108.41, 129 110.4 C127.32 112.38, 125.51 114.29, 123.59 116.08 C121.68 117.88, 119.65 119.58, 117.54 121.16 C115.43 122.75, 113.21 124.23, 110.92 125.58 C108.63 126.93, 106.25 128.16, 103.81 129.27 C101.38 130.37, 98.86 131.35, 96.31 132.18 C93.76 133.02, 91.14 133.73, 88.51 134.3 C85.88 134.86, 83.19 135.29, 80.51 135.57 C77.82 135.86, 75.1 136, 72.4 136 C69.7 136, 66.98 135.86, 64.29 135.57 C61.61 135.29, 58.92 134.86, 56.29 134.3 C53.66 133.73, 51.04 133.02, 48.49 132.18 C45.94 131.35, 43.42 130.37, 40.99 129.27 C38.55 128.16, 36.17 126.93, 33.88 125.58 C31.59 124.23, 29.37 122.75, 27.26 121.16 C25.15 119.58, 23.12 117.88, 21.21 116.08 C19.29 114.29, 17.48 112.38, 15.8 110.4 C14.11 108.41, 12.53 106.33, 11.1 104.18 C9.66 102.03, 8.34 99.79, 7.17 97.5 C6 95.22, 4.96 92.85, 4.06 90.46 C3.17 88.06, 2.42 85.61, 1.82 83.13 C1.21 80.66, 0.76 78.14, 0.46 75.61 C0.15 73.09, 0 70.54, 0 68 C0 65.46, 0.15 62.91, 0.46 60.39 C0.76 57.86, 1.21 55.34, 1.82 52.87 C2.42 50.39, 3.17 47.94, 4.06 45.54 C4.96 43.15, 6 40.78, 7.17 38.5 C8.34 36.21, 9.66 33.97, 11.1 31.82 C12.53 29.67, 14.11 27.59, 15.8 25.6 C17.48 23.62, 19.29 21.71, 21.21 19.92 C23.12 18.12, 25.15 16.42, 27.26 14.84 C29.37 13.25, 31.59 11.77, 33.88 10.42 C36.17 9.07, 38.55 7.84, 40.99 6.73 C43.42 5.63, 45.94 4.65, 48.49 3.82 C51.04 2.98, 53.66 2.27, 56.29 1.7 C58.92 1.14, 61.61 0.71, 64.29 0.43 C66.98 0.14, 69.7 0, 72.4 0 C75.1 0, 77.82 0.14, 80.51 0.43 C83.19 0.71, 85.88 1.14, 88.51 1.7 C91.14 2.27, 93.76 2.98, 96.31 3.82 C98.86 4.65, 101.38 5.63, 103.81 6.73 C106.25 7.84, 108.63 9.07, 110.92 10.42 C113.21 11.77, 115.43 13.25, 117.54 14.84 C119.65 16.42, 121.68 18.12, 123.59 19.92 C125.51 21.71, 127.32 23.62, 129 25.6 C130.69 27.59, 132.27 29.67, 133.7 31.82 C135.14 33.97, 136.46 36.21, 137.63 38.5 C138.8 40.78, 139.84 43.15, 140.74 45.54 C141.63 47.94, 142.38 50.39, 142.98 52.87 C143.59 55.34, 144.04 57.86, 144.34 60.39 C144.65 62.91, 144.72 66.73, 144.8 68 C144.88 69.27, 144.88 66.73, 144.8 68" stroke="#fff" stroke-width="1" fill="none"></path></g><g stroke-opacity="0.9" fill-opacity="0.9" stroke-linecap="round" transform="translate(521.0001525878906 192.39999389648438) rotate(0 82 78.80003356933594)"><path d="M164 78.8 C164 81.55, 163.85 84.31, 163.55 87.04 C163.25 89.77, 162.8 92.5, 162.21 95.18 C161.61 97.87, 160.87 100.54, 159.99 103.15 C159.1 105.76, 158.07 108.34, 156.91 110.85 C155.75 113.36, 154.44 115.82, 153.01 118.2 C151.59 120.58, 150.02 122.9, 148.34 125.12 C146.66 127.34, 144.85 129.49, 142.94 131.53 C141.03 133.57, 138.99 135.52, 136.87 137.36 C134.75 139.2, 132.51 140.94, 130.2 142.55 C127.89 144.16, 125.47 145.67, 123 147.04 C120.53 148.42, 117.96 149.67, 115.35 150.79 C112.74 151.9, 110.06 152.89, 107.34 153.74 C104.62 154.59, 101.84 155.31, 99.05 155.88 C96.25 156.45, 93.41 156.88, 90.57 157.17 C87.73 157.46, 84.86 157.6, 82 157.6 C79.14 157.6, 76.27 157.46, 73.43 157.17 C70.59 156.88, 67.75 156.45, 64.95 155.88 C62.16 155.31, 59.38 154.59, 56.66 153.74 C53.94 152.89, 51.26 151.9, 48.65 150.79 C46.04 149.67, 43.47 148.42, 41 147.04 C38.53 145.67, 36.11 144.16, 33.8 142.55 C31.49 140.94, 29.25 139.2, 27.13 137.36 C25.01 135.52, 22.97 133.57, 21.06 131.53 C19.15 129.49, 17.34 127.34, 15.66 125.12 C13.98 122.9, 12.41 120.58, 10.99 118.2 C9.56 115.82, 8.25 113.36, 7.09 110.85 C5.93 108.34, 4.9 105.76, 4.01 103.15 C3.13 100.54, 2.39 97.87, 1.79 95.18 C1.2 92.5, 0.75 89.77, 0.45 87.04 C0.15 84.31, 0 81.55, 0 78.8 C0 76.05, 0.15 73.29, 0.45 70.56 C0.75 67.83, 1.2 65.1, 1.79 62.42 C2.39 59.73, 3.13 57.06, 4.01 54.45 C4.9 51.84, 5.93 49.26, 7.09 46.75 C8.25 44.24, 9.56 41.78, 10.99 39.4 C12.41 37.02, 13.98 34.7, 15.66 32.48 C17.34 30.26, 19.15 28.11, 21.06 26.07 C22.97 24.03, 25.01 22.08, 27.13 20.24 C29.25 18.4, 31.49 16.66, 33.8 15.05 C36.11 13.44, 38.53 11.93, 41 10.56 C43.47 9.18, 46.04 7.93, 48.65 6.81 C51.26 5.7, 53.94 4.71, 56.66 3.86 C59.38 3.01, 62.16 2.29, 64.95 1.72 C67.75 1.15, 70.59 0.72, 73.43 0.43 C76.27 0.14, 79.14 0, 82 0 C84.86 0, 87.73 0.14, 90.57 0.43 C93.41 0.72, 96.25 1.15, 99.05 1.72 C101.84 2.29, 104.62 3.01, 107.34 3.86 C110.06 4.71, 112.74 5.7, 115.35 6.81 C117.96 7.93, 120.53 9.18, 123 10.56 C125.47 11.93, 127.89 13.44, 130.2 15.05 C132.51 16.66, 134.75 18.4, 136.87 20.24 C138.99 22.08, 141.03 24.03, 142.94 26.07 C144.85 28.11, 146.66 30.26, 148.34 32.48 C150.02 34.7, 151.59 37.02, 153.01 39.4 C154.44 41.78, 155.75 44.24, 156.91 46.75 C158.07 49.26, 159.1 51.84, 159.99 54.45 C160.87 57.06, 161.61 59.73, 162.21 62.42 C162.8 65.1, 163.25 67.83, 163.55 70.56 C163.85 73.29, 163.93 77.43, 164 78.8 C164.07 80.17, 164.07 77.43, 164 78.8" stroke="#fff" stroke-width="2" fill="none"></path></g><g stroke-linecap="round" transform="translate(356.2001037597656 250.79998779296875) rotate(0 94.80001831054688 88)"><path d="M189.6 88 C189.6 90.88, 189.45 93.76, 189.14 96.63 C188.84 99.49, 188.38 102.35, 187.78 105.17 C187.17 107.99, 186.42 110.79, 185.52 113.55 C184.62 116.3, 183.57 119.02, 182.38 121.68 C181.2 124.33, 179.87 126.95, 178.41 129.48 C176.95 132.02, 175.34 134.5, 173.62 136.89 C171.9 139.28, 170.05 141.6, 168.08 143.83 C166.12 146.05, 164.02 148.19, 161.83 150.23 C159.64 152.26, 157.33 154.2, 154.94 156.02 C152.55 157.85, 150.04 159.57, 147.47 161.17 C144.89 162.77, 142.22 164.25, 139.49 165.61 C136.76 166.96, 133.94 168.2, 131.08 169.3 C128.22 170.4, 125.28 171.38, 122.32 172.21 C119.36 173.05, 116.33 173.75, 113.29 174.31 C110.26 174.87, 107.17 175.29, 104.09 175.58 C101.01 175.86, 97.9 176, 94.8 176 C91.7 176, 88.59 175.86, 85.51 175.58 C82.43 175.29, 79.34 174.87, 76.31 174.31 C73.27 173.75, 70.24 173.05, 67.28 172.21 C64.32 171.38, 61.38 170.4, 58.52 169.3 C55.66 168.2, 52.84 166.96, 50.11 165.61 C47.38 164.25, 44.71 162.77, 42.13 161.17 C39.56 159.57, 37.05 157.85, 34.66 156.02 C32.27 154.2, 29.96 152.26, 27.77 150.23 C25.58 148.19, 23.48 146.05, 21.52 143.83 C19.55 141.6, 17.7 139.28, 15.98 136.89 C14.26 134.5, 12.65 132.02, 11.19 129.48 C9.73 126.95, 8.4 124.33, 7.22 121.68 C6.03 119.02, 4.98 116.3, 4.08 113.55 C3.18 110.79, 2.43 107.99, 1.82 105.17 C1.22 102.35, 0.76 99.49, 0.46 96.63 C0.15 93.76, 0 90.88, 0 88 C0 85.12, 0.15 82.24, 0.46 79.37 C0.76 76.51, 1.22 73.65, 1.82 70.83 C2.43 68.01, 3.18 65.21, 4.08 62.45 C4.98 59.7, 6.03 56.98, 7.22 54.32 C8.4 51.67, 9.73 49.05, 11.19 46.52 C12.65 43.98, 14.26 41.5, 15.98 39.11 C17.7 36.72, 19.55 34.4, 21.52 32.17 C23.48 29.95, 25.58 27.81, 27.77 25.77 C29.96 23.74, 32.27 21.8, 34.66 19.98 C37.05 18.15, 39.56 16.43, 42.13 14.83 C44.71 13.23, 47.38 11.75, 50.11 10.39 C52.84 9.04, 55.66 7.8, 58.52 6.7 C61.38 5.6, 64.32 4.62, 67.28 3.79 C70.24 2.95, 73.27 2.25, 76.31 1.69 C79.34 1.13, 82.43 0.71, 85.51 0.42 C88.59 0.14, 91.7 0, 94.8 0 C97.9 0, 101.01 0.14, 104.09 0.42 C107.17 0.71, 110.26 1.13, 113.29 1.69 C116.33 2.25, 119.36 2.95, 122.32 3.79 C125.28 4.62, 128.22 5.6, 131.08 6.7 C133.94 7.8, 136.76 9.04, 139.49 10.39 C142.22 11.75, 144.89 13.23, 147.47 14.83 C150.04 16.43, 152.55 18.15, 154.94 19.98 C157.33 21.8, 159.64 23.74, 161.83 25.77 C164.02 27.81, 166.12 29.95, 168.08 32.17 C170.05 34.4, 171.9 36.72, 173.62 39.11 C175.34 41.5, 176.95 43.98, 178.41 46.52 C179.87 49.05, 181.2 51.67, 182.38 54.32 C183.57 56.98, 184.62 59.7, 185.52 62.45 C186.42 65.21, 187.17 68.01, 187.78 70.83 C188.38 73.65, 188.84 76.51, 189.14 79.37 C189.45 82.24, 189.52 86.56, 189.6 88 C189.68 89.44, 189.68 86.56, 189.6 88" stroke="#fff" stroke-width="1" fill="none"></path></g><g stroke-opacity="0.8" fill-opacity="0.8" stroke-linecap="round" transform="translate(649.8000793457031 164.39999389648438) rotate(0 101.60000610351562 107.19999694824219)"><path d="M102 0 C125.2 24.76, 148.41 49.52, 203.2 108 M102 0 C137.15 37.52, 172.31 75.03, 203.2 108 M203.2 108 C180.92 131.42, 158.64 154.85, 102 214.4 M203.2 108 C173.7 139.01, 144.21 170.02, 102 214.4 M102 214.4 C63.17 173.89, 24.33 133.38, 0 108 M102 214.4 C79.26 190.68, 56.52 166.96, 0 108 M0 108 C36.52 69.33, 73.04 30.67, 102 0 M0 108 C28.22 78.12, 56.45 48.23, 102 0" stroke="#fff" stroke-width="1" fill="none"></path></g><g stroke-linecap="round"><g transform="translate(59.400115966796875 10) rotate(0 1.600006103515625 131.1999969482422)"><path d="M0 0 C0.53 43.73, 2.67 218.67, 3.2 262.4 M0 0 C0.53 43.73, 2.67 218.67, 3.2 262.4" stroke="#fff" stroke-width="1" fill="none"></path></g></g><g stroke-linecap="round"><g transform="translate(124.20013427734375 10) rotate(0 3.1999969482421875 169.60000610351562)"><path d="M0 0 C1.07 56.53, 5.33 282.67, 6.4 339.2 M0 0 C1.07 56.53, 5.33 282.67, 6.4 339.2" stroke="#fff" stroke-width="2" fill="none"></path></g></g><g stroke-linecap="round"><g stroke-opacity="0.5" fill-opacity="0.5" transform="translate(189.80010986328125 12.399993896484375) rotate(0 0 77.59999847412111)"><path d="M0 0 C0 25.87, 0 129.33, 0 155.2 M0 0 C0 25.87, 0 129.33, 0 155.2" stroke="#fff" stroke-width="2" fill="none"></path></g></g><g stroke-linecap="round" transform="translate(34.600128173828125 271.6000061035156) rotate(0 28.800003051757812 27.199996948242188)"><path d="M0 0 C17.61 0, 35.23 0, 57.6 0 M0 0 C13.37 0, 26.74 0, 57.6 0 M57.6 0 C57.6 14.82, 57.6 29.64, 57.6 54.4 M57.6 0 C57.6 16.84, 57.6 33.69, 57.6 54.4 M57.6 54.4 C35.51 54.4, 13.41 54.4, 0 54.4 M57.6 54.4 C44.98 54.4, 32.36 54.4, 0 54.4 M0 54.4 C0 39.29, 0 24.18, 0 0 M0 54.4 C0 39.94, 0 25.48, 0 0" stroke="#fff" stroke-width="2" fill="none"></path></g><g stroke-opacity="0.5" fill-opacity="0.5" stroke-linecap="round" transform="translate(100.20013427734375 350) rotate(0 30 28.800003051757812)"><path d="M60 28.8 C60 30.47, 59.85 32.16, 59.54 33.8 C59.24 35.44, 58.78 37.08, 58.19 38.65 C57.6 40.22, 56.85 41.76, 55.98 43.2 C55.11 44.64, 54.1 46.04, 52.98 47.31 C51.87 48.59, 50.61 49.79, 49.28 50.86 C47.95 51.93, 46.5 52.91, 45 53.74 C43.5 54.58, 41.89 55.29, 40.26 55.86 C38.63 56.43, 36.92 56.87, 35.21 57.16 C33.5 57.45, 31.74 57.6, 30 57.6 C28.26 57.6, 26.5 57.45, 24.79 57.16 C23.08 56.87, 21.37 56.43, 19.74 55.86 C18.11 55.29, 16.5 54.58, 15 53.74 C13.5 52.91, 12.05 51.93, 10.72 50.86 C9.39 49.79, 8.13 48.59, 7.02 47.31 C5.9 46.04, 4.89 44.64, 4.02 43.2 C3.15 41.76, 2.4 40.22, 1.81 38.65 C1.22 37.08, 0.76 35.44, 0.46 33.8 C0.15 32.16, 0 30.47, 0 28.8 C0 27.13, 0.15 25.44, 0.46 23.8 C0.76 22.16, 1.22 20.52, 1.81 18.95 C2.4 17.38, 3.15 15.84, 4.02 14.4 C4.89 12.96, 5.9 11.56, 7.02 10.29 C8.13 9.01, 9.39 7.81, 10.72 6.74 C12.05 5.67, 13.5 4.69, 15 3.86 C16.5 3.02, 18.11 2.31, 19.74 1.74 C21.37 1.17, 23.08 0.73, 24.79 0.44 C26.5 0.15, 28.26 0, 30 0 C31.74 0, 33.5 0.15, 35.21 0.44 C36.92 0.73, 38.63 1.17, 40.26 1.74 C41.89 2.31, 43.5 3.02, 45 3.86 C46.5 4.69, 47.95 5.67, 49.28 6.74 C50.61 7.81, 51.87 9.01, 52.98 10.29 C54.1 11.56, 55.11 12.96, 55.98 14.4 C56.85 15.84, 57.6 17.38, 58.19 18.95 C58.78 20.52, 59.24 22.16, 59.54 23.8 C59.85 25.44, 59.92 27.97, 60 28.8 C60.08 29.63, 60.08 27.97, 60 28.8" stroke="#fff" stroke-width="2" fill="none"></path></g><g stroke-opacity="0.8" fill-opacity="0.8" stroke-linecap="round" transform="translate(157.00015258789062 165.20001220703125) rotate(0 32.399993896484375 30.79999542236328)"><path d="M33 0 C44.61 11.32, 56.22 22.64, 64.8 31 M33 0 C40.05 6.87, 47.1 13.75, 64.8 31 M64.8 31 C52.12 43.2, 39.44 55.4, 33 61.6 M64.8 31 C54.56 40.85, 44.32 50.71, 33 61.6 M33 61.6 C21.56 50.99, 10.11 40.38, 0 31 M33 61.6 C23.52 52.81, 14.03 44.01, 0 31 M0 31 C7.64 23.82, 15.28 16.64, 33 0 M0 31 C12.29 19.46, 24.57 7.92, 33 0" stroke="#fff" stroke-width="2" fill="none"></path></g><g stroke-linecap="round"><g stroke-opacity="0.7" fill-opacity="0.7" transform="translate(1238.6001892089844 618.0000305175781) rotate(0 -201.60003662109375 -127.92903133392332)"><path d="M0 0 C-16.8 -43.07, -68.13 -258.8, -100.8 -258.4 C-133.47 -258, -170.27 -12.53, -196 2.4 C-221.73 17.33, -236.8 -168.8, -255.2 -168.8 C-273.6 -168.8, -288.67 -9.6, -306.4 2.4 C-324.13 14.4, -345.47 -96.67, -361.6 -96.8 C-377.73 -96.93, -396.27 -14.8, -403.2 1.6 M0 0 C-16.8 -43.07, -68.13 -258.8, -100.8 -258.4 C-133.47 -258, -170.27 -12.53, -196 2.4 C-221.73 17.33, -236.8 -168.8, -255.2 -168.8 C-273.6 -168.8, -288.67 -9.6, -306.4 2.4 C-324.13 14.4, -345.47 -96.67, -361.6 -96.8 C-377.73 -96.93, -396.27 -14.8, -403.2 1.6" stroke="#fff" stroke-width="2" fill="none"></path></g></g><g stroke-linecap="round" transform="translate(1065.0000915527344 21.199996948242188) rotate(0 64.800048828125 46.00001525878906)"><path d="M0 0 C36.25 0, 72.51 0, 129.6 0 M0 0 C49.13 0, 98.25 0, 129.6 0 M129.6 0 C129.6 22.23, 129.6 44.45, 129.6 92 M129.6 0 C129.6 34.64, 129.6 69.28, 129.6 92 M129.6 92 C96.65 92, 63.7 92, 0 92 M129.6 92 C89.53 92, 49.46 92, 0 92 M0 92 C0 60.11, 0 28.22, 0 0 M0 92 C0 62.27, 0 32.53, 0 0" stroke="#fff" stroke-width="1" fill="none"></path></g><g stroke-opacity="0.7" fill-opacity="0.7" stroke-linecap="round" transform="translate(69.19998168945312 464.8000030517578) rotate(0 29.200057983398438 25.20001220703125)"><path d="M0 0 C22.06 0, 44.13 0, 58.4 0 M0 0 C13.63 0, 27.25 0, 58.4 0 M58.4 0 C58.4 12.61, 58.4 25.22, 58.4 50.4 M58.4 0 C58.4 10.92, 58.4 21.83, 58.4 50.4 M58.4 50.4 C42.59 50.4, 26.77 50.4, 0 50.4 M58.4 50.4 C45.03 50.4, 31.66 50.4, 0 50.4 M0 50.4 C0 36.57, 0 22.75, 0 0 M0 50.4 C0 36.72, 0 23.03, 0 0" stroke="#fff" stroke-width="2" fill="none"></path></g><g stroke-linecap="round" transform="translate(10 524.0000305175781) rotate(0 64.800048828125 46.00001525878906)"><path d="M0 0 C38.25 0, 76.5 0, 129.6 0 M0 0 C47.07 0, 94.15 0, 129.6 0 M129.6 0 C129.6 32.7, 129.6 65.4, 129.6 92 M129.6 0 C129.6 24.06, 129.6 48.12, 129.6 92 M129.6 92 C98.02 92, 66.44 92, 0 92 M129.6 92 C103.66 92, 77.72 92, 0 92 M0 92 C0 63.6, 0 35.2, 0 0 M0 92 C0 61.98, 0 31.96, 0 0" stroke="#fff" stroke-width="1" fill="none"></path></g><g stroke-opacity="0.8" fill-opacity="0.8" stroke-linecap="round" transform="translate(1106.0000915527344 267.9999542236328) rotate(0 30.00006103515625 24.399993896484375)"><path d="M0 0 C23.32 0, 46.65 0, 60 0 M0 0 C19.67 0, 39.33 0, 60 0 M60 0 C60 11.79, 60 23.58, 60 48.8 M60 0 C60 15.45, 60 30.91, 60 48.8 M60 48.8 C41.77 48.8, 23.54 48.8, 0 48.8 M60 48.8 C47.99 48.8, 35.98 48.8, 0 48.8 M0 48.8 C0 31.66, 0 14.51, 0 0 M0 48.8 C0 29.93, 0 11.06, 0 0" stroke="#fff" stroke-width="1" fill="none"></path></g><g stroke-linecap="round" transform="translate(1094.7998962402344 197.59999084472656) rotate(0 39.2000732421875 31.600021362304688)"><path d="M0 0 C29.14 0, 58.29 0, 78.4 0 M0 0 C20.67 0, 41.33 0, 78.4 0 M78.4 0 C78.4 13.59, 78.4 27.18, 78.4 63.2 M78.4 0 C78.4 23.76, 78.4 47.53, 78.4 63.2 M78.4 63.2 C52.33 63.2, 26.25 63.2, 0 63.2 M78.4 63.2 C58.65 63.2, 38.91 63.2, 0 63.2 M0 63.2 C0 40.93, 0 18.66, 0 0 M0 63.2 C0 38.83, 0 14.46, 0 0" stroke="#fff" stroke-width="1" fill="none"></path></g><g stroke-opacity="0.6" fill-opacity="0.6" stroke-linecap="round" transform="translate(1084.3999938964844 119.19998168945312) rotate(0 48.40008544921875 35.600006103515625)"><path d="M0 0 C30.03 0, 60.07 0, 96.8 0 M0 0 C34.69 0, 69.38 0, 96.8 0 M96.8 0 C96.8 24.71, 96.8 49.43, 96.8 71.2 M96.8 0 C96.8 27.47, 96.8 54.93, 96.8 71.2 M96.8 71.2 C71.12 71.2, 45.45 71.2, 0 71.2 M96.8 71.2 C76.69 71.2, 56.58 71.2, 0 71.2 M0 71.2 C0 52.25, 0 33.3, 0 0 M0 71.2 C0 56.55, 0 41.9, 0 0" stroke="#fff" stroke-width="1" fill="none"></path></g><g stroke-linecap="round" transform="translate(1124.2001647949219 322.79998779296875) rotate(0 13.20001220703125 14)"><path d="M26.4 14 C26.4 14.81, 26.33 15.63, 26.2 16.43 C26.07 17.23, 25.87 18.03, 25.6 18.79 C25.34 19.55, 25.01 20.3, 24.63 21 C24.25 21.7, 23.8 22.38, 23.31 23 C22.82 23.62, 22.27 24.2, 21.68 24.72 C21.1 25.25, 20.46 25.72, 19.8 26.12 C19.14 26.53, 18.43 26.88, 17.71 27.16 C17 27.43, 16.24 27.65, 15.49 27.79 C14.74 27.93, 13.96 28, 13.2 28 C12.44 28, 11.66 27.93, 10.91 27.79 C10.16 27.65, 9.4 27.43, 8.69 27.16 C7.97 26.88, 7.26 26.53, 6.6 26.12 C5.94 25.72, 5.3 25.25, 4.72 24.72 C4.13 24.2, 3.58 23.62, 3.09 23 C2.6 22.38, 2.15 21.7, 1.77 21 C1.39 20.3, 1.06 19.55, 0.8 18.79 C0.53 18.03, 0.33 17.23, 0.2 16.43 C0.07 15.63, 0 14.81, 0 14 C0 13.19, 0.07 12.37, 0.2 11.57 C0.33 10.77, 0.53 9.97, 0.8 9.21 C1.06 8.45, 1.39 7.7, 1.77 7 C2.15 6.3, 2.6 5.62, 3.09 5 C3.58 4.38, 4.13 3.8, 4.72 3.28 C5.3 2.75, 5.94 2.28, 6.6 1.88 C7.26 1.47, 7.97 1.12, 8.69 0.84 C9.4 0.57, 10.16 0.35, 10.91 0.21 C11.66 0.07, 12.44 0, 13.2 0 C13.96 0, 14.74 0.07, 15.49 0.21 C16.24 0.35, 17 0.57, 17.71 0.84 C18.43 1.12, 19.14 1.47, 19.8 1.88 C20.46 2.28, 21.1 2.75, 21.68 3.28 C22.27 3.8, 22.82 4.38, 23.31 5 C23.8 5.62, 24.25 6.3, 24.63 7 C25.01 7.7, 25.34 8.45, 25.6 9.21 C25.87 9.97, 26.07 10.77, 26.2 11.57 C26.33 12.37, 26.37 13.59, 26.4 14 C26.43 14.41, 26.43 13.59, 26.4 14" stroke="#fff" stroke-width="2" fill="none"></path></g><g stroke-linecap="round" transform="translate(145.80010986328125 546.0000305175781) rotate(0 34 32.399993896484375)"><path d="M68 32.4 C68 34.09, 67.86 35.8, 67.58 37.47 C67.3 39.14, 66.88 40.81, 66.34 42.41 C65.79 44.02, 65.1 45.6, 64.29 47.11 C63.49 48.61, 62.55 50.08, 61.51 51.44 C60.46 52.81, 59.3 54.12, 58.04 55.31 C56.79 56.5, 55.42 57.62, 53.98 58.61 C52.55 59.61, 51.02 60.5, 49.44 61.27 C47.86 62.04, 46.19 62.69, 44.51 63.21 C42.82 63.74, 41.07 64.14, 39.32 64.4 C37.57 64.67, 35.77 64.8, 34 64.8 C32.23 64.8, 30.43 64.67, 28.68 64.4 C26.93 64.14, 25.18 63.74, 23.49 63.21 C21.81 62.69, 20.14 62.04, 18.56 61.27 C16.98 60.5, 15.45 59.61, 14.02 58.61 C12.58 57.62, 11.21 56.5, 9.96 55.31 C8.7 54.12, 7.54 52.81, 6.49 51.44 C5.45 50.08, 4.51 48.61, 3.71 47.11 C2.9 45.6, 2.21 44.02, 1.66 42.41 C1.12 40.81, 0.7 39.14, 0.42 37.47 C0.14 35.8, 0 34.09, 0 32.4 C0 30.71, 0.14 29, 0.42 27.33 C0.7 25.66, 1.12 23.99, 1.66 22.39 C2.21 20.78, 2.9 19.2, 3.71 17.69 C4.51 16.19, 5.45 14.72, 6.49 13.36 C7.54 11.99, 8.7 10.68, 9.96 9.49 C11.21 8.3, 12.58 7.18, 14.02 6.19 C15.45 5.19, 16.98 4.3, 18.56 3.53 C20.14 2.76, 21.81 2.11, 23.49 1.59 C25.18 1.06, 26.93 0.66, 28.68 0.4 C30.43 0.13, 32.23 0, 34 0 C35.77 0, 37.57 0.13, 39.32 0.4 C41.07 0.66, 42.82 1.06, 44.51 1.59 C46.19 2.11, 47.86 2.76, 49.44 3.53 C51.02 4.3, 52.55 5.19, 53.98 6.19 C55.42 7.18, 56.79 8.3, 58.04 9.49 C59.3 10.68, 60.46 11.99, 61.51 13.36 C62.55 14.72, 63.49 16.19, 64.29 17.69 C65.1 19.2, 65.79 20.78, 66.34 22.39 C66.88 23.99, 67.3 25.66, 67.58 27.33 C67.86 29, 67.93 31.56, 68 32.4 C68.07 33.24, 68.07 31.56, 68 32.4" stroke="#fff" stroke-width="1" fill="none"></path></g><g stroke-opacity="0.3" fill-opacity="0.3" stroke-linecap="round" transform="translate(217.00015258789062 464.3999938964844) rotate(0 37.20001220703125 75.60000610351562)"><path d="M0 0 C16.59 0, 33.18 0, 74.4 0 M0 0 C19.86 0, 39.73 0, 74.4 0 M74.4 0 C74.4 40.61, 74.4 81.22, 74.4 151.2 M74.4 0 C74.4 41.24, 74.4 82.47, 74.4 151.2 M74.4 151.2 C58.78 151.2, 43.15 151.2, 0 151.2 M74.4 151.2 C55.53 151.2, 36.66 151.2, 0 151.2 M0 151.2 C0 117.65, 0 84.1, 0 0 M0 151.2 C0 95.47, 0 39.75, 0 0" stroke="#fff" stroke-width="2" fill="none"></path></g><g stroke-linecap="round" transform="translate(265.8002014160156 434) rotate(0 12 12.400009155273438)"><path d="M24 12.4 C24 13.12, 23.94 13.85, 23.82 14.55 C23.7 15.26, 23.51 15.97, 23.28 16.64 C23.04 17.32, 22.74 17.98, 22.39 18.6 C22.05 19.22, 21.64 19.82, 21.19 20.37 C20.75 20.92, 20.25 21.44, 19.71 21.9 C19.18 22.36, 18.6 22.78, 18 23.14 C17.4 23.5, 16.76 23.81, 16.1 24.05 C15.45 24.3, 14.77 24.49, 14.08 24.61 C13.4 24.74, 12.69 24.8, 12 24.8 C11.31 24.8, 10.6 24.74, 9.92 24.61 C9.23 24.49, 8.55 24.3, 7.9 24.05 C7.24 23.81, 6.6 23.5, 6 23.14 C5.4 22.78, 4.82 22.36, 4.29 21.9 C3.75 21.44, 3.25 20.92, 2.81 20.37 C2.36 19.82, 1.95 19.22, 1.61 18.6 C1.26 17.98, 0.96 17.32, 0.72 16.64 C0.49 15.97, 0.3 15.26, 0.18 14.55 C0.06 13.85, 0 13.12, 0 12.4 C0 11.68, 0.06 10.95, 0.18 10.25 C0.3 9.54, 0.49 8.83, 0.72 8.16 C0.96 7.48, 1.26 6.82, 1.61 6.2 C1.95 5.58, 2.36 4.98, 2.81 4.43 C3.25 3.88, 3.75 3.36, 4.29 2.9 C4.82 2.44, 5.4 2.02, 6 1.66 C6.6 1.3, 7.24 0.99, 7.9 0.75 C8.55 0.5, 9.23 0.31, 9.92 0.19 C10.6 0.06, 11.31 0, 12 0 C12.69 0, 13.4 0.06, 14.08 0.19 C14.77 0.31, 15.45 0.5, 16.1 0.75 C16.76 0.99, 17.4 1.3, 18 1.66 C18.6 2.02, 19.18 2.44, 19.71 2.9 C20.25 3.36, 20.75 3.88, 21.19 4.43 C21.64 4.98, 22.05 5.58, 22.39 6.2 C22.74 6.82, 23.04 7.48, 23.28 8.16 C23.51 8.83, 23.7 9.54, 23.82 10.25 C23.94 10.95, 23.97 12.04, 24 12.4 C24.03 12.76, 24.03 12.04, 24 12.4" stroke="#fff" stroke-width="2" fill="none"></path></g><g stroke-linecap="round" transform="translate(301.0001525878906 499.6000061035156) rotate(0 20.399993896484375 20)"><path d="M40.8 20 C40.8 21.16, 40.7 22.33, 40.49 23.47 C40.29 24.61, 39.97 25.75, 39.57 26.84 C39.17 27.93, 38.66 29, 38.07 30 C37.48 31, 36.79 31.97, 36.03 32.86 C35.27 33.74, 34.42 34.58, 33.51 35.32 C32.61 36.07, 31.62 36.74, 30.6 37.32 C29.58 37.9, 28.49 38.4, 27.38 38.79 C26.27 39.19, 25.11 39.5, 23.94 39.7 C22.78 39.9, 21.58 40, 20.4 40 C19.22 40, 18.02 39.9, 16.86 39.7 C15.69 39.5, 14.53 39.19, 13.42 38.79 C12.31 38.4, 11.22 37.9, 10.2 37.32 C9.18 36.74, 8.19 36.07, 7.29 35.32 C6.38 34.58, 5.53 33.74, 4.77 32.86 C4.01 31.97, 3.32 31, 2.73 30 C2.14 29, 1.63 27.93, 1.23 26.84 C0.83 25.75, 0.51 24.61, 0.31 23.47 C0.1 22.33, 0 21.16, 0 20 C0 18.84, 0.1 17.67, 0.31 16.53 C0.51 15.39, 0.83 14.25, 1.23 13.16 C1.63 12.07, 2.14 11, 2.73 10 C3.32 9, 4.01 8.03, 4.77 7.14 C5.53 6.26, 6.38 5.42, 7.29 4.68 C8.19 3.93, 9.18 3.26, 10.2 2.68 C11.22 2.1, 12.31 1.6, 13.42 1.21 C14.53 0.81, 15.69 0.5, 16.86 0.3 C18.02 0.1, 19.22 0, 20.4 0 C21.58 0, 22.78 0.1, 23.94 0.3 C25.11 0.5, 26.27 0.81, 27.38 1.21 C28.49 1.6, 29.58 2.1, 30.6 2.68 C31.62 3.26, 32.61 3.93, 33.51 4.68 C34.42 5.42, 35.27 6.26, 36.03 7.14 C36.79 8.03, 37.48 9, 38.07 10 C38.66 11, 39.17 12.07, 39.57 13.16 C39.97 14.25, 40.29 15.39, 40.49 16.53 C40.7 17.67, 40.75 19.42, 40.8 20 C40.85 20.58, 40.85 19.42, 40.8 20" stroke="#fff" stroke-width="1" fill="none"></path></g><g stroke-opacity="0.8" fill-opacity="0.8" stroke-linecap="round" transform="translate(321.8001403808594 573.1999816894531) rotate(0 22.79998779296875 22.79998779296875)"><path d="M45.6 22.8 C45.6 24.12, 45.48 25.46, 45.25 26.76 C45.02 28.06, 44.68 29.36, 44.22 30.6 C43.77 31.84, 43.21 33.06, 42.55 34.2 C41.89 35.34, 41.11 36.44, 40.27 37.46 C39.42 38.47, 38.47 39.42, 37.46 40.27 C36.44 41.11, 35.34 41.89, 34.2 42.55 C33.06 43.21, 31.84 43.77, 30.6 44.22 C29.36 44.68, 28.06 45.02, 26.76 45.25 C25.46 45.48, 24.12 45.6, 22.8 45.6 C21.48 45.6, 20.14 45.48, 18.84 45.25 C17.54 45.02, 16.24 44.68, 15 44.22 C13.76 43.77, 12.54 43.21, 11.4 42.55 C10.26 41.89, 9.16 41.11, 8.14 40.27 C7.13 39.42, 6.18 38.47, 5.33 37.46 C4.49 36.44, 3.71 35.34, 3.05 34.2 C2.39 33.06, 1.83 31.84, 1.38 30.6 C0.92 29.36, 0.58 28.06, 0.35 26.76 C0.12 25.46, 0 24.12, 0 22.8 C0 21.48, 0.12 20.14, 0.35 18.84 C0.58 17.54, 0.92 16.24, 1.38 15 C1.83 13.76, 2.39 12.54, 3.05 11.4 C3.71 10.26, 4.49 9.16, 5.33 8.14 C6.18 7.13, 7.13 6.18, 8.14 5.33 C9.16 4.49, 10.26 3.71, 11.4 3.05 C12.54 2.39, 13.76 1.83, 15 1.38 C16.24 0.92, 17.54 0.58, 18.84 0.35 C20.14 0.12, 21.48 0, 22.8 0 C24.12 0, 25.46 0.12, 26.76 0.35 C28.06 0.58, 29.36 0.92, 30.6 1.38 C31.84 1.83, 33.06 2.39, 34.2 3.05 C35.34 3.71, 36.44 4.49, 37.46 5.33 C38.47 6.18, 39.42 7.13, 40.27 8.14 C41.11 9.16, 41.89 10.26, 42.55 11.4 C43.21 12.54, 43.77 13.76, 44.22 15 C44.68 16.24, 45.02 17.54, 45.25 18.84 C45.48 20.14, 45.54 22.14, 45.6 22.8 C45.66 23.46, 45.66 22.14, 45.6 22.8" stroke="#fff" stroke-width="2" fill="none"></path></g><g stroke-linecap="round" transform="translate(862.6000671386719 485.199951171875) rotate(0 12 13.199996948242188)"><path d="M0 0 C9.1 0, 18.2 0, 24 0 M0 0 C7.94 0, 15.88 0, 24 0 M24 0 C24 6.82, 24 13.64, 24 26.4 M24 0 C24 6.77, 24 13.53, 24 26.4 M24 26.4 C14.52 26.4, 5.04 26.4, 0 26.4 M24 26.4 C14.88 26.4, 5.75 26.4, 0 26.4 M0 26.4 C0 18.95, 0 11.5, 0 0 M0 26.4 C0 21.02, 0 15.65, 0 0" stroke="#fff" stroke-width="1" fill="none"></path></g><g stroke-linecap="round" transform="translate(756.4001159667969 411.1999969482422) rotate(0 12 13.199996948242188)"><path d="M0 0 C5.27 0, 10.54 0, 24 0 M0 0 C9.4 0, 18.79 0, 24 0 M24 0 C24 8.54, 24 17.09, 24 26.4 M24 0 C24 7.53, 24 15.06, 24 26.4 M24 26.4 C14.84 26.4, 5.68 26.4, 0 26.4 M24 26.4 C15.6 26.4, 7.2 26.4, 0 26.4 M0 26.4 C0 19.85, 0 13.3, 0 0 M0 26.4 C0 18.75, 0 11.11, 0 0" stroke="#fff" stroke-width="1" fill="none"></path></g><g stroke-linecap="round" transform="translate(673.4001159667969 450.1999969482422) rotate(0 12 13.199996948242188)"><path d="M0 0 C7.71 0, 15.41 0, 24 0 M0 0 C8.16 0, 16.31 0, 24 0 M24 0 C24 9.25, 24 18.5, 24 26.4 M24 0 C24 10.52, 24 21.04, 24 26.4 M24 26.4 C15.86 26.4, 7.72 26.4, 0 26.4 M24 26.4 C16.77 26.4, 9.54 26.4, 0 26.4 M0 26.4 C0 17.29, 0 8.17, 0 0 M0 26.4 C0 18.17, 0 9.93, 0 0" stroke="#fff" stroke-width="1" fill="none"></path></g><g stroke-linecap="round" transform="translate(719.4001159667969 495.1999969482422) rotate(0 12 13.199996948242188)"><path d="M0 0 C5.37 0, 10.75 0, 24 0 M0 0 C8.44 0, 16.87 0, 24 0 M24 0 C24 10.39, 24 20.78, 24 26.4 M24 0 C24 8.67, 24 17.33, 24 26.4 M24 26.4 C15.18 26.4, 6.36 26.4, 0 26.4 M24 26.4 C18.75 26.4, 13.49 26.4, 0 26.4 M0 26.4 C0 19.16, 0 11.91, 0 0 M0 26.4 C0 19.62, 0 12.85, 0 0" stroke="#fff" stroke-width="1" fill="none"></path></g><g stroke-opacity="0.5" fill-opacity="0.5" stroke-linecap="round" transform="translate(837.4001159667969 406.1999969482422) rotate(0 12 13.199996948242188)"><path d="M0 0 C5.44 0, 10.89 0, 24 0 M0 0 C8.74 0, 17.48 0, 24 0 M24 0 C24 9.38, 24 18.76, 24 26.4 M24 0 C24 7.29, 24 14.58, 24 26.4 M24 26.4 C17.56 26.4, 11.12 26.4, 0 26.4 M24 26.4 C15.09 26.4, 6.18 26.4, 0 26.4 M0 26.4 C0 20.87, 0 15.35, 0 0 M0 26.4 C0 16.5, 0 6.6, 0 0" stroke="#fff" stroke-width="2" fill="none"></path></g><g stroke-linecap="round" transform="translate(772.4001159667969 461.1999969482422) rotate(0 12 13.199996948242188)"><path d="M0 0 C6.11 0, 12.21 0, 24 0 M0 0 C8.58 0, 17.16 0, 24 0 M24 0 C24 7.26, 24 14.52, 24 26.4 M24 0 C24 7.08, 24 14.17, 24 26.4 M24 26.4 C18.97 26.4, 13.94 26.4, 0 26.4 M24 26.4 C15.61 26.4, 7.23 26.4, 0 26.4 M0 26.4 C0 17.89, 0 9.38, 0 0 M0 26.4 C0 20.45, 0 14.5, 0 0" stroke="#fff" stroke-width="1" fill="none"></path></g><g stroke-linecap="round" transform="translate(611.4001159667969 465.1999969482422) rotate(0 12 13.199996948242188)"><path d="M0 0 C9.17 0, 18.34 0, 24 0 M0 0 C8.49 0, 16.98 0, 24 0 M24 0 C24 10.42, 24 20.84, 24 26.4 M24 0 C24 9.46, 24 18.92, 24 26.4 M24 26.4 C15.82 26.4, 7.64 26.4, 0 26.4 M24 26.4 C16.27 26.4, 8.53 26.4, 0 26.4 M0 26.4 C0 17.59, 0 8.78, 0 0 M0 26.4 C0 15.84, 0 5.29, 0 0" stroke="#fff" stroke-width="1" fill="none"></path></g><g stroke-linecap="round" transform="translate(542.6001281738281 557.1999816894531) rotate(0 11.600006103515625 11.20001220703125)"><path d="M23.2 11.2 C23.2 11.85, 23.14 12.51, 23.02 13.14 C22.91 13.78, 22.73 14.42, 22.5 15.03 C22.27 15.64, 21.98 16.24, 21.65 16.8 C21.31 17.36, 20.92 17.9, 20.49 18.4 C20.05 18.9, 19.57 19.36, 19.06 19.78 C18.54 20.2, 17.98 20.58, 17.4 20.9 C16.82 21.22, 16.2 21.5, 15.57 21.72 C14.94 21.95, 14.28 22.12, 13.61 22.23 C12.95 22.34, 12.27 22.4, 11.6 22.4 C10.93 22.4, 10.25 22.34, 9.59 22.23 C8.92 22.12, 8.26 21.95, 7.63 21.72 C7 21.5, 6.38 21.22, 5.8 20.9 C5.22 20.58, 4.66 20.2, 4.14 19.78 C3.63 19.36, 3.15 18.9, 2.71 18.4 C2.28 17.9, 1.89 17.36, 1.55 16.8 C1.22 16.24, 0.93 15.64, 0.7 15.03 C0.47 14.42, 0.29 13.78, 0.18 13.14 C0.06 12.51, 0 11.85, 0 11.2 C0 10.55, 0.06 9.89, 0.18 9.26 C0.29 8.62, 0.47 7.98, 0.7 7.37 C0.93 6.76, 1.22 6.16, 1.55 5.6 C1.89 5.04, 2.28 4.5, 2.71 4 C3.15 3.5, 3.63 3.04, 4.14 2.62 C4.66 2.2, 5.22 1.82, 5.8 1.5 C6.38 1.18, 7 0.9, 7.63 0.68 C8.26 0.45, 8.92 0.28, 9.59 0.17 C10.25 0.06, 10.93 0, 11.6 0 C12.27 0, 12.95 0.06, 13.61 0.17 C14.28 0.28, 14.94 0.45, 15.57 0.68 C16.2 0.9, 16.82 1.18, 17.4 1.5 C17.98 1.82, 18.54 2.2, 19.06 2.62 C19.57 3.04, 20.05 3.5, 20.49 4 C20.92 4.5, 21.31 5.04, 21.65 5.6 C21.98 6.16, 22.27 6.76, 22.5 7.37 C22.73 7.98, 22.91 8.62, 23.02 9.26 C23.14 9.89, 23.17 10.88, 23.2 11.2 C23.23 11.52, 23.23 10.88, 23.2 11.2" stroke="#fff" stroke-width="1" fill="none"></path></g><g stroke-linecap="round" transform="translate(575.8001098632812 583.1999816894531) rotate(0 11.600006103515625 11.20001220703125)"><path d="M23.2 11.2 C23.2 11.85, 23.14 12.51, 23.02 13.14 C22.91 13.78, 22.73 14.42, 22.5 15.03 C22.27 15.64, 21.98 16.24, 21.65 16.8 C21.31 17.36, 20.92 17.9, 20.49 18.4 C20.05 18.9, 19.57 19.36, 19.06 19.78 C18.54 20.2, 17.98 20.58, 17.4 20.9 C16.82 21.22, 16.2 21.5, 15.57 21.72 C14.94 21.95, 14.28 22.12, 13.61 22.23 C12.95 22.34, 12.27 22.4, 11.6 22.4 C10.93 22.4, 10.25 22.34, 9.59 22.23 C8.92 22.12, 8.26 21.95, 7.63 21.72 C7 21.5, 6.38 21.22, 5.8 20.9 C5.22 20.58, 4.66 20.2, 4.14 19.78 C3.63 19.36, 3.15 18.9, 2.71 18.4 C2.28 17.9, 1.89 17.36, 1.55 16.8 C1.22 16.24, 0.93 15.64, 0.7 15.03 C0.47 14.42, 0.29 13.78, 0.18 13.14 C0.06 12.51, 0 11.85, 0 11.2 C0 10.55, 0.06 9.89, 0.18 9.26 C0.29 8.62, 0.47 7.98, 0.7 7.37 C0.93 6.76, 1.22 6.16, 1.55 5.6 C1.89 5.04, 2.28 4.5, 2.71 4 C3.15 3.5, 3.63 3.04, 4.14 2.62 C4.66 2.2, 5.22 1.82, 5.8 1.5 C6.38 1.18, 7 0.9, 7.63 0.68 C8.26 0.45, 8.92 0.28, 9.59 0.17 C10.25 0.06, 10.93 0, 11.6 0 C12.27 0, 12.95 0.06, 13.61 0.17 C14.28 0.28, 14.94 0.45, 15.57 0.68 C16.2 0.9, 16.82 1.18, 17.4 1.5 C17.98 1.82, 18.54 2.2, 19.06 2.62 C19.57 3.04, 20.05 3.5, 20.49 4 C20.92 4.5, 21.31 5.04, 21.65 5.6 C21.98 6.16, 22.27 6.76, 22.5 7.37 C22.73 7.98, 22.91 8.62, 23.02 9.26 C23.14 9.89, 23.17 10.88, 23.2 11.2 C23.23 11.52, 23.23 10.88, 23.2 11.2" stroke="#fff" stroke-width="1" fill="none"></path></g><g stroke-linecap="round" transform="translate(602.8001098632812 586.1999816894531) rotate(0 11.600006103515625 11.20001220703125)"><path d="M23.2 11.2 C23.2 11.85, 23.14 12.51, 23.02 13.14 C22.91 13.78, 22.73 14.42, 22.5 15.03 C22.27 15.64, 21.98 16.24, 21.65 16.8 C21.31 17.36, 20.92 17.9, 20.49 18.4 C20.05 18.9, 19.57 19.36, 19.06 19.78 C18.54 20.2, 17.98 20.58, 17.4 20.9 C16.82 21.22, 16.2 21.5, 15.57 21.72 C14.94 21.95, 14.28 22.12, 13.61 22.23 C12.95 22.34, 12.27 22.4, 11.6 22.4 C10.93 22.4, 10.25 22.34, 9.59 22.23 C8.92 22.12, 8.26 21.95, 7.63 21.72 C7 21.5, 6.38 21.22, 5.8 20.9 C5.22 20.58, 4.66 20.2, 4.14 19.78 C3.63 19.36, 3.15 18.9, 2.71 18.4 C2.28 17.9, 1.89 17.36, 1.55 16.8 C1.22 16.24, 0.93 15.64, 0.7 15.03 C0.47 14.42, 0.29 13.78, 0.18 13.14 C0.06 12.51, 0 11.85, 0 11.2 C0 10.55, 0.06 9.89, 0.18 9.26 C0.29 8.62, 0.47 7.98, 0.7 7.37 C0.93 6.76, 1.22 6.16, 1.55 5.6 C1.89 5.04, 2.28 4.5, 2.71 4 C3.15 3.5, 3.63 3.04, 4.14 2.62 C4.66 2.2, 5.22 1.82, 5.8 1.5 C6.38 1.18, 7 0.9, 7.63 0.68 C8.26 0.45, 8.92 0.28, 9.59 0.17 C10.25 0.06, 10.93 0, 11.6 0 C12.27 0, 12.95 0.06, 13.61 0.17 C14.28 0.28, 14.94 0.45, 15.57 0.68 C16.2 0.9, 16.82 1.18, 17.4 1.5 C17.98 1.82, 18.54 2.2, 19.06 2.62 C19.57 3.04, 20.05 3.5, 20.49 4 C20.92 4.5, 21.31 5.04, 21.65 5.6 C21.98 6.16, 22.27 6.76, 22.5 7.37 C22.73 7.98, 22.91 8.62, 23.02 9.26 C23.14 9.89, 23.17 10.88, 23.2 11.2 C23.23 11.52, 23.23 10.88, 23.2 11.2" stroke="#fff" stroke-width="1" fill="none"></path></g><g stroke-linecap="round" transform="translate(655.8001098632812 585.1999816894531) rotate(0 11.600006103515625 11.20001220703125)"><path d="M23.2 11.2 C23.2 11.85, 23.14 12.51, 23.02 13.14 C22.91 13.78, 22.73 14.42, 22.5 15.03 C22.27 15.64, 21.98 16.24, 21.65 16.8 C21.31 17.36, 20.92 17.9, 20.49 18.4 C20.05 18.9, 19.57 19.36, 19.06 19.78 C18.54 20.2, 17.98 20.58, 17.4 20.9 C16.82 21.22, 16.2 21.5, 15.57 21.72 C14.94 21.95, 14.28 22.12, 13.61 22.23 C12.95 22.34, 12.27 22.4, 11.6 22.4 C10.93 22.4, 10.25 22.34, 9.59 22.23 C8.92 22.12, 8.26 21.95, 7.63 21.72 C7 21.5, 6.38 21.22, 5.8 20.9 C5.22 20.58, 4.66 20.2, 4.14 19.78 C3.63 19.36, 3.15 18.9, 2.71 18.4 C2.28 17.9, 1.89 17.36, 1.55 16.8 C1.22 16.24, 0.93 15.64, 0.7 15.03 C0.47 14.42, 0.29 13.78, 0.18 13.14 C0.06 12.51, 0 11.85, 0 11.2 C0 10.55, 0.06 9.89, 0.18 9.26 C0.29 8.62, 0.47 7.98, 0.7 7.37 C0.93 6.76, 1.22 6.16, 1.55 5.6 C1.89 5.04, 2.28 4.5, 2.71 4 C3.15 3.5, 3.63 3.04, 4.14 2.62 C4.66 2.2, 5.22 1.82, 5.8 1.5 C6.38 1.18, 7 0.9, 7.63 0.68 C8.26 0.45, 8.92 0.28, 9.59 0.17 C10.25 0.06, 10.93 0, 11.6 0 C12.27 0, 12.95 0.06, 13.61 0.17 C14.28 0.28, 14.94 0.45, 15.57 0.68 C16.2 0.9, 16.82 1.18, 17.4 1.5 C17.98 1.82, 18.54 2.2, 19.06 2.62 C19.57 3.04, 20.05 3.5, 20.49 4 C20.92 4.5, 21.31 5.04, 21.65 5.6 C21.98 6.16, 22.27 6.76, 22.5 7.37 C22.73 7.98, 22.91 8.62, 23.02 9.26 C23.14 9.89, 23.17 10.88, 23.2 11.2 C23.23 11.52, 23.23 10.88, 23.2 11.2" stroke="#fff" stroke-width="2" fill="none"></path></g><g stroke-linecap="round" transform="translate(699.8001098632812 585.1999816894531) rotate(0 11.600006103515625 11.20001220703125)"><path d="M23.2 11.2 C23.2 11.85, 23.14 12.51, 23.02 13.14 C22.91 13.78, 22.73 14.42, 22.5 15.03 C22.27 15.64, 21.98 16.24, 21.65 16.8 C21.31 17.36, 20.92 17.9, 20.49 18.4 C20.05 18.9, 19.57 19.36, 19.06 19.78 C18.54 20.2, 17.98 20.58, 17.4 20.9 C16.82 21.22, 16.2 21.5, 15.57 21.72 C14.94 21.95, 14.28 22.12, 13.61 22.23 C12.95 22.34, 12.27 22.4, 11.6 22.4 C10.93 22.4, 10.25 22.34, 9.59 22.23 C8.92 22.12, 8.26 21.95, 7.63 21.72 C7 21.5, 6.38 21.22, 5.8 20.9 C5.22 20.58, 4.66 20.2, 4.14 19.78 C3.63 19.36, 3.15 18.9, 2.71 18.4 C2.28 17.9, 1.89 17.36, 1.55 16.8 C1.22 16.24, 0.93 15.64, 0.7 15.03 C0.47 14.42, 0.29 13.78, 0.18 13.14 C0.06 12.51, 0 11.85, 0 11.2 C0 10.55, 0.06 9.89, 0.18 9.26 C0.29 8.62, 0.47 7.98, 0.7 7.37 C0.93 6.76, 1.22 6.16, 1.55 5.6 C1.89 5.04, 2.28 4.5, 2.71 4 C3.15 3.5, 3.63 3.04, 4.14 2.62 C4.66 2.2, 5.22 1.82, 5.8 1.5 C6.38 1.18, 7 0.9, 7.63 0.68 C8.26 0.45, 8.92 0.28, 9.59 0.17 C10.25 0.06, 10.93 0, 11.6 0 C12.27 0, 12.95 0.06, 13.61 0.17 C14.28 0.28, 14.94 0.45, 15.57 0.68 C16.2 0.9, 16.82 1.18, 17.4 1.5 C17.98 1.82, 18.54 2.2, 19.06 2.62 C19.57 3.04, 20.05 3.5, 20.49 4 C20.92 4.5, 21.31 5.04, 21.65 5.6 C21.98 6.16, 22.27 6.76, 22.5 7.37 C22.73 7.98, 22.91 8.62, 23.02 9.26 C23.14 9.89, 23.17 10.88, 23.2 11.2 C23.23 11.52, 23.23 10.88, 23.2 11.2" stroke="#fff" stroke-width="1" fill="none"></path></g><g stroke-linecap="round" transform="translate(745.8001098632812 585.1999816894531) rotate(0 11.600006103515625 11.20001220703125)"><path d="M23.2 11.2 C23.2 11.85, 23.14 12.51, 23.02 13.14 C22.91 13.78, 22.73 14.42, 22.5 15.03 C22.27 15.64, 21.98 16.24, 21.65 16.8 C21.31 17.36, 20.92 17.9, 20.49 18.4 C20.05 18.9, 19.57 19.36, 19.06 19.78 C18.54 20.2, 17.98 20.58, 17.4 20.9 C16.82 21.22, 16.2 21.5, 15.57 21.72 C14.94 21.95, 14.28 22.12, 13.61 22.23 C12.95 22.34, 12.27 22.4, 11.6 22.4 C10.93 22.4, 10.25 22.34, 9.59 22.23 C8.92 22.12, 8.26 21.95, 7.63 21.72 C7 21.5, 6.38 21.22, 5.8 20.9 C5.22 20.58, 4.66 20.2, 4.14 19.78 C3.63 19.36, 3.15 18.9, 2.71 18.4 C2.28 17.9, 1.89 17.36, 1.55 16.8 C1.22 16.24, 0.93 15.64, 0.7 15.03 C0.47 14.42, 0.29 13.78, 0.18 13.14 C0.06 12.51, 0 11.85, 0 11.2 C0 10.55, 0.06 9.89, 0.18 9.26 C0.29 8.62, 0.47 7.98, 0.7 7.37 C0.93 6.76, 1.22 6.16, 1.55 5.6 C1.89 5.04, 2.28 4.5, 2.71 4 C3.15 3.5, 3.63 3.04, 4.14 2.62 C4.66 2.2, 5.22 1.82, 5.8 1.5 C6.38 1.18, 7 0.9, 7.63 0.68 C8.26 0.45, 8.92 0.28, 9.59 0.17 C10.25 0.06, 10.93 0, 11.6 0 C12.27 0, 12.95 0.06, 13.61 0.17 C14.28 0.28, 14.94 0.45, 15.57 0.68 C16.2 0.9, 16.82 1.18, 17.4 1.5 C17.98 1.82, 18.54 2.2, 19.06 2.62 C19.57 3.04, 20.05 3.5, 20.49 4 C20.92 4.5, 21.31 5.04, 21.65 5.6 C21.98 6.16, 22.27 6.76, 22.5 7.37 C22.73 7.98, 22.91 8.62, 23.02 9.26 C23.14 9.89, 23.17 10.88, 23.2 11.2 C23.23 11.52, 23.23 10.88, 23.2 11.2" stroke="#fff" stroke-width="1" fill="none"></path></g><g stroke-linecap="round" transform="translate(522.8001098632812 586.1999816894531) rotate(0 11.600006103515625 11.20001220703125)"><path d="M23.2 11.2 C23.2 11.85, 23.14 12.51, 23.02 13.14 C22.91 13.78, 22.73 14.42, 22.5 15.03 C22.27 15.64, 21.98 16.24, 21.65 16.8 C21.31 17.36, 20.92 17.9, 20.49 18.4 C20.05 18.9, 19.57 19.36, 19.06 19.78 C18.54 20.2, 17.98 20.58, 17.4 20.9 C16.82 21.22, 16.2 21.5, 15.57 21.72 C14.94 21.95, 14.28 22.12, 13.61 22.23 C12.95 22.34, 12.27 22.4, 11.6 22.4 C10.93 22.4, 10.25 22.34, 9.59 22.23 C8.92 22.12, 8.26 21.95, 7.63 21.72 C7 21.5, 6.38 21.22, 5.8 20.9 C5.22 20.58, 4.66 20.2, 4.14 19.78 C3.63 19.36, 3.15 18.9, 2.71 18.4 C2.28 17.9, 1.89 17.36, 1.55 16.8 C1.22 16.24, 0.93 15.64, 0.7 15.03 C0.47 14.42, 0.29 13.78, 0.18 13.14 C0.06 12.51, 0 11.85, 0 11.2 C0 10.55, 0.06 9.89, 0.18 9.26 C0.29 8.62, 0.47 7.98, 0.7 7.37 C0.93 6.76, 1.22 6.16, 1.55 5.6 C1.89 5.04, 2.28 4.5, 2.71 4 C3.15 3.5, 3.63 3.04, 4.14 2.62 C4.66 2.2, 5.22 1.82, 5.8 1.5 C6.38 1.18, 7 0.9, 7.63 0.68 C8.26 0.45, 8.92 0.28, 9.59 0.17 C10.25 0.06, 10.93 0, 11.6 0 C12.27 0, 12.95 0.06, 13.61 0.17 C14.28 0.28, 14.94 0.45, 15.57 0.68 C16.2 0.9, 16.82 1.18, 17.4 1.5 C17.98 1.82, 18.54 2.2, 19.06 2.62 C19.57 3.04, 20.05 3.5, 20.49 4 C20.92 4.5, 21.31 5.04, 21.65 5.6 C21.98 6.16, 22.27 6.76, 22.5 7.37 C22.73 7.98, 22.91 8.62, 23.02 9.26 C23.14 9.89, 23.17 10.88, 23.2 11.2 C23.23 11.52, 23.23 10.88, 23.2 11.2" stroke="#fff" stroke-width="2" fill="none"></path></g><g stroke-linecap="round" transform="translate(624.8001098632812 558.1999816894531) rotate(0 11.600006103515625 11.20001220703125)"><path d="M23.2 11.2 C23.2 11.85, 23.14 12.51, 23.02 13.14 C22.91 13.78, 22.73 14.42, 22.5 15.03 C22.27 15.64, 21.98 16.24, 21.65 16.8 C21.31 17.36, 20.92 17.9, 20.49 18.4 C20.05 18.9, 19.57 19.36, 19.06 19.78 C18.54 20.2, 17.98 20.58, 17.4 20.9 C16.82 21.22, 16.2 21.5, 15.57 21.72 C14.94 21.95, 14.28 22.12, 13.61 22.23 C12.95 22.34, 12.27 22.4, 11.6 22.4 C10.93 22.4, 10.25 22.34, 9.59 22.23 C8.92 22.12, 8.26 21.95, 7.63 21.72 C7 21.5, 6.38 21.22, 5.8 20.9 C5.22 20.58, 4.66 20.2, 4.14 19.78 C3.63 19.36, 3.15 18.9, 2.71 18.4 C2.28 17.9, 1.89 17.36, 1.55 16.8 C1.22 16.24, 0.93 15.64, 0.7 15.03 C0.47 14.42, 0.29 13.78, 0.18 13.14 C0.06 12.51, 0 11.85, 0 11.2 C0 10.55, 0.06 9.89, 0.18 9.26 C0.29 8.62, 0.47 7.98, 0.7 7.37 C0.93 6.76, 1.22 6.16, 1.55 5.6 C1.89 5.04, 2.28 4.5, 2.71 4 C3.15 3.5, 3.63 3.04, 4.14 2.62 C4.66 2.2, 5.22 1.82, 5.8 1.5 C6.38 1.18, 7 0.9, 7.63 0.68 C8.26 0.45, 8.92 0.28, 9.59 0.17 C10.25 0.06, 10.93 0, 11.6 0 C12.27 0, 12.95 0.06, 13.61 0.17 C14.28 0.28, 14.94 0.45, 15.57 0.68 C16.2 0.9, 16.82 1.18, 17.4 1.5 C17.98 1.82, 18.54 2.2, 19.06 2.62 C19.57 3.04, 20.05 3.5, 20.49 4 C20.92 4.5, 21.31 5.04, 21.65 5.6 C21.98 6.16, 22.27 6.76, 22.5 7.37 C22.73 7.98, 22.91 8.62, 23.02 9.26 C23.14 9.89, 23.17 10.88, 23.2 11.2 C23.23 11.52, 23.23 10.88, 23.2 11.2" stroke="#fff" stroke-width="2" fill="none"></path></g><g stroke-opacity="0.9" fill-opacity="0.9" stroke-linecap="round" transform="translate(343.4001159667969 38.800010681152344) rotate(0 19.600006103515625 19.199993133544922)"><path d="M20 0 C27.43 7.74, 34.86 15.48, 39.2 20 M20 0 C25.95 6.2, 31.91 12.4, 39.2 20 M39.2 20 C34.74 24.28, 30.27 28.55, 20 38.4 M39.2 20 C34.52 24.48, 29.84 28.97, 20 38.4 M20 38.4 C15.05 33.84, 10.1 29.29, 0 20 M20 38.4 C15.86 34.59, 11.73 30.79, 0 20 M0 20 C6.79 13.21, 13.58 6.42, 20 0 M0 20 C6.46 13.54, 12.93 7.07, 20 0" stroke="#fff" stroke-width="1" fill="none"></path></g><g stroke-opacity="0.2" fill-opacity="0.2" stroke-linecap="round" transform="translate(474.80010986328125 29.200000762939453) rotate(0 17.600006103515625 17.999996185302734)"><path d="M18 0 C23.4 5.65, 28.8 11.3, 35.2 18 M18 0 C21.58 3.75, 25.17 7.5, 35.2 18 M35.2 18 C29.74 23.71, 24.28 29.43, 18 36 M35.2 18 C30.22 23.21, 25.23 28.43, 18 36 M18 36 C12.56 30.56, 7.11 25.11, 0 18 M18 36 C11.05 29.05, 4.09 22.09, 0 18 M0 18 C4.13 13.87, 8.26 9.74, 18 0 M0 18 C7.13 10.87, 14.26 3.74, 18 0" stroke="#fff" stroke-width="1" fill="none"></path></g><g stroke-linecap="round" transform="translate(584.4000854492188 86.20000076293945) rotate(0 15.20001220703125 14.799999237060547)"><path d="M16 0 C19.11 3.24, 22.22 6.47, 30.4 15 M16 0 C19.39 3.53, 22.78 7.07, 30.4 15 M30.4 15 C26.93 18.52, 23.45 22.04, 16 29.6 M30.4 15 C27.12 18.32, 23.84 21.65, 16 29.6 M16 29.6 C12.33 26.25, 8.66 22.9, 0 15 M16 29.6 C11.03 25.07, 6.06 20.53, 0 15 M0 15 C3.93 11.32, 7.86 7.63, 16 0 M0 15 C4.87 10.44, 9.74 5.87, 16 0" stroke="#fff" stroke-width="1" fill="none"></path></g><g stroke-opacity="0.7" fill-opacity="0.7" stroke-linecap="round" transform="translate(641.8001098632812 37.20000076293945) rotate(0 13.199981689453125 14.39999008178711)"><path d="M14 0 C16.87 3.47, 19.74 6.94, 26.4 15 M14 0 C18.38 5.3, 22.76 10.59, 26.4 15 M26.4 15 C21.53 20.42, 16.66 25.84, 14 28.8 M26.4 15 C21.98 19.92, 17.55 24.85, 14 28.8 M14 28.8 C10.47 25.32, 6.94 21.84, 0 15 M14 28.8 C9.54 24.4, 5.07 20, 0 15 M0 15 C5.32 9.3, 10.63 3.61, 14 0 M0 15 C3.61 11.14, 7.21 7.27, 14 0" stroke="#fff" stroke-width="1" fill="none"></path></g><g stroke-linecap="round" transform="translate(723.8001098632812 66.20000076293945) rotate(0 19.600006103515625 19.199993133544922)"><path d="M20 0 C27.44 7.75, 34.87 15.49, 39.2 20 M20 0 C25.88 6.13, 31.76 12.25, 39.2 20 M39.2 20 C33.39 25.57, 27.58 31.14, 20 38.4 M39.2 20 C32.41 26.51, 25.62 33.02, 20 38.4 M20 38.4 C15.33 34.1, 10.65 29.8, 0 20 M20 38.4 C14.86 33.67, 9.73 28.95, 0 20 M0 20 C5.73 14.27, 11.47 8.53, 20 0 M0 20 C5.52 14.48, 11.05 8.95, 20 0" stroke="#fff" stroke-width="1" fill="none"></path></g><g stroke-opacity="0.6" fill-opacity="0.6" stroke-linecap="round" transform="translate(791.8001098632812 24.200000762939453) rotate(0 19.600006103515625 19.199993133544922)"><path d="M20 0 C24.75 4.95, 29.51 9.9, 39.2 20 M20 0 C23.97 4.14, 27.94 8.27, 39.2 20 M39.2 20 C32.68 26.25, 26.17 32.49, 20 38.4 M39.2 20 C33 25.95, 26.79 31.89, 20 38.4 M20 38.4 C12.47 31.47, 4.94 24.54, 0 20 M20 38.4 C12.07 31.1, 4.14 23.81, 0 20 M0 20 C6.61 13.39, 13.21 6.79, 20 0 M0 20 C6.41 13.59, 12.83 7.17, 20 0" stroke="#fff" stroke-width="1" fill="none"></path></g><g stroke-linecap="round" transform="translate(543.8001098632812 21.200000762939453) rotate(0 19.600006103515625 19.199993133544922)"><path d="M20 0 C24.97 5.18, 29.94 10.36, 39.2 20 M20 0 C25.37 5.59, 30.73 11.18, 39.2 20 M39.2 20 C31.83 27.06, 24.46 34.13, 20 38.4 M39.2 20 C34.2 24.79, 29.2 29.58, 20 38.4 M20 38.4 C15 33.8, 9.99 29.19, 0 20 M20 38.4 C14.17 33.04, 8.34 27.67, 0 20 M0 20 C4.35 15.65, 8.71 11.29, 20 0 M0 20 C6.58 13.42, 13.15 6.85, 20 0" stroke="#fff" stroke-width="1" fill="none"></path></g><g stroke-linecap="round" transform="translate(439.80010986328125 85.20000076293945) rotate(0 19.600006103515625 19.199993133544922)"><path d="M20 0 C24.38 4.56, 28.76 9.13, 39.2 20 M20 0 C26.17 6.43, 32.34 12.85, 39.2 20 M39.2 20 C34.33 24.67, 29.45 29.34, 20 38.4 M39.2 20 C32.89 26.04, 26.58 32.09, 20 38.4 M20 38.4 C14.24 33.1, 8.49 27.81, 0 20 M20 38.4 C13.89 32.78, 7.79 27.16, 0 20 M0 20 C5.36 14.64, 10.73 9.27, 20 0 M0 20 C4.11 15.89, 8.21 11.79, 20 0" stroke="#fff" stroke-width="1" fill="none"></path></g><g stroke-opacity="0.6" fill-opacity="0.6" stroke-linecap="round" transform="translate(323.80010986328125 75.20000076293945) rotate(0 19.600006103515625 19.199993133544922)"><path d="M20 0 C24 4.17, 28 8.33, 39.2 20 M20 0 C26.09 6.35, 32.19 12.7, 39.2 20 M39.2 20 C33.64 25.33, 28.08 30.66, 20 38.4 M39.2 20 C33.39 25.56, 27.59 31.13, 20 38.4 M20 38.4 C12.27 31.29, 4.55 24.18, 0 20 M20 38.4 C15.41 34.18, 10.82 29.95, 0 20 M0 20 C7.92 12.08, 15.85 4.15, 20 0 M0 20 C6.3 13.7, 12.6 7.4, 20 0" stroke="#fff" stroke-width="1" fill="none"></path></g><g stroke-linecap="round"><g stroke-opacity="0.4" fill-opacity="0.4" transform="translate(928.2001647949219 10.800010681152344) rotate(0 -14.00006103515625 146.79999160766602)"><path d="M0 0 C-5.47 9.87, -33.47 41.33, -32.8 59.2 C-32.13 77.07, 3.07 88.8, 4 107.2 C4.93 125.6, -27.33 151.6, -27.2 169.6 C-27.07 187.6, 4 198.8, 4.8 215.2 C5.6 231.6, -19.73 254.93, -22.4 268 C-25.07 281.07, -13.07 289.33, -11.2 293.6 M0 0 C-5.47 9.87, -33.47 41.33, -32.8 59.2 C-32.13 77.07, 3.07 88.8, 4 107.2 C4.93 125.6, -27.33 151.6, -27.2 169.6 C-27.07 187.6, 4 198.8, 4.8 215.2 C5.6 231.6, -19.73 254.93, -22.4 268 C-25.07 281.07, -13.07 289.33, -11.2 293.6" stroke="#fff" stroke-width="1" fill="none"></path></g></g><g stroke-linecap="round"><g transform="translate(990.6001892089844 11.599998474121094) rotate(0 18.39996337890625 147.20000076293945)"><path d="M0 0 C4.93 7.33, 29.2 28, 29.6 44 C30 60, 1.6 77.6, 2.4 96 C3.2 114.4, 33.73 136.27, 34.4 154.4 C35.07 172.53, 6 188, 6.4 204.8 C6.8 221.6, 35.33 240.27, 36.8 255.2 C38.27 270.13, 18.8 287.87, 15.2 294.4 M0 0 C4.93 7.33, 29.2 28, 29.6 44 C30 60, 1.6 77.6, 2.4 96 C3.2 114.4, 33.73 136.27, 34.4 154.4 C35.07 172.53, 6 188, 6.4 204.8 C6.8 221.6, 35.33 240.27, 36.8 255.2 C38.27 270.13, 18.8 287.87, 15.2 294.4" stroke="#fff" stroke-width="1" fill="none"></path></g></g><g stroke-linecap="round" transform="translate(907.8001098632812 303.1999816894531) rotate(0 11.600006103515625 11.20001220703125)"><path d="M23.2 11.2 C23.2 11.85, 23.14 12.51, 23.02 13.14 C22.91 13.78, 22.73 14.42, 22.5 15.03 C22.27 15.64, 21.98 16.24, 21.65 16.8 C21.31 17.36, 20.92 17.9, 20.49 18.4 C20.05 18.9, 19.57 19.36, 19.06 19.78 C18.54 20.2, 17.98 20.58, 17.4 20.9 C16.82 21.22, 16.2 21.5, 15.57 21.72 C14.94 21.95, 14.28 22.12, 13.61 22.23 C12.95 22.34, 12.27 22.4, 11.6 22.4 C10.93 22.4, 10.25 22.34, 9.59 22.23 C8.92 22.12, 8.26 21.95, 7.63 21.72 C7 21.5, 6.38 21.22, 5.8 20.9 C5.22 20.58, 4.66 20.2, 4.14 19.78 C3.63 19.36, 3.15 18.9, 2.71 18.4 C2.28 17.9, 1.89 17.36, 1.55 16.8 C1.22 16.24, 0.93 15.64, 0.7 15.03 C0.47 14.42, 0.29 13.78, 0.18 13.14 C0.06 12.51, 0 11.85, 0 11.2 C0 10.55, 0.06 9.89, 0.18 9.26 C0.29 8.62, 0.47 7.98, 0.7 7.37 C0.93 6.76, 1.22 6.16, 1.55 5.6 C1.89 5.04, 2.28 4.5, 2.71 4 C3.15 3.5, 3.63 3.04, 4.14 2.62 C4.66 2.2, 5.22 1.82, 5.8 1.5 C6.38 1.18, 7 0.9, 7.63 0.68 C8.26 0.45, 8.92 0.28, 9.59 0.17 C10.25 0.06, 10.93 0, 11.6 0 C12.27 0, 12.95 0.06, 13.61 0.17 C14.28 0.28, 14.94 0.45, 15.57 0.68 C16.2 0.9, 16.82 1.18, 17.4 1.5 C17.98 1.82, 18.54 2.2, 19.06 2.62 C19.57 3.04, 20.05 3.5, 20.49 4 C20.92 4.5, 21.31 5.04, 21.65 5.6 C21.98 6.16, 22.27 6.76, 22.5 7.37 C22.73 7.98, 22.91 8.62, 23.02 9.26 C23.14 9.89, 23.17 10.88, 23.2 11.2 C23.23 11.52, 23.23 10.88, 23.2 11.2" stroke="#fff" stroke-width="1" fill="none"></path></g><g stroke-opacity="0.5" fill-opacity="0.5" stroke-linecap="round" transform="translate(985.8001098632812 301.1999816894531) rotate(0 11.600006103515625 11.20001220703125)"><path d="M23.2 11.2 C23.2 11.85, 23.14 12.51, 23.02 13.14 C22.91 13.78, 22.73 14.42, 22.5 15.03 C22.27 15.64, 21.98 16.24, 21.65 16.8 C21.31 17.36, 20.92 17.9, 20.49 18.4 C20.05 18.9, 19.57 19.36, 19.06 19.78 C18.54 20.2, 17.98 20.58, 17.4 20.9 C16.82 21.22, 16.2 21.5, 15.57 21.72 C14.94 21.95, 14.28 22.12, 13.61 22.23 C12.95 22.34, 12.27 22.4, 11.6 22.4 C10.93 22.4, 10.25 22.34, 9.59 22.23 C8.92 22.12, 8.26 21.95, 7.63 21.72 C7 21.5, 6.38 21.22, 5.8 20.9 C5.22 20.58, 4.66 20.2, 4.14 19.78 C3.63 19.36, 3.15 18.9, 2.71 18.4 C2.28 17.9, 1.89 17.36, 1.55 16.8 C1.22 16.24, 0.93 15.64, 0.7 15.03 C0.47 14.42, 0.29 13.78, 0.18 13.14 C0.06 12.51, 0 11.85, 0 11.2 C0 10.55, 0.06 9.89, 0.18 9.26 C0.29 8.62, 0.47 7.98, 0.7 7.37 C0.93 6.76, 1.22 6.16, 1.55 5.6 C1.89 5.04, 2.28 4.5, 2.71 4 C3.15 3.5, 3.63 3.04, 4.14 2.62 C4.66 2.2, 5.22 1.82, 5.8 1.5 C6.38 1.18, 7 0.9, 7.63 0.68 C8.26 0.45, 8.92 0.28, 9.59 0.17 C10.25 0.06, 10.93 0, 11.6 0 C12.27 0, 12.95 0.06, 13.61 0.17 C14.28 0.28, 14.94 0.45, 15.57 0.68 C16.2 0.9, 16.82 1.18, 17.4 1.5 C17.98 1.82, 18.54 2.2, 19.06 2.62 C19.57 3.04, 20.05 3.5, 20.49 4 C20.92 4.5, 21.31 5.04, 21.65 5.6 C21.98 6.16, 22.27 6.76, 22.5 7.37 C22.73 7.98, 22.91 8.62, 23.02 9.26 C23.14 9.89, 23.17 10.88, 23.2 11.2 C23.23 11.52, 23.23 10.88, 23.2 11.2" stroke="#fff" stroke-width="4" fill="none"></path></g><g stroke-linecap="round"><g transform="translate(259.4001159667969 10) rotate(0 0.800018310546875 126.80000305175783)"><path d="M0 0 C0.27 42.27, 1.33 211.33, 1.6 253.6 M0 0 C0.27 42.27, 1.33 211.33, 1.6 253.6" stroke="#fff" stroke-width="1" fill="none"></path></g></g><g stroke-linecap="round" transform="translate(237.80014038085938 265.20001220703125) rotate(0 24 25.199996948242188)"><path d="M48 25.2 C48 26.66, 47.88 28.14, 47.64 29.58 C47.39 31.01, 47.03 32.45, 46.55 33.82 C46.08 35.19, 45.48 36.54, 44.78 37.8 C44.09 39.06, 43.28 40.28, 42.39 41.4 C41.49 42.52, 40.49 43.57, 39.43 44.5 C38.36 45.44, 37.2 46.29, 36 47.02 C34.8 47.75, 33.51 48.38, 32.21 48.88 C30.9 49.38, 29.54 49.76, 28.17 50.02 C26.8 50.27, 25.39 50.4, 24 50.4 C22.61 50.4, 21.2 50.27, 19.83 50.02 C18.46 49.76, 17.1 49.38, 15.79 48.88 C14.49 48.38, 13.2 47.75, 12 47.02 C10.8 46.29, 9.64 45.44, 8.57 44.5 C7.51 43.57, 6.51 42.52, 5.61 41.4 C4.72 40.28, 3.91 39.06, 3.22 37.8 C2.52 36.54, 1.92 35.19, 1.45 33.82 C0.97 32.45, 0.61 31.01, 0.36 29.58 C0.12 28.14, 0 26.66, 0 25.2 C0 23.74, 0.12 22.26, 0.36 20.82 C0.61 19.39, 0.97 17.95, 1.45 16.58 C1.92 15.21, 2.52 13.86, 3.22 12.6 C3.91 11.34, 4.72 10.12, 5.61 9 C6.51 7.88, 7.51 6.83, 8.57 5.9 C9.64 4.96, 10.8 4.11, 12 3.38 C13.2 2.65, 14.49 2.02, 15.79 1.52 C17.1 1.02, 18.46 0.64, 19.83 0.38 C21.2 0.13, 22.61 0, 24 0 C25.39 0, 26.8 0.13, 28.17 0.38 C29.54 0.64, 30.9 1.02, 32.21 1.52 C33.51 2.02, 34.8 2.65, 36 3.38 C37.2 4.11, 38.36 4.96, 39.43 5.9 C40.49 6.83, 41.49 7.88, 42.39 9 C43.28 10.12, 44.09 11.34, 44.78 12.6 C45.48 13.86, 46.08 15.21, 46.55 16.58 C47.03 17.95, 47.39 19.39, 47.64 20.82 C47.88 22.26, 47.94 24.47, 48 25.2 C48.06 25.93, 48.06 24.47, 48 25.2" stroke="#fff" stroke-width="1" fill="none"></path></g><g stroke-opacity="0.6" fill-opacity="0.6" stroke-linecap="round" transform="translate(232.20013427734375 260.3999938964844) rotate(0 29.599990844726562 30.800018310546875)"><path d="M59.2 30.8 C59.2 32.58, 59.05 34.39, 58.75 36.15 C58.45 37.9, 58 39.66, 57.41 41.33 C56.83 43.01, 56.09 44.66, 55.23 46.2 C54.38 47.74, 53.38 49.23, 52.27 50.6 C51.17 51.96, 49.94 53.25, 48.63 54.39 C47.31 55.54, 45.88 56.58, 44.4 57.47 C42.92 58.37, 41.33 59.13, 39.72 59.74 C38.11 60.35, 36.43 60.82, 34.74 61.13 C33.05 61.44, 31.31 61.6, 29.6 61.6 C27.89 61.6, 26.15 61.44, 24.46 61.13 C22.77 60.82, 21.09 60.35, 19.48 59.74 C17.87 59.13, 16.28 58.37, 14.8 57.47 C13.32 56.58, 11.89 55.54, 10.57 54.39 C9.26 53.25, 8.03 51.96, 6.93 50.6 C5.82 49.23, 4.82 47.74, 3.97 46.2 C3.11 44.66, 2.37 43.01, 1.79 41.33 C1.2 39.66, 0.75 37.9, 0.45 36.15 C0.15 34.39, 0 32.58, 0 30.8 C0 29.02, 0.15 27.21, 0.45 25.45 C0.75 23.7, 1.2 21.94, 1.79 20.27 C2.37 18.59, 3.11 16.94, 3.97 15.4 C4.82 13.86, 5.82 12.37, 6.93 11 C8.03 9.64, 9.26 8.35, 10.57 7.21 C11.89 6.06, 13.32 5.02, 14.8 4.13 C16.28 3.24, 17.87 2.47, 19.48 1.86 C21.09 1.25, 22.77 0.78, 24.46 0.47 C26.15 0.16, 27.89 0, 29.6 0 C31.31 0, 33.05 0.16, 34.74 0.47 C36.43 0.78, 38.11 1.25, 39.72 1.86 C41.33 2.47, 42.92 3.24, 44.4 4.13 C45.88 5.02, 47.31 6.06, 48.63 7.21 C49.94 8.35, 51.17 9.64, 52.27 11 C53.38 12.37, 54.38 13.86, 55.23 15.4 C56.09 16.94, 56.83 18.59, 57.41 20.27 C58 21.94, 58.45 23.7, 58.75 25.45 C59.05 27.21, 59.13 29.91, 59.2 30.8 C59.27 31.69, 59.27 29.91, 59.2 30.8" stroke="#fff" stroke-width="2" fill="none"></path></g><g stroke-opacity="0.6" fill-opacity="0.6" transform="translate(33.800140380859375 526.599983215332) rotate(0 49 35)"><text x="98" y="18.333333333333332" font-family="Helvetica, Segoe UI Emoji" font-size="20px" fill="#fff" text-anchor="end" style="white-space: pre;" direction="ltr">be creative</text><text x="98" y="41.666666666666664" font-family="Helvetica, Segoe UI Emoji" font-size="20px" fill="#fff" text-anchor="end" style="white-space: pre;" direction="ltr">with your</text><text x="98" y="65" font-family="Helvetica, Segoe UI Emoji" font-size="20px" fill="#fff" text-anchor="end" style="white-space: pre;" direction="ltr">friends</text></g><g stroke-opacity="0.5" fill-opacity="0.5" transform="translate(763.6001892089844 194.1000213623047) rotate(45.784837725147 47.5 11.5)"><text x="95" y="19" font-family="Helvetica, Segoe UI Emoji" font-size="20px" fill="#fff" text-anchor="end" style="white-space: pre;" direction="ltr">Think Big!!</text></g></svg>