<svg version="1.1" xmlns="http://www.w3.org/2000/svg" viewBox="0 0 1180.8000183105469 598.4000244140625" width="1180.8000183105469" height="598.4000244140625">
  <!-- svg-source:excalidraw -->
  
  <defs>
    <style>
      @font-face {
        font-family: "Virgil";
        src: url("https://excalidraw.com/Virgil.woff2");
      }
      @font-face {
        font-family: "Cascadia";
        src: url("https://excalidraw.com/Cascadia.woff2");
      }
    </style>
  </defs>
  <rect x="0" y="0" width="1180.8000183105469" height="598.4000244140625" fill="#310e41"></rect><g stroke-linecap="round" transform="translate(70.79998779296875 42.80001831054686) rotate(0 99.59999084472656 75.60000610351562)"><path d="M0 0 C79.55 0, 159.1 0, 199.2 0 M0 0 C68.75 0, 137.51 0, 199.2 0 M199.2 0 C199.2 38.25, 199.2 76.5, 199.2 151.2 M199.2 0 C199.2 52.61, 199.2 105.22, 199.2 151.2 M199.2 151.2 C121.2 151.2, 43.19 151.2, 0 151.2 M199.2 151.2 C139.78 151.2, 80.36 151.2, 0 151.2 M0 151.2 C0 105.31, 0 59.42, 0 0 M0 151.2 C0 98.23, 0 45.25, 0 0" stroke="#fff" stroke-width="2" fill="none"></path></g><g stroke-opacity="0.6" fill-opacity="0.6" stroke-linecap="round" transform="translate(20.399993896484375 134.80001831054688) rotate(0 84.80000305175781 54.399993896484375)"><path d="M0 0 C53.16 0, 106.32 0, 169.6 0 M0 0 C47.11 0, 94.21 0, 169.6 0 M169.6 0 C169.6 25.51, 169.6 51.03, 169.6 108.8 M169.6 0 C169.6 35.69, 169.6 71.38, 169.6 108.8 M169.6 108.8 C135.61 108.8, 101.62 108.8, 0 108.8 M169.6 108.8 C105.22 108.8, 40.84 108.8, 0 108.8 M0 108.8 C0 70.85, 0 32.9, 0 0 M0 108.8 C0 80.61, 0 52.41, 0 0" stroke="#fff" stroke-width="4" fill="none"></path></g><g stroke-opacity="0.6" fill-opacity="0.6" stroke-linecap="round" transform="translate(801.2000427246094 36.400016784667955) rotate(0 35.20001220703125 35.200008392333984)"><path d="M70.4 35.2 C70.4 37.04, 70.25 38.89, 69.97 40.71 C69.68 42.52, 69.24 44.33, 68.68 46.08 C68.11 47.82, 67.4 49.55, 66.56 51.18 C65.73 52.82, 64.76 54.41, 63.68 55.89 C62.6 57.38, 61.39 58.79, 60.09 60.09 C58.79 61.39, 57.38 62.6, 55.89 63.68 C54.41 64.76, 52.82 65.73, 51.18 66.56 C49.55 67.4, 47.82 68.11, 46.08 68.68 C44.33 69.24, 42.52 69.68, 40.71 69.97 C38.89 70.25, 37.04 70.4, 35.2 70.4 C33.36 70.4, 31.51 70.25, 29.69 69.97 C27.88 69.68, 26.07 69.24, 24.32 68.68 C22.58 68.11, 20.85 67.4, 19.22 66.56 C17.58 65.73, 15.99 64.76, 14.51 63.68 C13.03 62.6, 11.61 61.39, 10.31 60.09 C9.01 58.79, 7.8 57.38, 6.72 55.89 C5.64 54.41, 4.67 52.82, 3.84 51.18 C3 49.55, 2.29 47.82, 1.72 46.08 C1.16 44.33, 0.72 42.52, 0.43 40.71 C0.15 38.89, 0 37.04, 0 35.2 C0 33.36, 0.15 31.51, 0.43 29.69 C0.72 27.88, 1.16 26.07, 1.72 24.32 C2.29 22.58, 3 20.85, 3.84 19.22 C4.67 17.58, 5.64 15.99, 6.72 14.51 C7.8 13.03, 9.01 11.61, 10.31 10.31 C11.61 9.01, 13.03 7.8, 14.51 6.72 C15.99 5.64, 17.58 4.67, 19.22 3.84 C20.85 3, 22.58 2.29, 24.32 1.72 C26.07 1.16, 27.88 0.72, 29.69 0.43 C31.51 0.15, 33.36 0, 35.2 0 C37.04 0, 38.89 0.15, 40.71 0.43 C42.52 0.72, 44.33 1.16, 46.08 1.72 C47.82 2.29, 49.55 3, 51.18 3.84 C52.82 4.67, 54.41 5.64, 55.89 6.72 C57.38 7.8, 58.79 9.01, 60.09 10.31 C61.39 11.61, 62.6 13.03, 63.68 14.51 C64.76 15.99, 65.73 17.58, 66.56 19.22 C67.4 20.85, 68.11 22.58, 68.68 24.32 C69.24 26.07, 69.68 27.88, 69.97 29.69 C70.25 31.51, 70.33 34.28, 70.4 35.2 C70.47 36.12, 70.47 34.28, 70.4 35.2" stroke="#fff" stroke-width="4" fill="none"></path></g><g stroke-opacity="0.6" fill-opacity="0.6" stroke-linecap="round" transform="translate(897.2000427246094 17.200004577636705) rotate(0 33.5999755859375 34.000003814697266)"><path d="M67.2 34 C67.2 35.77, 67.06 37.57, 66.79 39.32 C66.51 41.07, 66.1 42.82, 65.56 44.51 C65.01 46.19, 64.33 47.86, 63.54 49.44 C62.74 51.02, 61.81 52.55, 60.78 53.98 C59.75 55.42, 58.6 56.79, 57.36 58.04 C56.12 59.3, 54.77 60.46, 53.35 61.51 C51.93 62.55, 50.42 63.49, 48.85 64.29 C47.29 65.1, 45.65 65.79, 43.98 66.34 C42.32 66.88, 40.59 67.3, 38.86 67.58 C37.13 67.86, 35.35 68, 33.6 68 C31.85 68, 30.07 67.86, 28.34 67.58 C26.61 67.3, 24.88 66.88, 23.22 66.34 C21.55 65.79, 19.91 65.1, 18.35 64.29 C16.78 63.49, 15.27 62.55, 13.85 61.51 C12.43 60.46, 11.08 59.3, 9.84 58.04 C8.6 56.79, 7.45 55.42, 6.42 53.98 C5.39 52.55, 4.46 51.02, 3.66 49.44 C2.87 47.86, 2.19 46.19, 1.64 44.51 C1.1 42.82, 0.69 41.07, 0.41 39.32 C0.14 37.57, 0 35.77, 0 34 C0 32.23, 0.14 30.43, 0.41 28.68 C0.69 26.93, 1.1 25.18, 1.64 23.49 C2.19 21.81, 2.87 20.14, 3.66 18.56 C4.46 16.98, 5.39 15.45, 6.42 14.02 C7.45 12.58, 8.6 11.21, 9.84 9.96 C11.08 8.7, 12.43 7.54, 13.85 6.49 C15.27 5.45, 16.78 4.51, 18.35 3.71 C19.91 2.9, 21.55 2.21, 23.22 1.66 C24.88 1.12, 26.61 0.7, 28.34 0.42 C30.07 0.14, 31.85 0, 33.6 0 C35.35 0, 37.13 0.14, 38.86 0.42 C40.59 0.7, 42.32 1.12, 43.98 1.66 C45.65 2.21, 47.29 2.9, 48.85 3.71 C50.42 4.51, 51.93 5.45, 53.35 6.49 C54.77 7.54, 56.12 8.7, 57.36 9.96 C58.6 11.21, 59.75 12.58, 60.78 14.02 C61.81 15.45, 62.74 16.98, 63.54 18.56 C64.33 20.14, 65.01 21.81, 65.56 23.49 C66.1 25.18, 66.51 26.93, 66.79 28.68 C67.06 30.43, 67.13 33.11, 67.2 34 C67.27 34.89, 67.27 33.11, 67.2 34" stroke="#fff" stroke-width="4" fill="none"></path></g><g stroke-linecap="round" transform="translate(869.9999694824219 111.60000610351561) rotate(0 33.60003662109375 34)"><path d="M67.2 34 C67.2 35.77, 67.06 37.57, 66.79 39.32 C66.51 41.07, 66.1 42.82, 65.56 44.51 C65.01 46.19, 64.33 47.86, 63.54 49.44 C62.74 51.02, 61.81 52.55, 60.78 53.98 C59.75 55.42, 58.6 56.79, 57.36 58.04 C56.12 59.3, 54.77 60.46, 53.35 61.51 C51.93 62.55, 50.42 63.49, 48.85 64.29 C47.29 65.1, 45.65 65.79, 43.98 66.34 C42.32 66.88, 40.59 67.3, 38.86 67.58 C37.13 67.86, 35.35 68, 33.6 68 C31.85 68, 30.07 67.86, 28.34 67.58 C26.61 67.3, 24.88 66.88, 23.22 66.34 C21.55 65.79, 19.91 65.1, 18.35 64.29 C16.78 63.49, 15.27 62.55, 13.85 61.51 C12.43 60.46, 11.08 59.3, 9.84 58.04 C8.6 56.79, 7.45 55.42, 6.42 53.98 C5.39 52.55, 4.46 51.02, 3.66 49.44 C2.87 47.86, 2.19 46.19, 1.64 44.51 C1.1 42.82, 0.69 41.07, 0.41 39.32 C0.14 37.57, 0 35.77, 0 34 C0 32.23, 0.14 30.43, 0.41 28.68 C0.69 26.93, 1.1 25.18, 1.64 23.49 C2.19 21.81, 2.87 20.14, 3.66 18.56 C4.46 16.98, 5.39 15.45, 6.42 14.02 C7.45 12.58, 8.6 11.21, 9.84 9.96 C11.08 8.7, 12.43 7.54, 13.85 6.49 C15.27 5.45, 16.78 4.51, 18.35 3.71 C19.91 2.9, 21.55 2.21, 23.22 1.66 C24.88 1.12, 26.61 0.7, 28.34 0.42 C30.07 0.14, 31.85 0, 33.6 0 C35.35 0, 37.13 0.14, 38.86 0.42 C40.59 0.7, 42.32 1.12, 43.98 1.66 C45.65 2.21, 47.29 2.9, 48.85 3.71 C50.42 4.51, 51.93 5.45, 53.35 6.49 C54.77 7.54, 56.12 8.7, 57.36 9.96 C58.6 11.21, 59.75 12.58, 60.78 14.02 C61.81 15.45, 62.74 16.98, 63.54 18.56 C64.33 20.14, 65.01 21.81, 65.56 23.49 C66.1 25.18, 66.51 26.93, 66.79 28.68 C67.06 30.43, 67.13 33.11, 67.2 34 C67.27 34.89, 67.27 33.11, 67.2 34" stroke="#fff" stroke-width="4" fill="none"></path></g><g stroke-linecap="round"><g stroke-opacity="0.6" fill-opacity="0.6" transform="translate(1009.9999694824219 23.59999847412108) rotate(0 -76.79998779296875 108.39999771118165)"><path d="M0 0 C-25.6 36.13, -128 180.67, -153.6 216.8 M0 0 C-25.6 36.13, -128 180.67, -153.6 216.8" stroke="#fff" stroke-width="4" fill="none"></path></g></g><g stroke-linecap="round"><g stroke-opacity="0.9" fill-opacity="0.9" transform="translate(982.8000183105469 11.60000610351561) rotate(0 10 224.0000152587891)"><path d="M0 0 C3.33 74.67, 16.67 373.33, 20 448 M0 0 C3.33 74.67, 16.67 373.33, 20 448" stroke="#fff" stroke-width="4" fill="none"></path></g></g><g stroke-linecap="round"><g stroke-opacity="0.6" fill-opacity="0.6" transform="translate(773.9999694824219 122.80003356933592) rotate(0 171.60003662109375 159.99997711181643)"><path d="M0 0 C57.2 53.33, 286 266.67, 343.2 320 M0 0 C57.2 53.33, 286 266.67, 343.2 320" stroke="#fff" stroke-width="4" fill="none"></path></g></g><g stroke-opacity="0.3" fill-opacity="0.3" transform="translate(62.79998779296875 410.6000671386719) rotate(0 206 40)"><text x="0" y="32" font-family="Cascadia, Segoe UI Emoji" font-size="33.439990234374996px" fill="#fff" text-anchor="start" style="white-space: pre;" direction="ltr">Collaborate With</text><text x="0" y="72" font-family="Cascadia, Segoe UI Emoji" font-size="33.439990234374996px" fill="#fff" text-anchor="start" style="white-space: pre;" direction="ltr">               Anyone</text></g><g stroke-opacity="0.3" fill-opacity="0.3" stroke-linecap="round" transform="translate(399.6000671386719 208.4000244140625) rotate(246.66599450149272 98.4000244140625 50.399993896484375)"><path d="M0 0 C61.06 0, 122.13 0, 196.8 0 M0 0 C64.06 0, 128.11 0, 196.8 0 M196.8 0 C196.8 21.07, 196.8 42.13, 196.8 100.8 M196.8 0 C196.8 39.13, 196.8 78.26, 196.8 100.8 M196.8 100.8 C147.74 100.8, 98.69 100.8, 0 100.8 M196.8 100.8 C134.65 100.8, 72.51 100.8, 0 100.8 M0 100.8 C0 71.06, 0 41.33, 0 0 M0 100.8 C0 64.01, 0 27.22, 0 0" stroke="#fff" stroke-width="2" fill="none"></path></g><g stroke-opacity="0.3" fill-opacity="0.3" stroke-linecap="round" transform="translate(526.8000793457031 206.79998779296875) rotate(336.25049295067794 88.39999389648438 58)"><path d="M0 0 C69.27 0, 138.53 0, 176.8 0 M0 0 C45.5 0, 91 0, 176.8 0 M176.8 0 C176.8 35.25, 176.8 70.5, 176.8 116 M176.8 0 C176.8 40.96, 176.8 81.91, 176.8 116 M176.8 116 C112.08 116, 47.36 116, 0 116 M176.8 116 C138.24 116, 99.67 116, 0 116 M0 116 C0 77.13, 0 38.25, 0 0 M0 116 C0 83.67, 0 51.34, 0 0" stroke="#fff" stroke-width="4" fill="none"></path></g><g stroke-opacity="0.3" fill-opacity="0.3" stroke-linecap="round" transform="translate(604.3999938964844 266) rotate(0 40.800018310546875 40.79999542236328)"><path d="M81.6 40.8 C81.6 42.74, 81.46 44.69, 81.18 46.61 C80.91 48.52, 80.49 50.44, 79.95 52.29 C79.4 54.15, 78.72 55.99, 77.91 57.75 C77.11 59.51, 76.17 61.23, 75.12 62.86 C74.08 64.49, 72.9 66.06, 71.63 67.52 C70.37 68.98, 68.98 70.37, 67.52 71.63 C66.06 72.9, 64.49 74.08, 62.86 75.12 C61.23 76.17, 59.51 77.11, 57.75 77.91 C55.99 78.72, 54.15 79.4, 52.29 79.95 C50.44 80.49, 48.52 80.91, 46.61 81.18 C44.69 81.46, 42.74 81.6, 40.8 81.6 C38.86 81.6, 36.91 81.46, 34.99 81.18 C33.08 80.91, 31.16 80.49, 29.31 79.95 C27.45 79.4, 25.61 78.72, 23.85 77.91 C22.09 77.11, 20.37 76.17, 18.74 75.12 C17.11 74.08, 15.54 72.9, 14.08 71.63 C12.62 70.37, 11.23 68.98, 9.97 67.52 C8.7 66.06, 7.52 64.49, 6.48 62.86 C5.43 61.23, 4.49 59.51, 3.69 57.75 C2.88 55.99, 2.2 54.15, 1.65 52.29 C1.11 50.44, 0.69 48.52, 0.42 46.61 C0.14 44.69, 0 42.74, 0 40.8 C0 38.86, 0.14 36.91, 0.42 34.99 C0.69 33.08, 1.11 31.16, 1.65 29.31 C2.2 27.45, 2.88 25.61, 3.69 23.85 C4.49 22.09, 5.43 20.37, 6.48 18.74 C7.52 17.11, 8.7 15.54, 9.97 14.08 C11.23 12.62, 12.62 11.23, 14.08 9.97 C15.54 8.7, 17.11 7.52, 18.74 6.48 C20.37 5.43, 22.09 4.49, 23.85 3.69 C25.61 2.88, 27.45 2.2, 29.31 1.65 C31.16 1.11, 33.08 0.69, 34.99 0.42 C36.91 0.14, 38.86 0, 40.8 0 C42.74 0, 44.69 0.14, 46.61 0.42 C48.52 0.69, 50.44 1.11, 52.29 1.65 C54.15 2.2, 55.99 2.88, 57.75 3.69 C59.51 4.49, 61.23 5.43, 62.86 6.48 C64.49 7.52, 66.06 8.7, 67.52 9.97 C68.98 11.23, 70.37 12.62, 71.63 14.08 C72.9 15.54, 74.08 17.11, 75.12 18.74 C76.17 20.37, 77.11 22.09, 77.91 23.85 C78.72 25.61, 79.4 27.45, 79.95 29.31 C80.49 31.16, 80.91 33.08, 81.18 34.99 C81.46 36.91, 81.53 39.83, 81.6 40.8 C81.67 41.77, 81.67 39.83, 81.6 40.8" stroke="#fff" stroke-width="4" fill="none"></path></g><g stroke-opacity="0.3" fill-opacity="0.3" stroke-linecap="round" transform="translate(629.2000122070312 300.60005950927734) rotate(0 40.800018310546875 40.79999542236328)"><path d="M81.6 40.8 C81.6 42.74, 81.46 44.69, 81.18 46.61 C80.91 48.52, 80.49 50.44, 79.95 52.29 C79.4 54.15, 78.72 55.99, 77.91 57.75 C77.11 59.51, 76.17 61.23, 75.12 62.86 C74.08 64.49, 72.9 66.06, 71.63 67.52 C70.37 68.98, 68.98 70.37, 67.52 71.63 C66.06 72.9, 64.49 74.08, 62.86 75.12 C61.23 76.17, 59.51 77.11, 57.75 77.91 C55.99 78.72, 54.15 79.4, 52.29 79.95 C50.44 80.49, 48.52 80.91, 46.61 81.18 C44.69 81.46, 42.74 81.6, 40.8 81.6 C38.86 81.6, 36.91 81.46, 34.99 81.18 C33.08 80.91, 31.16 80.49, 29.31 79.95 C27.45 79.4, 25.61 78.72, 23.85 77.91 C22.09 77.11, 20.37 76.17, 18.74 75.12 C17.11 74.08, 15.54 72.9, 14.08 71.63 C12.62 70.37, 11.23 68.98, 9.97 67.52 C8.7 66.06, 7.52 64.49, 6.48 62.86 C5.43 61.23, 4.49 59.51, 3.69 57.75 C2.88 55.99, 2.2 54.15, 1.65 52.29 C1.11 50.44, 0.69 48.52, 0.42 46.61 C0.14 44.69, 0 42.74, 0 40.8 C0 38.86, 0.14 36.91, 0.42 34.99 C0.69 33.08, 1.11 31.16, 1.65 29.31 C2.2 27.45, 2.88 25.61, 3.69 23.85 C4.49 22.09, 5.43 20.37, 6.48 18.74 C7.52 17.11, 8.7 15.54, 9.97 14.08 C11.23 12.62, 12.62 11.23, 14.08 9.97 C15.54 8.7, 17.11 7.52, 18.74 6.48 C20.37 5.43, 22.09 4.49, 23.85 3.69 C25.61 2.88, 27.45 2.2, 29.31 1.65 C31.16 1.11, 33.08 0.69, 34.99 0.42 C36.91 0.14, 38.86 0, 40.8 0 C42.74 0, 44.69 0.14, 46.61 0.42 C48.52 0.69, 50.44 1.11, 52.29 1.65 C54.15 2.2, 55.99 2.88, 57.75 3.69 C59.51 4.49, 61.23 5.43, 62.86 6.48 C64.49 7.52, 66.06 8.7, 67.52 9.97 C68.98 11.23, 70.37 12.62, 71.63 14.08 C72.9 15.54, 74.08 17.11, 75.12 18.74 C76.17 20.37, 77.11 22.09, 77.91 23.85 C78.72 25.61, 79.4 27.45, 79.95 29.31 C80.49 31.16, 80.91 33.08, 81.18 34.99 C81.46 36.91, 81.53 39.83, 81.6 40.8 C81.67 41.77, 81.67 39.83, 81.6 40.8" stroke="#fff" stroke-width="2" fill="none"></path></g><g stroke-opacity="0.3" fill-opacity="0.3" stroke-linecap="round" transform="translate(658.7999877929688 346.7999801635742) rotate(0 40.800018310546875 40.79999542236328)"><path d="M81.6 40.8 C81.6 42.74, 81.46 44.69, 81.18 46.61 C80.91 48.52, 80.49 50.44, 79.95 52.29 C79.4 54.15, 78.72 55.99, 77.91 57.75 C77.11 59.51, 76.17 61.23, 75.12 62.86 C74.08 64.49, 72.9 66.06, 71.63 67.52 C70.37 68.98, 68.98 70.37, 67.52 71.63 C66.06 72.9, 64.49 74.08, 62.86 75.12 C61.23 76.17, 59.51 77.11, 57.75 77.91 C55.99 78.72, 54.15 79.4, 52.29 79.95 C50.44 80.49, 48.52 80.91, 46.61 81.18 C44.69 81.46, 42.74 81.6, 40.8 81.6 C38.86 81.6, 36.91 81.46, 34.99 81.18 C33.08 80.91, 31.16 80.49, 29.31 79.95 C27.45 79.4, 25.61 78.72, 23.85 77.91 C22.09 77.11, 20.37 76.17, 18.74 75.12 C17.11 74.08, 15.54 72.9, 14.08 71.63 C12.62 70.37, 11.23 68.98, 9.97 67.52 C8.7 66.06, 7.52 64.49, 6.48 62.86 C5.43 61.23, 4.49 59.51, 3.69 57.75 C2.88 55.99, 2.2 54.15, 1.65 52.29 C1.11 50.44, 0.69 48.52, 0.42 46.61 C0.14 44.69, 0 42.74, 0 40.8 C0 38.86, 0.14 36.91, 0.42 34.99 C0.69 33.08, 1.11 31.16, 1.65 29.31 C2.2 27.45, 2.88 25.61, 3.69 23.85 C4.49 22.09, 5.43 20.37, 6.48 18.74 C7.52 17.11, 8.7 15.54, 9.97 14.08 C11.23 12.62, 12.62 11.23, 14.08 9.97 C15.54 8.7, 17.11 7.52, 18.74 6.48 C20.37 5.43, 22.09 4.49, 23.85 3.69 C25.61 2.88, 27.45 2.2, 29.31 1.65 C31.16 1.11, 33.08 0.69, 34.99 0.42 C36.91 0.14, 38.86 0, 40.8 0 C42.74 0, 44.69 0.14, 46.61 0.42 C48.52 0.69, 50.44 1.11, 52.29 1.65 C54.15 2.2, 55.99 2.88, 57.75 3.69 C59.51 4.49, 61.23 5.43, 62.86 6.48 C64.49 7.52, 66.06 8.7, 67.52 9.97 C68.98 11.23, 70.37 12.62, 71.63 14.08 C72.9 15.54, 74.08 17.11, 75.12 18.74 C76.17 20.37, 77.11 22.09, 77.91 23.85 C78.72 25.61, 79.4 27.45, 79.95 29.31 C80.49 31.16, 80.91 33.08, 81.18 34.99 C81.46 36.91, 81.53 39.83, 81.6 40.8 C81.67 41.77, 81.67 39.83, 81.6 40.8" stroke="#fff" stroke-width="4" fill="none"></path></g><g stroke-opacity="0.3" fill-opacity="0.3" stroke-linecap="round" transform="translate(612.5999755859375 338.80001068115234) rotate(0 40.800018310546875 40.79999542236328)"><path d="M81.6 40.8 C81.6 42.74, 81.46 44.69, 81.18 46.61 C80.91 48.52, 80.49 50.44, 79.95 52.29 C79.4 54.15, 78.72 55.99, 77.91 57.75 C77.11 59.51, 76.17 61.23, 75.12 62.86 C74.08 64.49, 72.9 66.06, 71.63 67.52 C70.37 68.98, 68.98 70.37, 67.52 71.63 C66.06 72.9, 64.49 74.08, 62.86 75.12 C61.23 76.17, 59.51 77.11, 57.75 77.91 C55.99 78.72, 54.15 79.4, 52.29 79.95 C50.44 80.49, 48.52 80.91, 46.61 81.18 C44.69 81.46, 42.74 81.6, 40.8 81.6 C38.86 81.6, 36.91 81.46, 34.99 81.18 C33.08 80.91, 31.16 80.49, 29.31 79.95 C27.45 79.4, 25.61 78.72, 23.85 77.91 C22.09 77.11, 20.37 76.17, 18.74 75.12 C17.11 74.08, 15.54 72.9, 14.08 71.63 C12.62 70.37, 11.23 68.98, 9.97 67.52 C8.7 66.06, 7.52 64.49, 6.48 62.86 C5.43 61.23, 4.49 59.51, 3.69 57.75 C2.88 55.99, 2.2 54.15, 1.65 52.29 C1.11 50.44, 0.69 48.52, 0.42 46.61 C0.14 44.69, 0 42.74, 0 40.8 C0 38.86, 0.14 36.91, 0.42 34.99 C0.69 33.08, 1.11 31.16, 1.65 29.31 C2.2 27.45, 2.88 25.61, 3.69 23.85 C4.49 22.09, 5.43 20.37, 6.48 18.74 C7.52 17.11, 8.7 15.54, 9.97 14.08 C11.23 12.62, 12.62 11.23, 14.08 9.97 C15.54 8.7, 17.11 7.52, 18.74 6.48 C20.37 5.43, 22.09 4.49, 23.85 3.69 C25.61 2.88, 27.45 2.2, 29.31 1.65 C31.16 1.11, 33.08 0.69, 34.99 0.42 C36.91 0.14, 38.86 0, 40.8 0 C42.74 0, 44.69 0.14, 46.61 0.42 C48.52 0.69, 50.44 1.11, 52.29 1.65 C54.15 2.2, 55.99 2.88, 57.75 3.69 C59.51 4.49, 61.23 5.43, 62.86 6.48 C64.49 7.52, 66.06 8.7, 67.52 9.97 C68.98 11.23, 70.37 12.62, 71.63 14.08 C72.9 15.54, 74.08 17.11, 75.12 18.74 C76.17 20.37, 77.11 22.09, 77.91 23.85 C78.72 25.61, 79.4 27.45, 79.95 29.31 C80.49 31.16, 80.91 33.08, 81.18 34.99 C81.46 36.91, 81.53 39.83, 81.6 40.8 C81.67 41.77, 81.67 39.83, 81.6 40.8" stroke="#fff" stroke-width="2" fill="none"></path></g><g stroke-opacity="0.8" fill-opacity="0.8" stroke-linecap="round" transform="translate(134.80001831054688 124.39999389648436) rotate(0 82 68.80000305175781)"><path d="M83 0 C104.08 17.96, 125.17 35.92, 164 69 M83 0 C110.93 23.79, 138.85 47.58, 164 69 M164 69 C135.66 93, 107.32 117, 83 137.6 M164 69 C135.5 93.13, 107.01 117.27, 83 137.6 M83 137.6 C56.24 115.48, 29.47 93.36, 0 69 M83 137.6 C56.59 115.77, 30.17 93.94, 0 69 M0 69 C24.9 48.3, 49.8 27.6, 83 0 M0 69 C20.49 51.97, 40.98 34.93, 83 0" stroke="#fff" stroke-width="4" fill="none"></path></g><g stroke-opacity="0.3" fill-opacity="0.3" transform="translate(358.0000915527344 49.29999542236327) rotate(0 153 12)"><text x="0" y="19" font-family="Cascadia, Segoe UI Emoji" font-size="20px" fill="#fff" text-anchor="start" style="white-space: pre;" direction="ltr">abcDefGHijklMNopQrstUvWxyz</text></g><g stroke-opacity="0.3" fill-opacity="0.3" transform="translate(877.2000427246094 258.1000061035156) rotate(42.137551169638556 94.5 12)"><text x="0" y="19" font-family="Cascadia, Segoe UI Emoji" font-size="20px" fill="#fff" text-anchor="start" style="white-space: pre;" direction="ltr">Create NEW iDeas</text></g><g stroke-opacity="0.3" fill-opacity="0.3" transform="translate(644.3999938964844 523.6000366210938) rotate(0 228 -67.20001220703125)" stroke="none" fill="#fff"><path d="M -0.49,-1.48 Q -0.49,-1.48 3.65,-2.82 7.80,-4.17 18.57,-7.27 29.33,-10.38 52.34,-15.60 75.34,-20.83 117.32,-29.49 159.29,-38.14 215.74,-52.16 272.19,-66.17 318.92,-80.63 365.66,-95.09 391.00,-105.58 416.34,-116.08 427.57,-121.23 438.80,-126.38 443.56,-128.79 448.32,-131.20 449.29,-132.21 450.26,-133.22 450.16,-133.43 450.05,-133.64 450.02,-133.87 449.99,-134.10 450.04,-134.33 450.08,-134.56 450.19,-134.76 450.31,-134.97 450.48,-135.12 450.66,-135.28 450.87,-135.37 451.09,-135.46 451.32,-135.48 451.56,-135.50 451.78,-135.44 452.01,-135.39 452.21,-135.26 452.40,-135.13 452.55,-134.95 452.70,-134.77 452.78,-134.55 452.86,-134.33 452.86,-134.10 452.87,-133.86 452.80,-133.64 452.73,-133.41 452.59,-133.22 452.46,-133.03 452.27,-132.90 452.08,-132.76 451.85,-132.69 451.63,-132.63 451.40,-132.63 451.16,-132.64 450.94,-132.72 450.72,-132.80 450.54,-132.95 450.36,-133.09 450.23,-133.29 450.11,-133.49 450.05,-133.72 449.99,-133.94 450.01,-134.18 450.03,-134.41 450.13,-134.62 450.22,-134.84 450.38,-135.01 450.53,-135.19 450.74,-135.30 450.94,-135.42 451.17,-135.46 451.40,-135.50 451.63,-135.47 451.86,-135.44 452.07,-135.34 452.28,-135.23 452.45,-135.07 452.61,-134.90 452.61,-134.90 452.61,-134.90 451.07,-131.87 449.53,-128.83 444.72,-126.39 439.91,-123.95 428.64,-118.78 417.36,-113.60 391.91,-103.06 366.46,-92.51 319.65,-78.02 272.84,-63.53 216.35,-49.48 159.85,-35.43 117.91,-26.76 75.97,-18.08 53.05,-12.84 30.14,-7.60 19.44,-4.47 8.75,-1.34 4.62,0.06 0.49,1.48 0.30,1.51 0.12,1.55 -0.06,1.54 -0.25,1.54 -0.43,1.48 -0.61,1.43 -0.77,1.34 -0.93,1.24 -1.07,1.11 -1.21,0.98 -1.31,0.82 -1.41,0.66 -1.47,0.49 -1.53,0.31 -1.54,0.12 -1.56,-0.06 -1.53,-0.24 -1.50,-0.43 -1.42,-0.60 -1.35,-0.78 -1.23,-0.93 -1.12,-1.08 -0.98,-1.20 -0.83,-1.32 -0.66,-1.40 -0.49,-1.48 -0.49,-1.48 L -0.49,-1.48 Z"></path></g><g stroke-opacity="0.3" fill-opacity="0.3" transform="translate(825.9999694824219 425.20001220703125) rotate(0 172.4000244140625 -14.800018310546875)" stroke="none" fill="#fff"><path d="M 0.05,-1.56 Q 0.05,-1.56 6.49,-1.29 12.93,-1.03 27.89,0.24 42.85,1.51 63.19,2.29 83.53,3.06 112.39,2.71 141.26,2.35 176.25,-1.23 211.24,-4.82 241.50,-10.02 271.76,-15.22 291.49,-20.41 311.21,-25.60 320.73,-28.71 330.25,-31.83 334.07,-33.16 337.90,-34.48 338.63,-34.20 339.37,-33.91 339.21,-34.08 339.05,-34.24 338.95,-34.44 338.85,-34.65 338.82,-34.87 338.80,-35.10 338.84,-35.32 338.89,-35.55 339.00,-35.74 339.12,-35.94 339.29,-36.09 339.46,-36.24 339.67,-36.32 339.88,-36.41 340.11,-36.43 340.33,-36.44 340.55,-36.38 340.77,-36.33 340.96,-36.20 341.15,-36.08 341.29,-35.90 341.43,-35.72 341.51,-35.50 341.58,-35.29 341.59,-35.06 341.59,-34.84 341.52,-34.62 341.45,-34.40 341.31,-34.22 341.18,-34.04 340.99,-33.91 340.81,-33.78 340.59,-33.71 340.37,-33.65 340.14,-33.66 339.92,-33.67 339.70,-33.75 339.49,-33.83 339.32,-33.98 339.14,-34.12 339.02,-34.31 338.90,-34.51 338.85,-34.73 338.80,-34.95 338.82,-35.17 338.84,-35.40 338.93,-35.61 339.03,-35.82 339.18,-35.98 339.33,-36.15 339.53,-36.26 339.73,-36.37 339.96,-36.41 340.18,-36.45 340.41,-36.41 340.63,-36.38 340.83,-36.28 341.03,-36.17 341.03,-36.17 341.03,-36.17 339.90,-34.07 338.77,-31.97 334.92,-30.64 331.08,-29.30 321.49,-26.15 311.90,-23.00 292.06,-17.78 272.22,-12.56 241.87,-7.33 211.52,-2.11 176.41,1.50 141.29,5.12 112.36,5.50 83.42,5.88 63.02,5.13 42.61,4.39 27.72,3.17 12.82,1.95 6.38,1.75 -0.05,1.56 -0.24,1.53 -0.42,1.50 -0.60,1.42 -0.77,1.35 -0.92,1.24 -1.07,1.13 -1.19,0.98 -1.31,0.84 -1.39,0.67 -1.47,0.50 -1.51,0.31 -1.55,0.13 -1.54,-0.05 -1.54,-0.24 -1.49,-0.42 -1.43,-0.60 -1.34,-0.76 -1.25,-0.93 -1.12,-1.06 -0.99,-1.20 -0.83,-1.30 -0.67,-1.40 -0.49,-1.46 -0.31,-1.52 -0.13,-1.54 0.05,-1.56 0.05,-1.56 L 0.05,-1.56 Z"></path></g><g stroke-opacity="0.3" fill-opacity="0.3" transform="translate(837.2000427246094 516.4000244140625) rotate(0 154.79998779296875 -14.399993896484375)" stroke="none" fill="#fff"><path d="M 0,-1.64 Q 0,-1.64 11.04,-1.60 22.08,-1.55 47.24,-1.52 72.40,-1.48 108.80,-4.22 145.20,-6.95 179.76,-10.64 214.32,-14.32 239.58,-17.72 264.84,-21.12 277.61,-23.70 290.38,-26.29 295.83,-27.38 301.28,-28.48 301.49,-28.49 301.71,-28.50 301.92,-28.44 302.13,-28.38 302.31,-28.25 302.49,-28.12 302.62,-27.95 302.75,-27.77 302.81,-27.57 302.88,-27.36 302.88,-27.14 302.87,-26.92 302.80,-26.72 302.73,-26.51 302.59,-26.34 302.46,-26.17 302.27,-26.05 302.09,-25.93 301.88,-25.87 301.67,-25.82 301.45,-25.83 301.23,-25.85 301.03,-25.93 300.83,-26.02 300.67,-26.16 300.50,-26.30 300.39,-26.49 300.28,-26.68 300.24,-26.90 300.20,-27.11 300.22,-27.33 300.25,-27.54 300.35,-27.74 300.44,-27.94 300.59,-28.09 300.75,-28.25 300.94,-28.35 301.14,-28.45 301.35,-28.48 301.57,-28.51 301.78,-28.47 302.00,-28.43 302.19,-28.33 302.38,-28.22 302.53,-28.06 302.67,-27.90 302.76,-27.70 302.85,-27.50 302.87,-27.28 302.89,-27.07 302.84,-26.85 302.79,-26.64 302.67,-26.46 302.56,-26.27 302.39,-26.13 302.22,-25.99 302.02,-25.92 301.81,-25.84 301.81,-25.84 301.81,-25.84 296.37,-24.73 290.92,-23.62 278.07,-21.00 265.21,-18.38 239.92,-14.95 214.62,-11.52 180.02,-7.80 145.42,-4.08 108.91,-1.29 72.40,1.48 47.24,1.52 22.08,1.55 11.04,1.60 0,1.64 -0.19,1.62 -0.39,1.59 -0.57,1.52 -0.76,1.45 -0.92,1.34 -1.09,1.23 -1.22,1.08 -1.35,0.93 -1.44,0.75 -1.53,0.58 -1.58,0.39 -1.63,0.19 -1.63,-0.00 -1.63,-0.19 -1.58,-0.39 -1.53,-0.58 -1.44,-0.75 -1.35,-0.93 -1.22,-1.08 -1.09,-1.23 -0.92,-1.34 -0.76,-1.45 -0.57,-1.52 -0.39,-1.59 -0.19,-1.62 0.00,-1.64 0.00,-1.64 L 0,-1.64 Z"></path></g><g stroke-opacity="0.3" fill-opacity="0.3" transform="translate(995.6000671386719 478.79998779296875) rotate(0 77.5999755859375 -8.79998779296875)" stroke="none" fill="#fff"><path d="M 0,-1.62 Q 0,-1.62 1.83,-1.65 3.67,-1.67 7.63,-1.85 11.59,-2.03 22.99,-2.09 34.39,-2.15 51.13,-3.32 67.87,-4.48 86.70,-6.81 105.53,-9.13 118.11,-11.49 130.69,-13.84 137.65,-15.30 144.61,-16.76 147.57,-17.38 150.54,-17.99 150.75,-18.00 150.97,-18.01 151.18,-17.95 151.39,-17.89 151.57,-17.77 151.75,-17.64 151.88,-17.47 152.01,-17.29 152.08,-17.09 152.15,-16.88 152.15,-16.66 152.15,-16.44 152.07,-16.23 152.00,-16.03 151.87,-15.85 151.74,-15.68 151.55,-15.56 151.37,-15.44 151.16,-15.38 150.95,-15.33 150.73,-15.34 150.51,-15.35 150.31,-15.44 150.11,-15.52 149.94,-15.66 149.78,-15.81 149.67,-15.99 149.55,-16.18 149.51,-16.40 149.46,-16.61 149.49,-16.83 149.52,-17.04 149.61,-17.24 149.70,-17.44 149.85,-17.60 150.01,-17.75 150.20,-17.86 150.39,-17.96 150.61,-17.99 150.83,-18.02 151.04,-17.99 151.26,-17.95 151.45,-17.84 151.64,-17.74 151.79,-17.58 151.94,-17.42 152.03,-17.22 152.12,-17.02 152.14,-16.80 152.16,-16.59 152.11,-16.37 152.07,-16.16 151.95,-15.97 151.84,-15.79 151.67,-15.65 151.50,-15.51 151.30,-15.43 151.09,-15.35 151.09,-15.35 151.09,-15.35 148.13,-14.72 145.17,-14.08 138.18,-12.60 131.20,-11.12 118.54,-8.72 105.88,-6.32 86.98,-3.95 68.08,-1.59 51.25,-0.37 34.41,0.84 23.09,0.98 11.77,1.11 7.72,1.39 3.68,1.67 1.84,1.65 0,1.62 -0.19,1.60 -0.38,1.58 -0.57,1.51 -0.75,1.44 -0.91,1.33 -1.07,1.21 -1.21,1.07 -1.34,0.92 -1.43,0.75 -1.52,0.57 -1.56,0.38 -1.61,0.19 -1.61,-0.00 -1.61,-0.19 -1.56,-0.38 -1.52,-0.57 -1.43,-0.75 -1.34,-0.92 -1.20,-1.07 -1.07,-1.21 -0.91,-1.33 -0.75,-1.44 -0.57,-1.51 -0.38,-1.58 -0.19,-1.60 0.00,-1.62 0.00,-1.62 L 0,-1.62 Z"></path></g><g stroke-opacity="0.3" fill-opacity="0.3" transform="translate(806.8000183105469 430) rotate(0 168.4000244140625 48)" stroke="none" fill="#fff"><path d="M 1.13,-1.06 Q 1.13,-1.06 4.56,2.63 7.98,6.33 15.31,11.73 22.64,17.14 36.52,24.48 50.39,31.83 70.30,40.01 90.20,48.20 114.50,55.81 138.80,63.42 166.11,69.65 193.43,75.87 218.59,79.89 243.75,83.92 265.48,86.55 287.20,89.18 300.14,90.99 313.07,92.81 319.25,93.58 325.42,94.35 328.49,94.67 331.57,95.00 333.77,95.09 335.96,95.17 336.21,95.23 336.45,95.30 336.66,95.43 336.87,95.57 337.02,95.76 337.17,95.96 337.26,96.20 337.34,96.43 337.35,96.68 337.35,96.93 337.28,97.17 337.20,97.40 337.05,97.61 336.91,97.81 336.70,97.95 336.50,98.09 336.26,98.17 336.02,98.24 335.77,98.23 335.52,98.22 335.29,98.13 335.06,98.04 334.86,97.89 334.67,97.73 334.54,97.52 334.40,97.30 334.35,97.06 334.29,96.82 334.31,96.57 334.33,96.32 334.43,96.09 334.53,95.87 334.70,95.68 334.87,95.50 335.09,95.38 335.31,95.26 335.55,95.21 335.80,95.17 336.04,95.20 336.29,95.24 336.51,95.35 336.74,95.46 336.91,95.64 337.09,95.82 337.19,96.04 337.30,96.27 337.34,96.52 337.37,96.76 337.32,97.01 337.27,97.25 337.14,97.47 337.02,97.68 336.83,97.85 336.64,98.01 336.41,98.11 336.18,98.21 335.94,98.23 335.69,98.24 335.69,98.24 335.69,98.24 333.49,97.93 331.29,97.63 328.19,97.30 325.09,96.97 318.90,96.20 312.71,95.44 299.79,93.63 286.88,91.83 265.10,89.20 243.33,86.56 218.08,82.53 192.83,78.50 165.41,72.26 137.98,66.03 113.57,58.39 89.15,50.75 69.11,42.54 49.08,34.32 35.01,26.90 20.93,19.47 13.37,13.92 5.81,8.38 2.33,4.72 -1.13,1.06 -1.25,0.91 -1.36,0.76 -1.43,0.59 -1.50,0.41 -1.53,0.23 -1.56,0.04 -1.54,-0.14 -1.52,-0.33 -1.46,-0.50 -1.40,-0.68 -1.30,-0.84 -1.19,-1.00 -1.06,-1.13 -0.92,-1.26 -0.75,-1.35 -0.59,-1.44 -0.41,-1.49 -0.23,-1.54 -0.04,-1.55 0.14,-1.55 0.32,-1.51 0.51,-1.47 0.68,-1.39 0.85,-1.31 0.99,-1.18 1.13,-1.06 1.13,-1.06 L 1.13,-1.06 Z"></path></g><g stroke-opacity="0.3" fill-opacity="0.3" transform="translate(560.4000549316406 97.19998168945311) rotate(0 33.600006103515625 2.0000076293945312)" stroke="none" fill="#fff"><path d="M 0.21,-1.79 Q 0.21,-1.79 4.11,-1.27 8.01,-0.74 13.09,-0.27 18.17,0.19 23.59,0.87 29.00,1.55 33.77,1.85 38.55,2.14 42.42,2.28 46.29,2.41 48.85,2.47 51.42,2.54 53.20,2.50 54.97,2.45 56.29,2.15 57.60,1.85 59.45,1.72 61.29,1.59 63.70,1.44 66.10,1.29 66.41,1.33 66.72,1.38 67.00,1.52 67.28,1.66 67.50,1.88 67.72,2.10 67.85,2.38 67.99,2.66 68.03,2.97 68.07,3.28 68.01,3.59 67.96,3.89 67.80,4.16 67.65,4.43 67.41,4.64 67.18,4.85 66.89,4.97 66.61,5.09 66.29,5.12 65.98,5.14 65.68,5.07 65.38,4.99 65.11,4.82 64.85,4.65 64.66,4.41 64.46,4.16 64.36,3.87 64.25,3.58 64.24,3.27 64.23,2.95 64.33,2.65 64.42,2.36 64.60,2.10 64.79,1.85 65.04,1.67 65.29,1.49 65.59,1.40 65.89,1.31 66.20,1.32 66.52,1.33 66.81,1.43 67.10,1.54 67.34,1.74 67.59,1.94 67.75,2.20 67.92,2.46 68.00,2.77 68.07,3.07 68.04,3.38 68.02,3.69 67.89,3.98 67.77,4.27 67.56,4.50 67.35,4.73 67.08,4.88 66.80,5.03 66.50,5.09 66.19,5.15 66.19,5.15 66.19,5.15 63.83,5.11 61.48,5.08 59.79,5.14 58.11,5.19 56.53,5.33 54.94,5.47 53.15,5.39 51.37,5.31 48.78,5.27 46.20,5.24 42.29,5.14 38.39,5.04 33.52,4.79 28.65,4.54 23.28,3.94 17.91,3.34 12.76,2.96 7.62,2.58 3.70,2.19 -0.21,1.79 -0.42,1.74 -0.63,1.69 -0.82,1.59 -1.02,1.49 -1.18,1.34 -1.34,1.20 -1.47,1.02 -1.59,0.84 -1.67,0.64 -1.75,0.43 -1.78,0.22 -1.80,0.00 -1.78,-0.20 -1.75,-0.42 -1.68,-0.63 -1.60,-0.83 -1.48,-1.01 -1.35,-1.19 -1.19,-1.33 -1.03,-1.48 -0.84,-1.58 -0.64,-1.68 -0.43,-1.74 -0.22,-1.79 -0.00,-1.79 0.21,-1.79 0.21,-1.79 L 0.21,-1.79 Z"></path></g><g stroke-opacity="0.3" fill-opacity="0.3" transform="translate(577.2000427246094 96.39999389648436) rotate(0 26.399993896484375 -4)" stroke="none" fill="#fff"><path d="M -0.43,-1.86 Q -0.43,-1.86 2.57,-2.47 5.58,-3.08 9.66,-3.79 13.74,-4.49 18.70,-5.23 23.66,-5.97 28.79,-6.51 33.91,-7.04 37.64,-7.71 41.36,-8.38 43.93,-8.66 46.50,-8.95 49.32,-9.23 52.15,-9.51 52.40,-9.48 52.65,-9.46 52.87,-9.35 53.10,-9.25 53.29,-9.08 53.47,-8.91 53.59,-8.69 53.71,-8.47 53.75,-8.22 53.79,-7.97 53.75,-7.72 53.71,-7.48 53.60,-7.25 53.48,-7.03 53.30,-6.86 53.12,-6.68 52.89,-6.58 52.67,-6.47 52.42,-6.44 52.17,-6.41 51.92,-6.47 51.68,-6.52 51.46,-6.65 51.25,-6.77 51.08,-6.96 50.92,-7.15 50.82,-7.39 50.73,-7.62 50.72,-7.87 50.70,-8.12 50.77,-8.36 50.83,-8.60 50.97,-8.81 51.11,-9.02 51.31,-9.17 51.51,-9.33 51.74,-9.41 51.98,-9.49 52.23,-9.49 52.48,-9.49 52.72,-9.41 52.96,-9.33 53.16,-9.18 53.36,-9.03 53.50,-8.83 53.64,-8.62 53.71,-8.38 53.78,-8.14 53.77,-7.89 53.76,-7.64 53.67,-7.40 53.57,-7.17 53.41,-6.98 53.25,-6.79 53.04,-6.66 52.82,-6.53 52.58,-6.47 52.34,-6.42 52.34,-6.42 52.34,-6.42 49.58,-6.29 46.83,-6.16 44.36,-5.86 41.88,-5.55 38.06,-4.82 34.24,-4.09 29.19,-3.50 24.14,-2.91 19.24,-2.09 14.34,-1.27 10.35,-0.47 6.37,0.32 3.40,1.09 0.43,1.86 0.20,1.89 -0.02,1.91 -0.25,1.88 -0.48,1.85 -0.70,1.76 -0.91,1.68 -1.10,1.54 -1.29,1.41 -1.44,1.24 -1.59,1.06 -1.69,0.85 -1.80,0.65 -1.85,0.42 -1.90,0.20 -1.90,-0.02 -1.89,-0.25 -1.84,-0.48 -1.78,-0.70 -1.67,-0.90 -1.56,-1.11 -1.40,-1.28 -1.24,-1.45 -1.05,-1.58 -0.86,-1.71 -0.64,-1.78 -0.43,-1.86 -0.43,-1.86 L -0.43,-1.86 Z"></path></g><g stroke-opacity="0.3" fill-opacity="0.3" transform="translate(599.6000671386719 85.99998474121092) rotate(0 22 -2.7999954223632812)" stroke="none" fill="#fff"><path d="M -0.26,-1.84 Q -0.26,-1.84 2.96,-2.23 6.19,-2.62 9.60,-3.21 13.01,-3.81 16.82,-4.28 20.63,-4.76 24.55,-5.18 28.46,-5.60 31.96,-5.99 35.46,-6.39 37.66,-6.56 39.86,-6.72 41.52,-6.92 43.17,-7.12 43.42,-7.09 43.67,-7.07 43.91,-6.96 44.14,-6.86 44.32,-6.69 44.51,-6.51 44.63,-6.29 44.76,-6.07 44.80,-5.82 44.84,-5.57 44.81,-5.31 44.77,-5.06 44.65,-4.84 44.53,-4.61 44.35,-4.43 44.17,-4.25 43.94,-4.14 43.71,-4.04 43.45,-4.00 43.20,-3.97 42.95,-4.03 42.70,-4.08 42.48,-4.21 42.26,-4.34 42.10,-4.53 41.93,-4.72 41.83,-4.96 41.74,-5.19 41.72,-5.45 41.70,-5.70 41.77,-5.95 41.83,-6.19 41.97,-6.40 42.11,-6.62 42.32,-6.77 42.52,-6.93 42.76,-7.01 43.00,-7.10 43.25,-7.10 43.51,-7.10 43.75,-7.02 43.99,-6.95 44.20,-6.79 44.40,-6.64 44.55,-6.43 44.69,-6.22 44.76,-5.98 44.83,-5.73 44.82,-5.48 44.81,-5.23 44.72,-4.99 44.63,-4.75 44.46,-4.55 44.30,-4.36 44.09,-4.23 43.87,-4.09 43.62,-4.03 43.37,-3.98 43.37,-3.98 43.37,-3.98 41.73,-3.96 40.09,-3.94 37.94,-3.75 35.80,-3.56 32.30,-3.12 28.80,-2.68 24.92,-2.20 21.04,-1.73 17.33,-1.19 13.61,-0.65 10.15,0.06 6.68,0.78 3.47,1.31 0.26,1.84 0.03,1.85 -0.18,1.85 -0.40,1.80 -0.62,1.76 -0.82,1.66 -1.02,1.55 -1.20,1.41 -1.37,1.26 -1.50,1.08 -1.63,0.90 -1.72,0.69 -1.80,0.48 -1.83,0.26 -1.86,0.03 -1.84,-0.18 -1.82,-0.40 -1.74,-0.62 -1.67,-0.83 -1.54,-1.02 -1.42,-1.20 -1.25,-1.36 -1.09,-1.51 -0.89,-1.62 -0.69,-1.73 -0.48,-1.79 -0.26,-1.84 -0.26,-1.84 L -0.26,-1.84 Z"></path></g><g stroke-opacity="0.3" fill-opacity="0.3" transform="translate(614.8000793457031 76.39999389648436) rotate(0 16.399993896484375 1.5999984741210938)" stroke="none" fill="#fff"><path d="M 0,-2.25 Q 0,-2.25 2.98,-2.13 5.97,-2.00 8.63,-1.91 11.28,-1.82 13.55,-1.75 15.83,-1.68 17.49,-1.73 19.14,-1.77 20.31,-1.86 21.47,-1.95 23.06,-2.10 24.66,-2.25 26.19,-1.77 27.73,-1.28 29.40,-1.23 31.08,-1.17 32.32,-0.33 33.56,0.49 33.95,0.72 34.34,0.95 34.63,1.30 34.93,1.64 35.10,2.06 35.27,2.48 35.30,2.93 35.32,3.38 35.21,3.82 35.09,4.25 34.84,4.63 34.58,5.01 34.23,5.28 33.87,5.56 33.44,5.71 33.01,5.85 32.56,5.86 32.11,5.86 31.68,5.72 31.25,5.58 30.88,5.30 30.52,5.03 30.27,4.66 30.01,4.29 29.89,3.85 29.76,3.42 29.78,2.96 29.81,2.51 29.97,2.09 30.14,1.67 30.43,1.32 30.72,0.97 31.10,0.74 31.49,0.50 31.93,0.40 32.37,0.30 32.82,0.35 33.27,0.40 33.69,0.58 34.10,0.77 34.43,1.08 34.76,1.39 34.97,1.79 35.19,2.19 35.26,2.63 35.34,3.08 35.27,3.53 35.20,3.97 34.99,4.37 34.78,4.78 34.45,5.09 34.13,5.40 33.72,5.59 33.31,5.79 32.86,5.84 32.41,5.89 31.96,5.80 31.52,5.70 31.52,5.70 31.52,5.70 29.63,4.52 27.73,3.34 26.19,2.79 24.66,2.25 23.06,2.10 21.47,1.95 20.31,1.86 19.14,1.77 17.49,1.73 15.83,1.68 13.55,1.75 11.28,1.82 8.63,1.91 5.97,2.00 2.98,2.13 0,2.25 -0.26,2.22 -0.53,2.19 -0.79,2.09 -1.04,1.99 -1.27,1.84 -1.49,1.68 -1.67,1.48 -1.85,1.28 -1.98,1.04 -2.10,0.79 -2.17,0.53 -2.23,0.27 -2.23,-0.00 -2.23,-0.27 -2.17,-0.53 -2.10,-0.80 -1.98,-1.04 -1.85,-1.28 -1.67,-1.48 -1.49,-1.68 -1.27,-1.84 -1.04,-1.99 -0.79,-2.09 -0.53,-2.19 -0.26,-2.22 0.00,-2.25 0.00,-2.25 L 0,-2.25 Z"></path></g><g stroke-opacity="0.3" fill-opacity="0.3" transform="translate(596.4000549316406 113.99998474121092) rotate(0 24.399993896484375 -4.399993896484375)" stroke="none" fill="#fff"><path d="M -0.18,-2.20 Q -0.18,-2.20 2.58,-2.31 5.35,-2.42 7.87,-2.66 10.39,-2.89 12.45,-3.00 14.51,-3.11 15.84,-3.25 17.17,-3.40 18.25,-3.70 19.34,-4.01 20.76,-4.38 22.17,-4.74 23.60,-4.96 25.02,-5.17 26.32,-5.28 27.62,-5.39 28.77,-5.82 29.92,-6.26 31.22,-6.72 32.52,-7.18 34.05,-7.61 35.58,-8.03 37.43,-8.40 39.27,-8.77 40.83,-8.98 42.39,-9.19 43.56,-9.50 44.74,-9.82 46.28,-10.40 47.83,-10.98 48.21,-11.04 48.59,-11.09 48.96,-11.03 49.34,-10.96 49.68,-10.78 50.02,-10.60 50.28,-10.31 50.54,-10.03 50.70,-9.68 50.86,-9.33 50.89,-8.95 50.93,-8.57 50.85,-8.19 50.76,-7.82 50.56,-7.49 50.36,-7.16 50.06,-6.92 49.77,-6.67 49.41,-6.53 49.05,-6.39 48.66,-6.38 48.28,-6.36 47.91,-6.47 47.54,-6.57 47.23,-6.79 46.91,-7.01 46.68,-7.32 46.45,-7.63 46.33,-7.99 46.21,-8.36 46.22,-8.74 46.22,-9.13 46.35,-9.49 46.47,-9.85 46.71,-10.16 46.95,-10.46 47.27,-10.67 47.59,-10.88 47.96,-10.98 48.33,-11.08 48.71,-11.06 49.10,-11.03 49.45,-10.89 49.81,-10.74 50.10,-10.49 50.39,-10.24 50.58,-9.91 50.78,-9.58 50.86,-9.20 50.93,-8.82 50.89,-8.44 50.84,-8.06 50.68,-7.71 50.51,-7.37 50.25,-7.09 49.98,-6.81 49.64,-6.64 49.30,-6.46 49.30,-6.46 49.30,-6.46 47.55,-5.87 45.79,-5.28 44.36,-4.98 42.93,-4.69 41.60,-4.56 40.26,-4.42 38.56,-3.97 36.85,-3.53 35.43,-3.13 34.01,-2.72 32.70,-2.31 31.38,-1.90 29.64,-1.36 27.89,-0.82 26.70,-0.81 25.50,-0.79 24.32,-0.72 23.13,-0.64 21.64,-0.33 20.16,-0.02 18.75,0.17 17.34,0.37 16.05,0.35 14.75,0.32 12.80,0.49 10.85,0.66 8.26,1.08 5.68,1.50 2.93,1.85 0.18,2.20 -0.08,2.19 -0.34,2.18 -0.60,2.10 -0.86,2.03 -1.09,1.90 -1.32,1.76 -1.51,1.58 -1.70,1.40 -1.85,1.17 -1.99,0.95 -2.07,0.69 -2.16,0.44 -2.18,0.18 -2.20,-0.08 -2.16,-0.34 -2.12,-0.60 -2.01,-0.85 -1.91,-1.09 -1.75,-1.31 -1.59,-1.52 -1.39,-1.69 -1.18,-1.86 -0.94,-1.97 -0.70,-2.09 -0.44,-2.14 -0.18,-2.20 -0.18,-2.20 L -0.18,-2.20 Z"></path></g><g stroke-opacity="0.3" fill-opacity="0.3" transform="translate(629.2000427246094 93.99998474121092) rotate(0 13.20001220703125 0)" stroke="none" fill="#fff"><path d="M 0,-2.47 Q 0,-2.47 2.07,-2.34 4.14,-2.20 5.93,-2.16 7.73,-2.13 8.96,-2.18 10.18,-2.24 11.71,-2.36 13.24,-2.48 14.70,-2.60 16.16,-2.72 17.26,-2.74 18.37,-2.76 19.75,-2.74 21.14,-2.72 23.61,-2.74 26.07,-2.76 26.51,-2.69 26.95,-2.62 27.35,-2.41 27.74,-2.20 28.05,-1.87 28.36,-1.55 28.55,-1.14 28.73,-0.73 28.78,-0.29 28.83,0.14 28.73,0.58 28.64,1.02 28.41,1.40 28.18,1.79 27.84,2.07 27.50,2.36 27.08,2.53 26.66,2.70 26.22,2.72 25.77,2.74 25.34,2.62 24.91,2.50 24.54,2.25 24.17,2.00 23.90,1.65 23.63,1.29 23.48,0.87 23.34,0.44 23.34,-0.00 23.34,-0.44 23.48,-0.87 23.63,-1.29 23.90,-1.65 24.17,-2.00 24.54,-2.25 24.91,-2.50 25.34,-2.62 25.77,-2.74 26.22,-2.72 26.66,-2.70 27.08,-2.53 27.50,-2.36 27.84,-2.07 28.18,-1.78 28.41,-1.40 28.64,-1.02 28.74,-0.58 28.83,-0.14 28.78,0.29 28.73,0.74 28.55,1.14 28.36,1.55 28.05,1.87 27.74,2.20 27.35,2.41 26.95,2.62 26.51,2.69 26.07,2.76 26.07,2.76 26.07,2.76 23.61,2.74 21.14,2.72 19.75,2.74 18.37,2.76 17.26,2.74 16.16,2.72 14.70,2.60 13.24,2.48 11.71,2.36 10.18,2.24 8.96,2.18 7.73,2.13 5.93,2.16 4.14,2.20 2.07,2.34 0,2.47 -0.29,2.43 -0.59,2.40 -0.87,2.29 -1.15,2.19 -1.39,2.02 -1.64,1.85 -1.83,1.62 -2.03,1.40 -2.17,1.14 -2.31,0.87 -2.38,0.58 -2.45,0.29 -2.45,-0.00 -2.45,-0.29 -2.38,-0.58 -2.31,-0.87 -2.17,-1.14 -2.03,-1.40 -1.83,-1.62 -1.64,-1.85 -1.39,-2.02 -1.15,-2.19 -0.87,-2.29 -0.59,-2.40 -0.29,-2.43 0.00,-2.47 0.00,-2.47 L 0,-2.47 Z"></path></g><g stroke-opacity="0.3" fill-opacity="0.3" transform="translate(632.4000549316406 101.99999999999999) rotate(0 16.399993896484375 1.6000137329101562)" stroke="none" fill="#fff"><path d="M 0.22,-2.43 Q 0.22,-2.43 2.73,-2.05 5.25,-1.67 7.42,-1.47 9.59,-1.27 10.76,-1.30 11.93,-1.33 13.73,-1.45 15.53,-1.56 17.39,-1.65 19.26,-1.74 20.45,-1.83 21.63,-1.91 23.48,-1.69 25.33,-1.46 26.60,-1.07 27.88,-0.68 31.47,0.21 35.06,1.10 35.31,1.53 35.56,1.97 35.65,2.45 35.75,2.94 35.69,3.44 35.63,3.93 35.41,4.38 35.19,4.83 34.84,5.18 34.49,5.54 34.05,5.76 33.60,5.99 33.11,6.06 32.62,6.13 32.13,6.04 31.64,5.95 31.20,5.71 30.77,5.46 30.43,5.10 30.10,4.73 29.90,4.27 29.70,3.82 29.65,3.32 29.61,2.82 29.72,2.34 29.84,1.86 30.10,1.43 30.37,1.01 30.76,0.70 31.14,0.38 31.61,0.21 32.07,0.03 32.57,0.01 33.07,0.00 33.55,0.14 34.02,0.28 34.43,0.57 34.84,0.86 35.13,1.26 35.42,1.66 35.57,2.14 35.72,2.61 35.71,3.11 35.70,3.61 35.54,4.08 35.37,4.54 35.06,4.93 34.75,5.33 34.33,5.60 33.91,5.87 33.43,5.99 32.95,6.12 32.45,6.08 31.96,6.04 31.50,5.85 31.04,5.66 30.67,5.33 30.29,5.00 30.29,5.00 30.29,5.00 29.01,5.15 27.73,5.30 26.32,4.94 24.92,4.59 23.28,4.05 21.63,3.51 20.44,3.43 19.25,3.34 17.37,3.24 15.49,3.14 13.64,2.97 11.78,2.81 10.60,2.69 9.42,2.58 7.14,2.59 4.86,2.59 2.32,2.51 -0.22,2.43 -0.50,2.36 -0.79,2.30 -1.06,2.17 -1.32,2.05 -1.55,1.86 -1.77,1.67 -1.95,1.43 -2.12,1.19 -2.23,0.92 -2.35,0.65 -2.39,0.36 -2.44,0.07 -2.41,-0.21 -2.38,-0.51 -2.29,-0.79 -2.19,-1.06 -2.03,-1.31 -1.87,-1.56 -1.66,-1.76 -1.44,-1.96 -1.19,-2.11 -0.93,-2.25 -0.65,-2.33 -0.36,-2.41 -0.07,-2.42 0.22,-2.43 0.22,-2.43 L 0.22,-2.43 Z"></path></g><g stroke-opacity="0.3" fill-opacity="0.3" stroke-linecap="round" transform="translate(190 466.79998779296875) rotate(0 27.599990844726562 23.20001220703125)"><path d="M0 0 C18.57 0, 37.15 0, 55.2 0 M0 0 C21.59 0, 43.18 0, 55.2 0 M55.2 0 C55.2 12.4, 55.2 24.79, 55.2 46.4 M55.2 0 C55.2 9.52, 55.2 19.05, 55.2 46.4 M55.2 46.4 C34.44 46.4, 13.68 46.4, 0 46.4 M55.2 46.4 C35.86 46.4, 16.53 46.4, 0 46.4 M0 46.4 C0 30.03, 0 13.66, 0 0 M0 46.4 C0 32.72, 0 19.05, 0 0" stroke="#fff" stroke-width="1" fill="none"></path></g><g stroke-opacity="0.3" fill-opacity="0.3" stroke-linecap="round" transform="translate(221.19998168945312 495.60003662109375) rotate(0 27.600006103515625 28)"><path d="M55.2 28 C55.2 29.62, 55.06 31.27, 54.78 32.86 C54.5 34.46, 54.08 36.05, 53.54 37.58 C52.99 39.1, 52.3 40.6, 51.5 42 C50.7 43.4, 49.77 44.76, 48.74 46 C47.72 47.24, 46.56 48.41, 45.34 49.45 C44.12 50.49, 42.78 51.44, 41.4 52.25 C40.02 53.06, 38.54 53.76, 37.04 54.31 C35.54 54.87, 33.97 55.29, 32.39 55.57 C30.82 55.86, 29.2 56, 27.6 56 C26 56, 24.38 55.86, 22.81 55.57 C21.23 55.29, 19.66 54.87, 18.16 54.31 C16.66 53.76, 15.18 53.06, 13.8 52.25 C12.42 51.44, 11.08 50.49, 9.86 49.45 C8.64 48.41, 7.48 47.24, 6.46 46 C5.43 44.76, 4.5 43.4, 3.7 42 C2.9 40.6, 2.21 39.1, 1.66 37.58 C1.12 36.05, 0.7 34.46, 0.42 32.86 C0.14 31.27, 0 29.62, 0 28 C0 26.38, 0.14 24.73, 0.42 23.14 C0.7 21.54, 1.12 19.95, 1.66 18.42 C2.21 16.9, 2.9 15.4, 3.7 14 C4.5 12.6, 5.43 11.24, 6.46 10 C7.48 8.76, 8.64 7.59, 9.86 6.55 C11.08 5.51, 12.42 4.56, 13.8 3.75 C15.18 2.94, 16.66 2.24, 18.16 1.69 C19.66 1.13, 21.23 0.71, 22.81 0.43 C24.38 0.14, 26 0, 27.6 0 C29.2 0, 30.82 0.14, 32.39 0.43 C33.97 0.71, 35.54 1.13, 37.04 1.69 C38.54 2.24, 40.02 2.94, 41.4 3.75 C42.78 4.56, 44.12 5.51, 45.34 6.55 C46.56 7.59, 47.72 8.76, 48.74 10 C49.77 11.24, 50.7 12.6, 51.5 14 C52.3 15.4, 52.99 16.9, 53.54 18.42 C54.08 19.95, 54.5 21.54, 54.78 23.14 C55.06 24.73, 55.13 27.19, 55.2 28 C55.27 28.81, 55.27 27.19, 55.2 28" stroke="#fff" stroke-width="1" fill="none"></path></g><g stroke-linecap="round"><g stroke-opacity="0.3" fill-opacity="0.3" transform="translate(37.20001220703125 430.79998779296875) rotate(0 199.99998474121094 1.20001220703125)"><path d="M0 0 C66.67 0.4, 333.33 2, 400 2.4 M0 0 C66.67 0.4, 333.33 2, 400 2.4" stroke="#fff" stroke-width="1" fill="none"></path></g></g><g stroke-linecap="round"><g stroke-opacity="0.3" fill-opacity="0.3" transform="translate(398.8000183105469 367.6000671386719) rotate(0 -0.800018310546875 83.19996643066406)"><path d="M0 0 C-0.27 27.73, -1.33 138.67, -1.6 166.4 M0 0 C-0.27 27.73, -1.33 138.67, -1.6 166.4" stroke="#fff" stroke-width="1" fill="none"></path></g></g><g stroke-linecap="round"><g stroke-opacity="0.3" fill-opacity="0.3" transform="translate(428.3999938964844 364.3999938964844) rotate(0 0 112.00001525878906)"><path d="M0 0 C0 37.33, 0 186.67, 0 224 M0 0 C0 37.33, 0 186.67, 0 224" stroke="#fff" stroke-width="1" fill="none"></path></g></g><g stroke-linecap="round"><g stroke-opacity="0.3" fill-opacity="0.3" transform="translate(428.3999938964844 588.4000244140625) rotate(0 78.07160054016117 -27.059193847656275)"><path d="M0 0 C20.13 -6.4, 101.2 -30.4, 120.8 -38.4 C140.4 -46.4, 111.73 -45.6, 117.6 -48 C123.47 -50.4, 153.33 -56.93, 156 -52.8 C158.67 -48.67, 138.13 -24.67, 133.6 -23.2 C129.07 -21.73, 129.6 -40.53, 128.8 -44 M0 0 C20.13 -6.4, 101.2 -30.4, 120.8 -38.4 C140.4 -46.4, 111.73 -45.6, 117.6 -48 C123.47 -50.4, 153.33 -56.93, 156 -52.8 C158.67 -48.67, 138.13 -24.67, 133.6 -23.2 C129.07 -21.73, 129.6 -40.53, 128.8 -44" stroke="#fff" stroke-width="1" fill="none"></path></g></g><g stroke-linecap="round"><g stroke-opacity="0.3" fill-opacity="0.3" transform="translate(558.8000183105469 545.2000122070312) rotate(0 -0.800018310546875 1.20001220703125)"><path d="M0 0 C-0.27 0.4, -1.33 2, -1.6 2.4 M0 0 C-0.27 0.4, -1.33 2, -1.6 2.4" stroke="#fff" stroke-width="1" fill="none"></path></g></g><g stroke-opacity="0.3" fill-opacity="0.3" stroke-linecap="round" transform="translate(860.3999938964844 69.99999999999999) rotate(0 42.4000244140625 43.20000457763672)"><path d="M84.8 43.2 C84.8 45.25, 84.65 47.32, 84.37 49.35 C84.08 51.38, 83.65 53.4, 83.08 55.37 C82.52 57.34, 81.8 59.28, 80.97 61.15 C80.13 63.01, 79.16 64.83, 78.07 66.56 C76.98 68.28, 75.76 69.94, 74.44 71.49 C73.13 73.04, 71.69 74.51, 70.17 75.85 C68.65 77.19, 67.02 78.43, 65.32 79.54 C63.63 80.65, 61.84 81.64, 60.01 82.5 C58.18 83.35, 56.28 84.07, 54.35 84.65 C52.42 85.23, 50.43 85.67, 48.43 85.96 C46.44 86.25, 44.41 86.4, 42.4 86.4 C40.39 86.4, 38.36 86.25, 36.37 85.96 C34.37 85.67, 32.38 85.23, 30.45 84.65 C28.52 84.07, 26.62 83.35, 24.79 82.5 C22.96 81.64, 21.17 80.65, 19.48 79.54 C17.78 78.43, 16.15 77.19, 14.63 75.85 C13.11 74.51, 11.67 73.04, 10.36 71.49 C9.04 69.94, 7.82 68.28, 6.73 66.56 C5.64 64.83, 4.67 63.01, 3.83 61.15 C3 59.28, 2.28 57.34, 1.72 55.37 C1.15 53.4, 0.72 51.38, 0.43 49.35 C0.15 47.32, 0 45.25, 0 43.2 C0 41.15, 0.15 39.08, 0.43 37.05 C0.72 35.02, 1.15 33, 1.72 31.03 C2.28 29.06, 3 27.12, 3.83 25.25 C4.67 23.39, 5.64 21.57, 6.73 19.84 C7.82 18.12, 9.04 16.46, 10.36 14.91 C11.67 13.36, 13.11 11.89, 14.63 10.55 C16.15 9.21, 17.78 7.97, 19.48 6.86 C21.17 5.75, 22.96 4.76, 24.79 3.9 C26.62 3.05, 28.52 2.33, 30.45 1.75 C32.38 1.17, 34.37 0.73, 36.37 0.44 C38.36 0.15, 40.39 0, 42.4 0 C44.41 0, 46.44 0.15, 48.43 0.44 C50.43 0.73, 52.42 1.17, 54.35 1.75 C56.28 2.33, 58.18 3.05, 60.01 3.9 C61.84 4.76, 63.63 5.75, 65.32 6.86 C67.02 7.97, 68.65 9.21, 70.17 10.55 C71.69 11.89, 73.13 13.36, 74.44 14.91 C75.76 16.46, 76.98 18.12, 78.07 19.84 C79.16 21.57, 80.13 23.39, 80.97 25.25 C81.8 27.12, 82.52 29.06, 83.08 31.03 C83.65 33, 84.08 35.02, 84.37 37.05 C84.65 39.08, 84.73 42.18, 84.8 43.2 C84.87 44.22, 84.87 42.18, 84.8 43.2" stroke="#fff" stroke-width="1" fill="none"></path></g><g stroke-opacity="0.3" fill-opacity="0.3" stroke-linecap="round" transform="translate(956.3999938964844 282) rotate(0 46.4000244140625 47.19999694824219)"><path d="M47 0 C62.6 16.35, 78.2 32.7, 92.8 48 M47 0 C62.31 16.04, 77.61 32.08, 92.8 48 M92.8 48 C77.37 63.63, 61.95 79.26, 47 94.4 M92.8 48 C83.23 57.7, 73.66 67.39, 47 94.4 M47 94.4 C34.79 82.34, 22.57 70.28, 0 48 M47 94.4 C31 78.6, 14.99 62.8, 0 48 M0 48 C17.51 30.12, 35.01 12.24, 47 0 M0 48 C10.83 36.94, 21.66 25.88, 47 0" stroke="#fff" stroke-width="1" fill="none"></path></g><g stroke-linecap="round"><g stroke-opacity="0.3" fill-opacity="0.3" transform="translate(1114.8000183105469 9.999999999999986) rotate(0 0 76.80000305175783)"><path d="M0 0 C0 25.6, 0 128, 0 153.6 M0 0 C0 25.6, 0 128, 0 153.6" stroke="#fff" stroke-width="1" fill="none"></path></g></g><g stroke-opacity="0.6" fill-opacity="0.6" stroke-linecap="round" transform="translate(1080.3999938964844 164.40000915527344) rotate(0 34 34.00000762939453)"><path d="M68 34 C68 35.77, 67.86 37.57, 67.58 39.32 C67.3 41.07, 66.88 42.82, 66.34 44.51 C65.79 46.19, 65.1 47.86, 64.29 49.44 C63.49 51.02, 62.55 52.55, 61.51 53.98 C60.46 55.42, 59.3 56.79, 58.04 58.04 C56.79 59.3, 55.42 60.46, 53.98 61.51 C52.55 62.55, 51.02 63.49, 49.44 64.29 C47.86 65.1, 46.19 65.79, 44.51 66.34 C42.82 66.88, 41.07 67.3, 39.32 67.58 C37.57 67.86, 35.77 68, 34 68 C32.23 68, 30.43 67.86, 28.68 67.58 C26.93 67.3, 25.18 66.88, 23.49 66.34 C21.81 65.79, 20.14 65.1, 18.56 64.29 C16.98 63.49, 15.45 62.55, 14.02 61.51 C12.58 60.46, 11.21 59.3, 9.96 58.04 C8.7 56.79, 7.54 55.42, 6.49 53.98 C5.45 52.55, 4.51 51.02, 3.71 49.44 C2.9 47.86, 2.21 46.19, 1.66 44.51 C1.12 42.82, 0.7 41.07, 0.42 39.32 C0.14 37.57, 0 35.77, 0 34 C0 32.23, 0.14 30.43, 0.42 28.68 C0.7 26.93, 1.12 25.18, 1.66 23.49 C2.21 21.81, 2.9 20.14, 3.71 18.56 C4.51 16.98, 5.45 15.45, 6.49 14.02 C7.54 12.58, 8.7 11.21, 9.96 9.96 C11.21 8.7, 12.58 7.54, 14.02 6.49 C15.45 5.45, 16.98 4.51, 18.56 3.71 C20.14 2.9, 21.81 2.21, 23.49 1.66 C25.18 1.12, 26.93 0.7, 28.68 0.42 C30.43 0.14, 32.23 0, 34 0 C35.77 0, 37.57 0.14, 39.32 0.42 C41.07 0.7, 42.82 1.12, 44.51 1.66 C46.19 2.21, 47.86 2.9, 49.44 3.71 C51.02 4.51, 52.55 5.45, 53.98 6.49 C55.42 7.54, 56.79 8.7, 58.04 9.96 C59.3 11.21, 60.46 12.58, 61.51 14.02 C62.55 15.45, 63.49 16.98, 64.29 18.56 C65.1 20.14, 65.79 21.81, 66.34 23.49 C66.88 25.18, 67.3 26.93, 67.58 28.68 C67.86 30.43, 67.93 33.11, 68 34 C68.07 34.89, 68.07 33.11, 68 34" stroke="#fff" stroke-width="2" fill="none"></path></g><g stroke-opacity="0.9" fill-opacity="0.9" stroke-linecap="round" transform="translate(1086.1999206542969 169.5999984741211) rotate(0 29.20001220703125 28.400001525878906)"><path d="M58.4 28.4 C58.4 30.04, 58.25 31.71, 57.96 33.33 C57.66 34.95, 57.22 36.57, 56.64 38.11 C56.06 39.66, 55.33 41.18, 54.49 42.6 C53.64 44.02, 52.65 45.4, 51.57 46.66 C50.48 47.91, 49.26 49.1, 47.97 50.16 C46.67 51.21, 45.26 52.17, 43.8 53 C42.34 53.82, 40.78 54.53, 39.19 55.09 C37.6 55.65, 35.94 56.08, 34.27 56.37 C32.61 56.65, 30.89 56.8, 29.2 56.8 C27.51 56.8, 25.79 56.65, 24.13 56.37 C22.46 56.08, 20.8 55.65, 19.21 55.09 C17.62 54.53, 16.06 53.82, 14.6 53 C13.14 52.17, 11.73 51.21, 10.43 50.16 C9.14 49.1, 7.92 47.91, 6.83 46.66 C5.75 45.4, 4.76 44.02, 3.91 42.6 C3.07 41.18, 2.34 39.66, 1.76 38.11 C1.18 36.57, 0.74 34.95, 0.44 33.33 C0.15 31.71, 0 30.04, 0 28.4 C0 26.76, 0.15 25.09, 0.44 23.47 C0.74 21.85, 1.18 20.23, 1.76 18.69 C2.34 17.14, 3.07 15.62, 3.91 14.2 C4.76 12.78, 5.75 11.4, 6.83 10.14 C7.92 8.89, 9.14 7.7, 10.43 6.64 C11.73 5.59, 13.14 4.63, 14.6 3.8 C16.06 2.98, 17.62 2.27, 19.21 1.71 C20.8 1.15, 22.46 0.72, 24.13 0.43 C25.79 0.15, 27.51 0, 29.2 0 C30.89 0, 32.61 0.15, 34.27 0.43 C35.94 0.72, 37.6 1.15, 39.19 1.71 C40.78 2.27, 42.34 2.98, 43.8 3.8 C45.26 4.63, 46.67 5.59, 47.97 6.64 C49.26 7.7, 50.48 8.89, 51.57 10.14 C52.65 11.4, 53.64 12.78, 54.49 14.2 C55.33 15.62, 56.06 17.14, 56.64 18.69 C57.22 20.23, 57.66 21.85, 57.96 23.47 C58.25 25.09, 58.33 27.58, 58.4 28.4 C58.47 29.22, 58.47 27.58, 58.4 28.4" stroke="#fff" stroke-width="1" fill="none"></path></g><g stroke-linecap="round"><g stroke-opacity="0.2" fill-opacity="0.2" transform="translate(10 335.6000671386719) rotate(0 201.59999084472656 -1.2000274658203125)"><path d="M0 0 C67.2 -0.4, 336 -2, 403.2 -2.4 M0 0 C67.2 -0.4, 336 -2, 403.2 -2.4" stroke="#fff" stroke-width="2" fill="none"></path></g></g><g stroke-linecap="round"><g stroke-opacity="0.2" fill-opacity="0.2" transform="translate(304.3999938964844 311.6000061035156) rotate(0 0.399993896484375 24.800003051757812)"><path d="M0 0 C0.13 8.27, 0.67 41.33, 0.8 49.6 M0 0 C0.13 8.27, 0.67 41.33, 0.8 49.6" stroke="#fff" stroke-width="2" fill="none"></path></g></g><g stroke-linecap="round"><g stroke-opacity="0.2" fill-opacity="0.2" transform="translate(270.0000305175781 286.8000183105469) rotate(0 0.399993896484375 53.59999084472656)"><path d="M0 0 C0.13 17.87, 0.67 89.33, 0.8 107.2 M0 0 C0.13 17.87, 0.67 89.33, 0.8 107.2" stroke="#fff" stroke-width="2" fill="none"></path></g></g><g stroke-opacity="0.2" fill-opacity="0.2" stroke-linecap="round" transform="translate(828.3999938964844 274.8000183105469) rotate(0 8 7.5999908447265625)"><path d="M9 0 C11.77 3.17, 14.54 6.34, 16 8 M9 0 C11.6 2.97, 14.2 5.94, 16 8 M16 8 C13.37 10.71, 10.74 13.41, 9 15.2 M16 8 C13.48 10.59, 10.96 13.18, 9 15.2 M9 15.2 C6.11 12.89, 3.22 10.58, 0 8 M9 15.2 C5.74 12.6, 2.49 9.99, 0 8 M0 8 C2.29 5.97, 4.57 3.94, 9 0 M0 8 C2.89 5.43, 5.77 2.87, 9 0" stroke="#fff" stroke-width="1" fill="none"></path></g><g stroke-opacity="0.2" fill-opacity="0.2" stroke-linecap="round" transform="translate(820.3999938964844 318.40000915527344) rotate(0 8 7.5999908447265625)"><path d="M9 0 C11.05 2.34, 13.09 4.68, 16 8 M9 0 C10.55 1.77, 12.1 3.54, 16 8 M16 8 C13.31 10.76, 10.63 13.52, 9 15.2 M16 8 C14.57 9.47, 13.14 10.94, 9 15.2 M9 15.2 C5.95 12.76, 2.91 10.33, 0 8 M9 15.2 C6.61 13.28, 4.21 11.37, 0 8 M0 8 C2.18 6.06, 4.36 4.12, 9 0 M0 8 C1.88 6.33, 3.76 4.66, 9 0" stroke="#fff" stroke-width="1" fill="none"></path></g><g stroke-opacity="0.2" fill-opacity="0.2" stroke-linecap="round" transform="translate(869.3999938964844 302.40000915527344) rotate(0 8 7.5999908447265625)"><path d="M9 0 C11.14 2.45, 13.28 4.89, 16 8 M9 0 C11.32 2.65, 13.64 5.3, 16 8 M16 8 C13.87 10.2, 11.73 12.39, 9 15.2 M16 8 C14.12 9.93, 12.25 11.86, 9 15.2 M9 15.2 C6.45 13.16, 3.91 11.12, 0 8 M9 15.2 C6.36 13.09, 3.72 10.98, 0 8 M0 8 C2.87 5.44, 5.75 2.89, 9 0 M0 8 C2.8 5.51, 5.61 3.02, 9 0" stroke="#fff" stroke-width="1" fill="none"></path></g><g stroke-opacity="0.2" fill-opacity="0.2" stroke-linecap="round" transform="translate(865.3999938964844 341.40000915527344) rotate(0 8 7.5999908447265625)"><path d="M9 0 C11.75 3.14, 14.5 6.28, 16 8 M9 0 C10.41 1.61, 11.82 3.22, 16 8 M16 8 C14.22 9.83, 12.44 11.66, 9 15.2 M16 8 C13.64 10.43, 11.28 12.85, 9 15.2 M9 15.2 C5.9 12.72, 2.8 10.24, 0 8 M9 15.2 C6.25 13, 3.49 10.79, 0 8 M0 8 C3.32 5.05, 6.64 2.1, 9 0 M0 8 C3.47 4.92, 6.94 1.83, 9 0" stroke="#fff" stroke-width="1" fill="none"></path></g><g stroke-opacity="0.2" fill-opacity="0.2" stroke-linecap="round" transform="translate(913.3999938964844 362.40000915527344) rotate(0 8 7.5999908447265625)"><path d="M9 0 C11.66 3.04, 14.31 6.07, 16 8 M9 0 C10.77 2.02, 12.53 4.04, 16 8 M16 8 C13.65 10.42, 11.3 12.83, 9 15.2 M16 8 C13.33 10.74, 10.67 13.49, 9 15.2 M9 15.2 C6.57 13.26, 4.14 11.31, 0 8 M9 15.2 C5.46 12.37, 1.93 9.54, 0 8 M0 8 C2.27 5.98, 4.55 3.96, 9 0 M0 8 C2.08 6.15, 4.16 4.3, 9 0" stroke="#fff" stroke-width="1" fill="none"></path></g><g stroke-opacity="0.2" fill-opacity="0.2" stroke-linecap="round" transform="translate(827.3999938964844 365.40000915527344) rotate(0 8 7.5999908447265625)"><path d="M9 0 C10.93 2.21, 12.86 4.41, 16 8 M9 0 C10.59 1.82, 12.18 3.64, 16 8 M16 8 C13.38 10.7, 10.75 13.4, 9 15.2 M16 8 C13.38 10.7, 10.75 13.4, 9 15.2 M9 15.2 C6.38 13.1, 3.76 11.01, 0 8 M9 15.2 C5.65 12.52, 2.29 9.83, 0 8 M0 8 C2.73 5.57, 5.46 3.14, 9 0 M0 8 C3.33 5.04, 6.65 2.09, 9 0" stroke="#fff" stroke-width="1" fill="none"></path></g><g stroke-opacity="0.2" fill-opacity="0.2" stroke-linecap="round" transform="translate(865.3999938964844 366.40000915527344) rotate(0 8 7.5999908447265625)"><path d="M9 0 C11.63 3.01, 14.26 6.01, 16 8 M9 0 C11.52 2.88, 14.04 5.76, 16 8 M16 8 C13.75 10.31, 11.5 12.62, 9 15.2 M16 8 C13.47 10.6, 10.94 13.21, 9 15.2 M9 15.2 C6.71 13.37, 4.43 11.54, 0 8 M9 15.2 C6.11 12.89, 3.23 10.58, 0 8 M0 8 C2.99 5.34, 5.98 2.68, 9 0 M0 8 C3.35 5.02, 6.7 2.04, 9 0" stroke="#fff" stroke-width="1" fill="none"></path></g><g stroke-opacity="0.2" fill-opacity="0.2" stroke-linecap="round" transform="translate(899.3999938964844 328.40000915527344) rotate(0 8 7.5999908447265625)"><path d="M9 0 C10.48 1.69, 11.96 3.38, 16 8 M9 0 C11.21 2.52, 13.42 5.05, 16 8 M16 8 C13.39 10.68, 10.78 13.37, 9 15.2 M16 8 C14.36 9.69, 12.72 11.38, 9 15.2 M9 15.2 C7 13.6, 5.01 12.01, 0 8 M9 15.2 C6.53 13.23, 4.07 11.25, 0 8 M0 8 C2.38 5.88, 4.76 3.77, 9 0 M0 8 C3.17 5.18, 6.33 2.37, 9 0" stroke="#fff" stroke-width="1" fill="none"></path></g><g stroke-opacity="0.2" fill-opacity="0.2" stroke-linecap="round" transform="translate(776.3999938964844 515.4000091552734) rotate(0 8 7.5999908447265625)"><path d="M9 0 C10.41 1.61, 11.82 3.22, 16 8 M9 0 C11.25 2.57, 13.5 5.14, 16 8 M16 8 C13.31 10.77, 10.61 13.54, 9 15.2 M16 8 C14.29 9.76, 12.58 11.52, 9 15.2 M9 15.2 C5.68 12.55, 2.37 9.89, 0 8 M9 15.2 C6.28 13.03, 3.56 10.85, 0 8 M0 8 C2.14 6.1, 4.28 4.19, 9 0 M0 8 C3.4 4.97, 6.81 1.95, 9 0" stroke="#fff" stroke-width="1" fill="none"></path></g><g stroke-opacity="0.2" fill-opacity="0.2" stroke-linecap="round" transform="translate(725.3999938964844 520.4000091552734) rotate(0 8 7.5999908447265625)"><path d="M9 0 C11.08 2.37, 13.15 4.75, 16 8 M9 0 C11.2 2.51, 13.4 5.03, 16 8 M16 8 C13.51 10.56, 11.02 13.12, 9 15.2 M16 8 C13.3 10.78, 10.59 13.56, 9 15.2 M9 15.2 C6.19 12.95, 3.37 10.7, 0 8 M9 15.2 C5.95 12.76, 2.9 10.32, 0 8 M0 8 C3.51 4.88, 7.02 1.76, 9 0 M0 8 C3.16 5.19, 6.33 2.38, 9 0" stroke="#fff" stroke-width="1" fill="none"></path></g></svg>