<svg version="1.1" xmlns="http://www.w3.org/2000/svg" viewBox="0 0 1239.2000427246094 650.3999786376953" width="1239.2000427246094" height="650.3999786376953">
  <!-- svg-source:excalidraw -->
  
  <defs>
    <style>
      @font-face {
        font-family: "Virgil";
        src: url("https://excalidraw.com/Virgil.woff2");
      }
      @font-face {
        font-family: "Cascadia";
        src: url("https://excalidraw.com/Cascadia.woff2");
      }
    </style>
  </defs>
  <rect x="0" y="0" width="1239.2000427246094" height="650.3999786376953" fill="#310e41"></rect><g stroke-linecap="round" transform="translate(85.20001220703125 197.99998474121094) rotate(0 34.79998779296875 28.400009155273438)"><path d="M0 0 C16.36 0, 32.72 0, 69.6 0 M0 0 C18.62 0, 37.23 0, 69.6 0 M69.6 0 C69.6 15.79, 69.6 31.58, 69.6 56.8 M69.6 0 C69.6 20.93, 69.6 41.87, 69.6 56.8 M69.6 56.8 C55.43 56.8, 41.26 56.8, 0 56.8 M69.6 56.8 C47.97 56.8, 26.35 56.8, 0 56.8 M0 56.8 C0 36.03, 0 15.25, 0 0 M0 56.8 C0 40.17, 0 23.54, 0 0" stroke="#fff" stroke-width="1" fill="none"></path></g><g stroke-linecap="round" transform="translate(114.79998779296875 212.40000915527344) rotate(0 38.80000305175781 31.599990844726562)"><path d="M0 0 C26.98 0, 53.95 0, 77.6 0 M0 0 C29.32 0, 58.64 0, 77.6 0 M77.6 0 C77.6 12.98, 77.6 25.96, 77.6 63.2 M77.6 0 C77.6 16.65, 77.6 33.31, 77.6 63.2 M77.6 63.2 C55.96 63.2, 34.33 63.2, 0 63.2 M77.6 63.2 C48.75 63.2, 19.9 63.2, 0 63.2 M0 63.2 C0 45.09, 0 26.98, 0 0 M0 63.2 C0 47.46, 0 31.72, 0 0" stroke="#fff" stroke-width="1" fill="none"></path></g><g stroke-linecap="round" transform="translate(140.39999389648438 237.99998474121094) rotate(0 54 41.600006103515625)"><path d="M0 0 C39.37 0, 78.74 0, 108 0 M0 0 C25.83 0, 51.65 0, 108 0 M108 0 C108 29.34, 108 58.69, 108 83.2 M108 0 C108 32.73, 108 65.46, 108 83.2 M108 83.2 C71.1 83.2, 34.2 83.2, 0 83.2 M108 83.2 C74.26 83.2, 40.52 83.2, 0 83.2 M0 83.2 C0 57.57, 0 31.94, 0 0 M0 83.2 C0 61.59, 0 39.98, 0 0" stroke="#fff" stroke-width="1" fill="none"></path></g><g stroke-linecap="round" transform="translate(1035.6000671386719 39.59999084472656) rotate(0 68.39996337890625 60)"><path d="M136.8 60 C136.8 62.41, 136.63 64.84, 136.3 67.23 C135.97 69.63, 135.47 72.02, 134.81 74.36 C134.15 76.7, 133.33 79.02, 132.36 81.28 C131.38 83.53, 130.24 85.75, 128.97 87.88 C127.69 90.02, 126.25 92.1, 124.69 94.08 C123.13 96.07, 121.42 97.98, 119.6 99.79 C117.78 101.59, 115.81 103.31, 113.76 104.91 C111.7 106.51, 109.52 108.01, 107.26 109.38 C104.99 110.75, 102.62 112.01, 100.19 113.13 C97.75 114.25, 95.22 115.25, 92.65 116.1 C90.09 116.96, 87.44 117.68, 84.77 118.26 C82.1 118.83, 79.37 119.27, 76.64 119.56 C73.92 119.85, 71.15 120, 68.4 120 C65.65 120, 62.88 119.85, 60.16 119.56 C57.43 119.27, 54.7 118.83, 52.03 118.26 C49.36 117.68, 46.71 116.96, 44.15 116.1 C41.58 115.25, 39.05 114.25, 36.61 113.13 C34.18 112.01, 31.81 110.75, 29.54 109.38 C27.28 108.01, 25.1 106.51, 23.04 104.91 C20.99 103.31, 19.02 101.59, 17.2 99.79 C15.38 97.98, 13.67 96.07, 12.11 94.08 C10.55 92.1, 9.11 90.02, 7.83 87.88 C6.56 85.75, 5.42 83.53, 4.44 81.28 C3.47 79.02, 2.65 76.7, 1.99 74.36 C1.33 72.02, 0.83 69.63, 0.5 67.23 C0.17 64.84, 0 62.41, 0 60 C0 57.59, 0.17 55.16, 0.5 52.77 C0.83 50.37, 1.33 47.98, 1.99 45.64 C2.65 43.3, 3.47 40.98, 4.44 38.72 C5.42 36.47, 6.56 34.25, 7.83 32.12 C9.11 29.98, 10.55 27.9, 12.11 25.92 C13.67 23.93, 15.38 22.02, 17.2 20.21 C19.02 18.41, 20.99 16.69, 23.04 15.09 C25.1 13.49, 27.28 11.99, 29.54 10.62 C31.81 9.25, 34.18 7.99, 36.61 6.87 C39.05 5.75, 41.58 4.75, 44.15 3.9 C46.71 3.04, 49.36 2.32, 52.03 1.74 C54.7 1.17, 57.43 0.73, 60.16 0.44 C62.88 0.15, 65.65 0, 68.4 0 C71.15 0, 73.92 0.15, 76.64 0.44 C79.37 0.73, 82.1 1.17, 84.77 1.74 C87.44 2.32, 90.09 3.04, 92.65 3.9 C95.22 4.75, 97.75 5.75, 100.19 6.87 C102.62 7.99, 104.99 9.25, 107.26 10.62 C109.52 11.99, 111.7 13.49, 113.76 15.09 C115.81 16.69, 117.78 18.41, 119.6 20.21 C121.42 22.02, 123.13 23.93, 124.69 25.92 C126.25 27.9, 127.69 29.98, 128.97 32.12 C130.24 34.25, 131.38 36.47, 132.36 38.72 C133.33 40.98, 134.15 43.3, 134.81 45.64 C135.47 47.98, 135.97 50.37, 136.3 52.77 C136.63 55.16, 136.8 57.59, 136.8 60" stroke="#fff" stroke-width="1" fill="none"></path></g><g stroke-linecap="round" transform="translate(1003.5999450683594 102.79998779296875) rotate(0 53.20001220703125 54.80001449584961)"><path d="M106.4 54.8 C106.4 57.18, 106.25 59.59, 105.94 61.95 C105.64 64.32, 105.19 66.68, 104.59 68.98 C103.99 71.29, 103.24 73.57, 102.35 75.77 C101.46 77.97, 100.43 80.14, 99.27 82.2 C98.12 84.26, 96.82 86.27, 95.41 88.16 C94 90.05, 92.45 91.86, 90.82 93.55 C89.18 95.24, 87.42 96.82, 85.59 98.28 C83.75 99.73, 81.8 101.07, 79.8 102.26 C77.8 103.45, 75.7 104.52, 73.56 105.43 C71.42 106.34, 69.2 107.12, 66.97 107.73 C64.73 108.35, 62.44 108.82, 60.14 109.13 C57.85 109.44, 55.51 109.6, 53.2 109.6 C50.89 109.6, 48.55 109.44, 46.26 109.13 C43.96 108.82, 41.67 108.35, 39.43 107.73 C37.2 107.12, 34.98 106.34, 32.84 105.43 C30.7 104.52, 28.6 103.45, 26.6 102.26 C24.6 101.07, 22.65 99.73, 20.81 98.28 C18.98 96.82, 17.22 95.24, 15.58 93.55 C13.95 91.86, 12.4 90.05, 10.99 88.16 C9.58 86.27, 8.28 84.26, 7.13 82.2 C5.97 80.14, 4.94 77.97, 4.05 75.77 C3.16 73.57, 2.41 71.29, 1.81 68.98 C1.21 66.68, 0.76 64.32, 0.46 61.95 C0.15 59.59, 0 57.18, 0 54.8 C0 52.42, 0.15 50.01, 0.46 47.65 C0.76 45.28, 1.21 42.92, 1.81 40.62 C2.41 38.31, 3.16 36.03, 4.05 33.83 C4.94 31.63, 5.97 29.46, 7.13 27.4 C8.28 25.34, 9.58 23.33, 10.99 21.44 C12.4 19.55, 13.95 17.74, 15.58 16.05 C17.22 14.36, 18.98 12.78, 20.81 11.32 C22.65 9.87, 24.6 8.53, 26.6 7.34 C28.6 6.15, 30.7 5.08, 32.84 4.17 C34.98 3.26, 37.2 2.48, 39.43 1.87 C41.67 1.25, 43.96 0.78, 46.26 0.47 C48.55 0.16, 50.89 0, 53.2 0 C55.51 0, 57.85 0.16, 60.14 0.47 C62.44 0.78, 64.73 1.25, 66.97 1.87 C69.2 2.48, 71.42 3.26, 73.56 4.17 C75.7 5.08, 77.8 6.15, 79.8 7.34 C81.8 8.53, 83.75 9.87, 85.59 11.32 C87.42 12.78, 89.18 14.36, 90.82 16.05 C92.45 17.74, 94 19.55, 95.41 21.44 C96.82 23.33, 98.12 25.34, 99.27 27.4 C100.43 29.46, 101.46 31.63, 102.35 33.83 C103.24 36.03, 103.99 38.31, 104.59 40.62 C105.19 42.92, 105.64 45.28, 105.94 47.65 C106.25 50.01, 106.32 53.61, 106.4 54.8 C106.48 55.99, 106.48 53.61, 106.4 54.8" stroke="#fff" stroke-width="2" fill="none"></path></g><g stroke-linecap="round" transform="translate(949.2000427246094 133.19996643066406) rotate(0 45.5999755859375 46.40000915527344)"><path d="M91.2 46.4 C91.2 48.6, 91.04 50.82, 90.74 53 C90.43 55.18, 89.96 57.36, 89.35 59.47 C88.74 61.58, 87.98 63.67, 87.08 65.68 C86.18 67.68, 85.13 69.63, 83.96 71.49 C82.79 73.34, 81.48 75.12, 80.06 76.79 C78.65 78.45, 77.1 80.03, 75.46 81.47 C73.83 82.91, 72.07 84.24, 70.25 85.43 C68.43 86.62, 66.51 87.69, 64.54 88.61 C62.58 89.52, 60.52 90.3, 58.45 90.92 C56.37 91.54, 54.23 92.01, 52.09 92.33 C49.95 92.64, 47.76 92.8, 45.6 92.8 C43.44 92.8, 41.25 92.64, 39.11 92.33 C36.97 92.01, 34.83 91.54, 32.75 90.92 C30.68 90.3, 28.62 89.52, 26.66 88.61 C24.69 87.69, 22.77 86.62, 20.95 85.43 C19.13 84.24, 17.37 82.91, 15.74 81.47 C14.1 80.03, 12.55 78.45, 11.14 76.79 C9.72 75.12, 8.41 73.34, 7.24 71.49 C6.07 69.63, 5.02 67.68, 4.12 65.68 C3.22 63.67, 2.46 61.58, 1.85 59.47 C1.24 57.36, 0.77 55.18, 0.46 53 C0.16 50.82, 0 48.6, 0 46.4 C0 44.2, 0.16 41.98, 0.46 39.8 C0.77 37.62, 1.24 35.44, 1.85 33.33 C2.46 31.22, 3.22 29.13, 4.12 27.12 C5.02 25.12, 6.07 23.17, 7.24 21.31 C8.41 19.46, 9.72 17.68, 11.14 16.01 C12.55 14.35, 14.1 12.77, 15.74 11.33 C17.37 9.89, 19.13 8.56, 20.95 7.37 C22.77 6.18, 24.69 5.11, 26.66 4.19 C28.62 3.28, 30.68 2.5, 32.75 1.88 C34.83 1.26, 36.97 0.79, 39.11 0.47 C41.25 0.16, 43.44 0, 45.6 0 C47.76 0, 49.95 0.16, 52.09 0.47 C54.23 0.79, 56.37 1.26, 58.45 1.88 C60.52 2.5, 62.58 3.28, 64.54 4.19 C66.51 5.11, 68.43 6.18, 70.25 7.37 C72.07 8.56, 73.83 9.89, 75.46 11.33 C77.1 12.77, 78.65 14.35, 80.06 16.01 C81.48 17.68, 82.79 19.46, 83.96 21.31 C85.13 23.17, 86.18 25.12, 87.08 27.12 C87.98 29.13, 88.74 31.22, 89.35 33.33 C89.96 35.44, 90.43 37.62, 90.74 39.8 C91.04 41.98, 91.12 45.3, 91.2 46.4 C91.28 47.5, 91.28 45.3, 91.2 46.4" stroke="#fff" stroke-width="4" fill="none"></path></g><g stroke-opacity="0.4" fill-opacity="0.4" stroke-linecap="round" transform="translate(402.7999572753906 151.5999755859375) rotate(0 146.4000244140625 100.79999542236328)"><path d="M0 0 C82.29 0, 164.58 0, 292.8 0 M0 0 C92.32 0, 184.63 0, 292.8 0 M292.8 0 C292.8 58.11, 292.8 116.22, 292.8 201.6 M292.8 0 C292.8 55.79, 292.8 111.59, 292.8 201.6 M292.8 201.6 C201.09 201.6, 109.39 201.6, 0 201.6 M292.8 201.6 C215.88 201.6, 138.95 201.6, 0 201.6 M0 201.6 C0 125.28, 0 48.96, 0 0 M0 201.6 C0 142.48, 0 83.36, 0 0" stroke="#fff" stroke-width="2" fill="none"></path></g><g stroke-linecap="round" transform="translate(504.4000549316406 305.19996643066406) rotate(0 162.39999389648438 74.40000915527344)"><path d="M0 0 C128.53 0, 257.06 0, 324.8 0 M0 0 C96.84 0, 193.68 0, 324.8 0 M324.8 0 C324.8 43.24, 324.8 86.47, 324.8 148.8 M324.8 0 C324.8 37.24, 324.8 74.48, 324.8 148.8 M324.8 148.8 C231.38 148.8, 137.97 148.8, 0 148.8 M324.8 148.8 C204.15 148.8, 83.5 148.8, 0 148.8 M0 148.8 C0 93.16, 0 37.52, 0 0 M0 148.8 C0 101.04, 0 53.28, 0 0" stroke="#fff" stroke-width="1" fill="none"></path></g><g stroke-linecap="round" transform="translate(614.8000183105469 104.4000244140625) rotate(0 60.399993896484375 63.19999694824219)"><path d="M61 0 C75 14.98, 88.99 29.96, 120.8 64 M61 0 C74.96 14.94, 88.92 29.88, 120.8 64 M120.8 64 C104.25 81.27, 87.7 98.54, 61 126.4 M120.8 64 C100.2 85.5, 79.6 106.99, 61 126.4 M61 126.4 C36.92 101.76, 12.83 77.13, 0 64 M61 126.4 C36.71 101.55, 12.41 76.7, 0 64 M0 64 C18.1 45.01, 36.21 26.01, 61 0 M0 64 C15.48 47.76, 30.97 31.51, 61 0" stroke="#fff" stroke-width="1" fill="none"></path></g><g stroke-linecap="round" transform="translate(690.0000915527344 77.20001983642578) rotate(0 60.800018310546875 65.99999618530273)"><path d="M61 0 C83.93 24.98, 106.87 49.95, 121.6 66 M61 0 C85.03 26.17, 109.06 52.34, 121.6 66 M121.6 66 C104.64 84.48, 87.67 102.95, 61 132 M121.6 66 C107.93 80.89, 94.26 95.78, 61 132 M61 132 C47.75 117.67, 34.51 103.34, 0 66 M61 132 C43.68 113.26, 26.36 94.52, 0 66 M0 66 C15.55 49.18, 31.09 32.36, 61 0 M0 66 C22.84 41.29, 45.67 16.58, 61 0" stroke="#fff" stroke-width="1" fill="none"></path></g><g stroke-opacity="0.8" fill-opacity="0.8" transform="translate(30.79998779296875 49.199989318847656) rotate(0 50.80000305175781 -3.5999908447265625)" stroke="none" fill="#fff"><path d="M 0,-1.81 Q 0,-1.81 4.14,-1.74 8.28,-1.67 14.86,-1.62 21.45,-1.57 31.14,-1.77 40.82,-1.96 51.13,-2.49 61.44,-3.02 69.47,-3.93 77.50,-4.83 83.18,-5.89 88.87,-6.96 92.02,-7.41 95.18,-7.87 98.03,-8.26 100.89,-8.65 101.14,-8.64 101.38,-8.62 101.61,-8.52 101.84,-8.43 102.02,-8.27 102.21,-8.11 102.33,-7.89 102.45,-7.68 102.50,-7.44 102.55,-7.20 102.52,-6.96 102.49,-6.71 102.38,-6.49 102.28,-6.27 102.10,-6.10 101.93,-5.92 101.71,-5.81 101.50,-5.70 101.25,-5.66 101.01,-5.63 100.77,-5.67 100.53,-5.71 100.31,-5.83 100.10,-5.95 99.93,-6.13 99.77,-6.31 99.67,-6.54 99.57,-6.76 99.54,-7.00 99.52,-7.25 99.58,-7.49 99.63,-7.73 99.76,-7.93 99.89,-8.14 100.08,-8.30 100.27,-8.45 100.50,-8.54 100.73,-8.63 100.98,-8.64 101.22,-8.65 101.46,-8.58 101.69,-8.51 101.89,-8.37 102.09,-8.23 102.24,-8.03 102.39,-7.83 102.46,-7.60 102.53,-7.36 102.53,-7.12 102.53,-6.87 102.45,-6.64 102.36,-6.41 102.21,-6.22 102.06,-6.03 101.85,-5.89 101.65,-5.76 101.41,-5.69 101.17,-5.63 101.18,-5.63 101.18,-5.63 98.37,-5.40 95.57,-5.16 92.48,-4.70 89.38,-4.23 83.60,-3.12 77.83,-2.02 69.71,-1.07 61.60,-0.12 51.24,0.46 40.89,1.04 31.17,1.31 21.45,1.57 14.86,1.62 8.28,1.67 4.14,1.74 0,1.81 -0.21,1.78 -0.43,1.75 -0.63,1.68 -0.84,1.60 -1.02,1.47 -1.20,1.35 -1.34,1.19 -1.49,1.02 -1.59,0.83 -1.69,0.64 -1.74,0.43 -1.79,0.21 -1.79,-0.00 -1.79,-0.21 -1.74,-0.43 -1.69,-0.64 -1.59,-0.83 -1.49,-1.02 -1.34,-1.19 -1.20,-1.35 -1.02,-1.47 -0.84,-1.60 -0.63,-1.68 -0.43,-1.75 -0.21,-1.78 0.00,-1.81 0.00,-1.81 L 0,-1.81 Z"></path></g><g stroke-opacity="0.7" fill-opacity="0.7" transform="translate(65.20001220703125 37.199989318847656) rotate(0 55.19999694824219 0.4000091552734375)" stroke="none" fill="#fff"><path d="M 0,-1.56 Q 0,-1.56 2.98,-1.52 5.97,-1.49 10.47,-1.46 14.96,-1.44 20.78,-1.42 26.59,-1.40 32.75,-1.39 38.90,-1.38 45.65,-1.37 52.41,-1.36 59.65,-1.35 66.89,-1.34 73.42,-1.34 79.95,-1.33 85.51,-1.10 91.07,-0.87 95.48,-0.77 99.89,-0.67 102.68,-0.62 105.48,-0.58 107.50,-0.66 109.52,-0.74 109.77,-0.70 110.01,-0.65 110.23,-0.53 110.45,-0.42 110.61,-0.23 110.78,-0.05 110.88,0.17 110.99,0.39 111.01,0.64 111.03,0.89 110.98,1.13 110.92,1.37 110.79,1.58 110.66,1.79 110.47,1.95 110.28,2.11 110.05,2.20 109.81,2.29 109.57,2.30 109.32,2.31 109.08,2.24 108.84,2.17 108.64,2.03 108.43,1.88 108.29,1.68 108.14,1.49 108.06,1.25 107.99,1.01 107.99,0.76 107.99,0.52 108.08,0.28 108.16,0.05 108.31,-0.14 108.46,-0.33 108.67,-0.47 108.88,-0.61 109.12,-0.67 109.36,-0.73 109.60,-0.72 109.85,-0.70 110.08,-0.60 110.31,-0.51 110.50,-0.35 110.68,-0.18 110.81,0.02 110.93,0.23 110.98,0.48 111.04,0.72 111.01,0.97 110.98,1.21 110.87,1.44 110.76,1.66 110.59,1.84 110.42,2.02 110.19,2.13 109.97,2.24 109.73,2.28 109.48,2.32 109.48,2.32 109.48,2.32 107.46,2.19 105.44,2.06 102.63,2.02 99.83,1.98 95.39,1.88 90.96,1.79 85.45,1.56 79.95,1.33 73.42,1.34 66.89,1.34 59.65,1.35 52.41,1.36 45.65,1.37 38.90,1.38 32.75,1.39 26.59,1.40 20.78,1.42 14.96,1.44 10.47,1.46 5.97,1.49 2.98,1.52 0,1.56 -0.18,1.53 -0.37,1.51 -0.54,1.45 -0.72,1.38 -0.88,1.27 -1.03,1.16 -1.16,1.02 -1.28,0.88 -1.37,0.72 -1.46,0.55 -1.50,0.37 -1.55,0.18 -1.55,-0.00 -1.55,-0.18 -1.50,-0.37 -1.46,-0.55 -1.37,-0.72 -1.28,-0.88 -1.16,-1.02 -1.03,-1.16 -0.88,-1.27 -0.72,-1.38 -0.54,-1.45 -0.37,-1.51 -0.18,-1.53 0.00,-1.56 0.00,-1.56 L 0,-1.56 Z"></path></g><g transform="translate(108.39999389648438 25.199996948242188) rotate(0 19.600006103515625 -0.40000152587890625)" stroke="none" fill="#fff"><path d="M 0,-2.03 Q 0,-2.03 3.22,-1.93 6.44,-1.84 10.33,-1.76 14.23,-1.69 17.73,-1.64 21.23,-1.59 24.32,-1.55 27.42,-1.51 29.88,-1.48 32.35,-1.46 33.86,-1.55 35.37,-1.64 36.95,-2.02 38.53,-2.39 38.81,-2.42 39.08,-2.44 39.35,-2.37 39.62,-2.31 39.86,-2.16 40.09,-2.01 40.26,-1.80 40.44,-1.58 40.54,-1.32 40.63,-1.06 40.64,-0.79 40.65,-0.51 40.57,-0.24 40.49,0.01 40.33,0.24 40.17,0.46 39.94,0.63 39.72,0.79 39.45,0.87 39.19,0.95 38.91,0.95 38.63,0.94 38.37,0.84 38.11,0.75 37.90,0.58 37.68,0.40 37.53,0.17 37.38,-0.05 37.31,-0.32 37.25,-0.59 37.27,-0.87 37.29,-1.14 37.40,-1.40 37.51,-1.65 37.69,-1.86 37.87,-2.06 38.12,-2.20 38.36,-2.34 38.63,-2.39 38.90,-2.44 39.17,-2.41 39.45,-2.37 39.70,-2.25 39.95,-2.13 40.14,-1.93 40.34,-1.74 40.46,-1.49 40.59,-1.24 40.62,-0.97 40.66,-0.69 40.61,-0.42 40.56,-0.15 40.42,0.08 40.29,0.32 40.08,0.51 39.88,0.70 39.62,0.81 39.37,0.92 39.37,0.92 39.37,0.92 37.37,1.28 35.37,1.64 33.86,1.55 32.35,1.46 29.88,1.48 27.42,1.51 24.32,1.55 21.23,1.59 17.73,1.64 14.23,1.69 10.33,1.76 6.44,1.84 3.22,1.93 0,2.03 -0.24,2.00 -0.48,1.97 -0.71,1.88 -0.94,1.79 -1.14,1.66 -1.34,1.52 -1.51,1.33 -1.67,1.15 -1.78,0.93 -1.90,0.72 -1.95,0.48 -2.01,0.24 -2.01,-0.00 -2.01,-0.24 -1.95,-0.48 -1.90,-0.72 -1.78,-0.93 -1.67,-1.15 -1.51,-1.33 -1.34,-1.52 -1.14,-1.66 -0.94,-1.79 -0.71,-1.88 -0.48,-1.97 -0.24,-2.00 0.00,-2.03 0.00,-2.03 L 0,-2.03 Z"></path></g><g stroke-opacity="0.2" fill-opacity="0.2" transform="translate(40.399993896484375 90) rotate(0 54 -20.400005340576172)" stroke="none" fill="#fff"><path d="M -0.69,-1.39 Q -0.69,-1.39 3.45,-3.43 7.61,-5.47 12.84,-7.94 18.07,-10.42 24.92,-13.31 31.77,-16.21 39.06,-19.04 46.35,-21.88 52.87,-24.68 59.39,-27.48 64.02,-29.37 68.66,-31.25 72.02,-32.52 75.38,-33.78 78.40,-35.00 81.42,-36.22 85.08,-37.22 88.74,-38.22 92.63,-38.88 96.52,-39.54 99.29,-40.05 102.06,-40.55 104.31,-41.28 106.56,-42.01 106.81,-42.04 107.06,-42.07 107.30,-42.01 107.55,-41.95 107.76,-41.82 107.98,-41.69 108.14,-41.50 108.30,-41.31 108.39,-41.07 108.48,-40.84 108.50,-40.59 108.51,-40.34 108.44,-40.10 108.37,-39.86 108.23,-39.65 108.09,-39.44 107.88,-39.29 107.68,-39.14 107.45,-39.06 107.21,-38.98 106.96,-38.98 106.70,-38.99 106.47,-39.07 106.23,-39.15 106.03,-39.30 105.83,-39.45 105.69,-39.66 105.55,-39.87 105.49,-40.11 105.42,-40.36 105.44,-40.61 105.45,-40.86 105.55,-41.09 105.64,-41.32 105.80,-41.51 105.97,-41.71 106.18,-41.83 106.40,-41.96 106.64,-42.01 106.89,-42.07 107.14,-42.04 107.39,-42.01 107.62,-41.90 107.84,-41.80 108.03,-41.62 108.21,-41.45 108.32,-41.22 108.44,-41.00 108.48,-40.75 108.52,-40.51 108.48,-40.26 108.43,-40.01 108.31,-39.79 108.19,-39.57 108.01,-39.40 107.83,-39.23 107.60,-39.12 107.37,-39.02 107.37,-39.02 107.37,-39.02 104.95,-38.48 102.53,-37.95 99.75,-37.44 96.96,-36.93 93.20,-36.30 89.44,-35.66 85.93,-34.71 82.41,-33.75 79.37,-32.51 76.33,-31.28 73.00,-30.02 69.68,-28.76 65.07,-26.87 60.47,-24.98 53.91,-22.14 47.36,-19.31 40.12,-16.46 32.87,-13.61 26.10,-10.71 19.32,-7.81 14.13,-5.30 8.94,-2.80 4.82,-0.70 0.69,1.39 0.52,1.46 0.34,1.52 0.15,1.54 -0.03,1.56 -0.21,1.53 -0.40,1.50 -0.57,1.43 -0.75,1.36 -0.90,1.25 -1.05,1.14 -1.18,1.00 -1.30,0.86 -1.38,0.69 -1.47,0.52 -1.51,0.34 -1.55,0.15 -1.55,-0.03 -1.54,-0.21 -1.49,-0.40 -1.44,-0.58 -1.35,-0.74 -1.26,-0.91 -1.14,-1.05 -1.01,-1.18 -0.85,-1.29 -0.69,-1.39 -0.69,-1.39 L -0.69,-1.39 Z"></path></g><g transform="translate(74 57.199989318847656) rotate(0 50 1.2000007629394531)" stroke="none" fill="#fff"><path d="M 0,-1.56 Q 0,-1.56 5.52,-1.52 11.04,-1.49 17.57,-1.00 24.11,-0.52 31.46,-0.07 38.80,0.36 45.59,0.55 52.37,0.75 58.01,0.83 63.66,0.92 68.13,0.96 72.59,1.00 75.87,1.02 79.15,1.03 81.69,1.04 84.24,1.05 86.70,1.06 89.16,1.06 91.35,1.07 93.55,1.07 96.48,0.99 99.42,0.92 99.65,0.95 99.89,0.99 100.10,1.11 100.31,1.22 100.48,1.39 100.64,1.57 100.74,1.78 100.84,2.00 100.87,2.24 100.89,2.48 100.84,2.71 100.79,2.94 100.67,3.15 100.54,3.35 100.36,3.51 100.18,3.66 99.96,3.75 99.73,3.84 99.50,3.85 99.26,3.87 99.03,3.80 98.80,3.74 98.60,3.60 98.40,3.47 98.25,3.28 98.11,3.09 98.03,2.86 97.96,2.63 97.96,2.39 97.96,2.16 98.03,1.93 98.11,1.70 98.26,1.51 98.40,1.32 98.60,1.19 98.80,1.05 99.03,0.99 99.26,0.92 99.50,0.94 99.74,0.95 99.96,1.04 100.18,1.13 100.36,1.28 100.54,1.44 100.67,1.64 100.79,1.85 100.84,2.08 100.89,2.32 100.87,2.55 100.84,2.79 100.74,3.01 100.64,3.23 100.48,3.40 100.31,3.57 100.10,3.68 99.89,3.80 99.65,3.84 99.42,3.87 99.42,3.87 99.42,3.87 96.48,3.80 93.55,3.72 91.35,3.72 89.16,3.72 86.69,3.72 84.23,3.72 81.69,3.72 79.14,3.71 75.86,3.71 72.57,3.70 68.10,3.67 63.62,3.64 57.96,3.58 52.30,3.51 45.47,3.34 38.64,3.17 31.27,2.76 23.90,2.36 17.47,1.92 11.03,1.49 5.51,1.52 0,1.56 -0.18,1.53 -0.37,1.51 -0.54,1.45 -0.72,1.38 -0.88,1.27 -1.03,1.16 -1.16,1.02 -1.28,0.88 -1.37,0.72 -1.46,0.55 -1.50,0.37 -1.55,0.18 -1.55,-0.00 -1.55,-0.18 -1.50,-0.37 -1.46,-0.55 -1.37,-0.72 -1.28,-0.88 -1.16,-1.02 -1.03,-1.16 -0.88,-1.27 -0.72,-1.38 -0.54,-1.45 -0.37,-1.51 -0.18,-1.53 0.00,-1.56 0.00,-1.56 L 0,-1.56 Z"></path></g><g stroke-opacity="0.9" fill-opacity="0.9" transform="translate(70.79998779296875 94) rotate(0 113.19999694824219 -19.20000457763672)" stroke="none" fill="#fff"><path d="M -0.09,-1.55 Q -0.09,-1.55 3.82,-1.75 7.73,-1.95 15.61,-2.25 23.50,-2.55 34.66,-3.13 45.81,-3.72 61.30,-6.02 76.80,-8.33 94.66,-11.60 112.52,-14.88 128.14,-18.33 143.77,-21.79 155.93,-24.63 168.10,-27.48 176.95,-29.61 185.80,-31.74 192.34,-33.11 198.88,-34.47 203.72,-35.51 208.56,-36.55 212.69,-37.45 216.81,-38.35 220.65,-39.03 224.49,-39.71 224.75,-39.71 225.00,-39.70 225.24,-39.62 225.48,-39.53 225.68,-39.37 225.88,-39.22 226.02,-39.00 226.16,-38.79 226.22,-38.54 226.29,-38.29 226.27,-38.04 226.25,-37.78 226.15,-37.55 226.05,-37.31 225.88,-37.12 225.71,-36.93 225.49,-36.80 225.27,-36.68 225.02,-36.63 224.77,-36.58 224.52,-36.61 224.26,-36.64 224.03,-36.76 223.80,-36.87 223.62,-37.05 223.44,-37.23 223.33,-37.45 223.21,-37.68 223.17,-37.93 223.14,-38.19 223.18,-38.44 223.23,-38.69 223.36,-38.91 223.48,-39.13 223.67,-39.31 223.86,-39.48 224.09,-39.58 224.32,-39.68 224.58,-39.70 224.83,-39.73 225.08,-39.67 225.33,-39.61 225.54,-39.47 225.76,-39.33 225.92,-39.14 226.08,-38.94 226.17,-38.70 226.26,-38.46 226.27,-38.21 226.28,-37.95 226.21,-37.71 226.13,-37.46 225.98,-37.25 225.84,-37.05 225.63,-36.90 225.42,-36.75 225.18,-36.67 224.94,-36.59 224.94,-36.59 224.94,-36.59 221.16,-36.18 217.37,-35.77 213.25,-34.87 209.12,-33.96 204.27,-32.92 199.43,-31.88 192.92,-30.51 186.42,-29.15 177.56,-27.01 168.71,-24.87 156.53,-22.01 144.35,-19.15 128.68,-15.67 113.01,-12.19 95.11,-8.89 77.20,-5.59 61.59,-3.25 45.97,-0.90 34.79,-0.28 23.62,0.32 15.76,0.67 7.90,1.03 3.99,1.29 0.09,1.55 -0.09,1.54 -0.28,1.53 -0.46,1.47 -0.64,1.42 -0.80,1.32 -0.96,1.22 -1.09,1.09 -1.23,0.96 -1.32,0.80 -1.42,0.63 -1.48,0.45 -1.53,0.27 -1.54,0.09 -1.55,-0.09 -1.52,-0.28 -1.49,-0.46 -1.41,-0.63 -1.33,-0.81 -1.21,-0.95 -1.10,-1.10 -0.95,-1.22 -0.80,-1.33 -0.63,-1.41 -0.46,-1.49 -0.27,-1.52 -0.09,-1.55 -0.09,-1.55 L -0.09,-1.55 Z"></path></g><g stroke-opacity="0.3" fill-opacity="0.3" transform="translate(108.39999389648438 75.59999084472656) rotate(0 80 -2.4000015258789062)" stroke="none" fill="#fff"><path d="M -0.20,-1.54 Q -0.20,-1.54 3.24,-1.97 6.70,-2.40 10.95,-2.80 15.20,-3.20 20.23,-3.60 25.26,-3.99 30.62,-4.38 35.98,-4.78 40.58,-4.94 45.18,-5.10 50.13,-5.17 55.08,-5.24 60.86,-5.26 66.65,-5.29 72.58,-5.07 78.51,-4.85 84.06,-4.29 89.60,-3.73 93.97,-3.50 98.35,-3.26 101.82,-3.16 105.28,-3.06 107.68,-3.02 110.07,-2.98 112.23,-2.96 114.40,-2.94 117.16,-2.93 119.92,-2.92 122.70,-2.92 125.48,-2.92 127.81,-2.91 130.15,-2.91 131.60,-3.02 133.05,-3.13 134.36,-3.24 135.66,-3.34 137.01,-3.51 138.36,-3.67 140.05,-3.81 141.74,-3.94 143.07,-3.96 144.41,-3.99 145.72,-4.20 147.03,-4.41 148.24,-4.74 149.46,-5.06 150.60,-5.27 151.74,-5.47 153.72,-5.96 155.70,-6.45 157.40,-6.91 159.09,-7.38 159.53,-7.39 159.97,-7.40 160.39,-7.27 160.80,-7.15 161.16,-6.89 161.52,-6.64 161.77,-6.28 162.03,-5.93 162.16,-5.51 162.29,-5.09 162.28,-4.65 162.26,-4.21 162.11,-3.80 161.96,-3.39 161.69,-3.05 161.42,-2.71 161.05,-2.47 160.68,-2.24 160.26,-2.13 159.83,-2.02 159.39,-2.06 158.96,-2.09 158.56,-2.26 158.15,-2.44 157.83,-2.73 157.50,-3.02 157.28,-3.40 157.07,-3.78 156.98,-4.21 156.90,-4.64 156.96,-5.08 157.02,-5.51 157.21,-5.90 157.41,-6.29 157.71,-6.60 158.02,-6.91 158.42,-7.11 158.81,-7.30 159.24,-7.36 159.67,-7.42 160.10,-7.34 160.54,-7.26 160.92,-7.05 161.30,-6.83 161.59,-6.51 161.88,-6.18 162.06,-5.78 162.23,-5.38 162.27,-4.94 162.30,-4.50 162.20,-4.08 162.09,-3.65 161.86,-3.29 161.62,-2.92 161.28,-2.64 160.94,-2.37 160.53,-2.21 160.12,-2.06 160.12,-2.06 160.12,-2.06 157.39,-1.58 154.66,-1.10 152.64,-0.73 150.62,-0.36 149.19,-0.03 147.76,0.29 146.09,0.54 144.42,0.79 143.08,0.76 141.74,0.74 140.05,0.61 138.36,0.47 137.01,0.30 135.66,0.14 134.36,0.04 133.05,-0.06 131.60,-0.17 130.15,-0.28 127.81,-0.28 125.48,-0.28 122.69,-0.29 119.91,-0.29 117.14,-0.30 114.38,-0.30 112.20,-0.32 110.02,-0.34 107.62,-0.38 105.21,-0.42 101.71,-0.52 98.21,-0.62 93.77,-0.86 89.33,-1.09 83.87,-1.64 78.42,-2.18 72.54,-2.40 66.66,-2.61 60.89,-2.57 55.12,-2.54 50.20,-2.46 45.28,-2.38 40.74,-2.20 36.19,-2.02 30.84,-1.60 25.49,-1.18 20.49,-0.76 15.49,-0.33 11.29,0.11 7.09,0.56 3.65,1.05 0.20,1.54 0.01,1.55 -0.17,1.55 -0.35,1.50 -0.53,1.46 -0.70,1.38 -0.87,1.29 -1.01,1.17 -1.15,1.04 -1.26,0.89 -1.37,0.74 -1.44,0.56 -1.51,0.39 -1.53,0.20 -1.56,0.01 -1.54,-0.16 -1.52,-0.35 -1.45,-0.53 -1.39,-0.70 -1.28,-0.86 -1.18,-1.02 -1.04,-1.14 -0.90,-1.27 -0.73,-1.36 -0.57,-1.45 -0.38,-1.50 -0.20,-1.54 -0.20,-1.54 L -0.20,-1.54 Z"></path></g><g transform="translate(201.20001220703125 46.79999542236328) rotate(0 15.999984741210938 -0.399993896484375)" stroke="none" fill="#fff"><path d="M 0,-2.06 Q 0,-2.06 2.3,-1.96 4.6,-1.86 7.41,-1.78 10.23,-1.71 12.50,-1.88 14.77,-2.05 16.96,-2.11 19.15,-2.18 21.23,-2.20 23.32,-2.23 24.89,-2.33 26.46,-2.43 29.06,-2.48 31.66,-2.54 31.94,-2.50 32.21,-2.45 32.46,-2.32 32.71,-2.19 32.91,-1.98 33.10,-1.78 33.22,-1.52 33.34,-1.27 33.37,-0.98 33.41,-0.70 33.35,-0.43 33.29,-0.15 33.14,0.08 32.99,0.32 32.78,0.51 32.57,0.69 32.30,0.80 32.04,0.90 31.76,0.92 31.48,0.93 31.20,0.86 30.93,0.78 30.70,0.62 30.46,0.47 30.29,0.24 30.12,0.02 30.03,-0.24 29.94,-0.51 29.94,-0.79 29.94,-1.07 30.03,-1.34 30.12,-1.61 30.29,-1.83 30.46,-2.06 30.69,-2.22 30.92,-2.38 31.20,-2.45 31.47,-2.53 31.75,-2.51 32.03,-2.50 32.30,-2.40 32.56,-2.29 32.77,-2.11 32.99,-1.93 33.14,-1.69 33.28,-1.44 33.34,-1.17 33.40,-0.89 33.37,-0.61 33.34,-0.33 33.23,-0.07 33.11,0.17 32.91,0.38 32.72,0.58 32.47,0.72 32.22,0.85 31.94,0.90 31.67,0.94 31.67,0.94 31.67,0.94 29.08,0.91 26.50,0.88 24.94,0.82 23.38,0.76 21.33,0.81 19.29,0.86 17.19,1.00 15.08,1.13 12.66,1.42 10.23,1.71 7.41,1.78 4.6,1.86 2.3,1.96 0,2.06 -0.24,2.03 -0.49,2.00 -0.72,1.91 -0.95,1.82 -1.16,1.68 -1.36,1.54 -1.53,1.35 -1.69,1.17 -1.81,0.95 -1.92,0.73 -1.98,0.49 -2.04,0.24 -2.04,-0.00 -2.04,-0.24 -1.98,-0.49 -1.92,-0.73 -1.81,-0.95 -1.69,-1.17 -1.53,-1.35 -1.36,-1.54 -1.16,-1.68 -0.95,-1.82 -0.72,-1.91 -0.49,-2.00 -0.24,-2.03 0.00,-2.06 0.00,-2.06 L 0,-2.06 Z"></path></g><g stroke-opacity="0.8" fill-opacity="0.8" stroke-linecap="round" transform="translate(346.8000183105469 423.59999084472656) rotate(0 165.60000610351562 53.600006103515625)"><path d="M0 0 C131.41 0, 262.82 0, 331.2 0 M0 0 C88.14 0, 176.29 0, 331.2 0 M331.2 0 C331.2 27.86, 331.2 55.72, 331.2 107.2 M331.2 0 C331.2 26.39, 331.2 52.79, 331.2 107.2 M331.2 107.2 C199.3 107.2, 67.39 107.2, 0 107.2 M331.2 107.2 C225.47 107.2, 119.74 107.2, 0 107.2 M0 107.2 C0 66.52, 0 25.84, 0 0 M0 107.2 C0 83.98, 0 60.75, 0 0" stroke="#fff" stroke-width="1" fill="none"></path></g><g stroke-opacity="0.2" fill-opacity="0.2" transform="translate(994.0000915527344 459.6999969482422) rotate(0 99 67)"><text x="198" y="27.5" font-family="Cascadia, Segoe UI Emoji" font-size="28px" fill="#fff" text-anchor="end" style="white-space: pre;" direction="ltr">sign up</text><text x="198" y="61" font-family="Cascadia, Segoe UI Emoji" font-size="28px" fill="#fff" text-anchor="end" style="white-space: pre;" direction="ltr">and</text><text x="198" y="94.5" font-family="Cascadia, Segoe UI Emoji" font-size="28px" fill="#fff" text-anchor="end" style="white-space: pre;" direction="ltr">be a part</text><text x="198" y="128" font-family="Cascadia, Segoe UI Emoji" font-size="28px" fill="#fff" text-anchor="end" style="white-space: pre;" direction="ltr">of this team</text></g><g stroke-linecap="round"><g stroke-opacity="0.2" fill-opacity="0.2" transform="translate(10 639.5999908447266) rotate(0 78.39999389648438 -101.59999084472656)"><path d="M0 0 C16 -33.87, 69.87 -202.27, 96 -203.2 C122.13 -204.13, 146.67 -38.53, 156.8 -5.6 M0 0 C16 -33.87, 69.87 -202.27, 96 -203.2 C122.13 -204.13, 146.67 -38.53, 156.8 -5.6" stroke="#fff" stroke-width="1" fill="none"></path></g></g><g stroke-linecap="round"><g stroke-opacity="0.5" fill-opacity="0.5" transform="translate(86.79998779296875 635.5999908447266) rotate(0 130.40000915527344 -138.06739375305176)"><path d="M0 0 C18.93 -46.8, 84.8 -280.8, 113.6 -280.8 C142.4 -280.8, 148.27 -29.33, 172.8 0 C197.33 29.33, 246.13 -87.33, 260.8 -104.8 M0 0 C18.93 -46.8, 84.8 -280.8, 113.6 -280.8 C142.4 -280.8, 148.27 -29.33, 172.8 0 C197.33 29.33, 246.13 -87.33, 260.8 -104.8" stroke="#fff" stroke-width="1" fill="none"></path></g></g><g stroke-opacity="0.5" fill-opacity="0.5" stroke-linecap="round" transform="translate(220.39999389648438 369.99998474121094) rotate(0 24 23.60003662109375)"><path d="M48 23.6 C48 24.97, 47.88 26.35, 47.64 27.7 C47.39 29.04, 47.03 30.39, 46.55 31.67 C46.08 32.96, 45.48 34.22, 44.78 35.4 C44.09 36.58, 43.28 37.72, 42.39 38.77 C41.49 39.82, 40.49 40.8, 39.43 41.68 C38.36 42.56, 37.2 43.36, 36 44.04 C34.8 44.72, 33.51 45.31, 32.21 45.78 C30.9 46.24, 29.54 46.6, 28.17 46.84 C26.8 47.08, 25.39 47.2, 24 47.2 C22.61 47.2, 21.2 47.08, 19.83 46.84 C18.46 46.6, 17.1 46.24, 15.79 45.78 C14.49 45.31, 13.2 44.72, 12 44.04 C10.8 43.36, 9.64 42.56, 8.57 41.68 C7.51 40.8, 6.51 39.82, 5.61 38.77 C4.72 37.72, 3.91 36.58, 3.22 35.4 C2.52 34.22, 1.92 32.96, 1.45 31.67 C0.97 30.39, 0.61 29.04, 0.36 27.7 C0.12 26.35, 0 24.97, 0 23.6 C0 22.23, 0.12 20.85, 0.36 19.5 C0.61 18.16, 0.97 16.81, 1.45 15.53 C1.92 14.24, 2.52 12.98, 3.22 11.8 C3.91 10.62, 4.72 9.48, 5.61 8.43 C6.51 7.38, 7.51 6.4, 8.57 5.52 C9.64 4.64, 10.8 3.84, 12 3.16 C13.2 2.48, 14.49 1.89, 15.79 1.42 C17.1 0.96, 18.46 0.6, 19.83 0.36 C21.2 0.12, 22.61 0, 24 0 C25.39 0, 26.8 0.12, 28.17 0.36 C29.54 0.6, 30.9 0.96, 32.21 1.42 C33.51 1.89, 34.8 2.48, 36 3.16 C37.2 3.84, 38.36 4.64, 39.43 5.52 C40.49 6.4, 41.49 7.38, 42.39 8.43 C43.28 9.48, 44.09 10.62, 44.78 11.8 C45.48 12.98, 46.08 14.24, 46.55 15.53 C47.03 16.81, 47.39 18.16, 47.64 19.5 C47.88 20.85, 47.94 22.92, 48 23.6 C48.06 24.28, 48.06 22.92, 48 23.6" stroke="#fff" stroke-width="1" fill="none"></path></g><g stroke-opacity="0.2" fill-opacity="0.2" stroke-linecap="round" transform="translate(230.99996948242188 428.39991760253906) rotate(0 20.399993896484375 19.60003662109375)"><path d="M40.8 19.6 C40.8 20.73, 40.7 21.89, 40.49 23 C40.29 24.12, 39.97 25.24, 39.57 26.3 C39.17 27.37, 38.66 28.42, 38.07 29.4 C37.48 30.38, 36.79 31.33, 36.03 32.2 C35.27 33.07, 34.42 33.89, 33.51 34.61 C32.61 35.34, 31.62 36.01, 30.6 36.57 C29.58 37.14, 28.49 37.63, 27.38 38.02 C26.27 38.41, 25.11 38.71, 23.94 38.9 C22.78 39.1, 21.58 39.2, 20.4 39.2 C19.22 39.2, 18.02 39.1, 16.86 38.9 C15.69 38.71, 14.53 38.41, 13.42 38.02 C12.31 37.63, 11.22 37.14, 10.2 36.57 C9.18 36.01, 8.19 35.34, 7.29 34.61 C6.38 33.89, 5.53 33.07, 4.77 32.2 C4.01 31.33, 3.32 30.38, 2.73 29.4 C2.14 28.42, 1.63 27.37, 1.23 26.3 C0.83 25.24, 0.51 24.12, 0.31 23 C0.1 21.89, 0 20.73, 0 19.6 C0 18.47, 0.1 17.31, 0.31 16.2 C0.51 15.08, 0.83 13.96, 1.23 12.9 C1.63 11.83, 2.14 10.78, 2.73 9.8 C3.32 8.82, 4.01 7.87, 4.77 7 C5.53 6.13, 6.38 5.31, 7.29 4.59 C8.19 3.86, 9.18 3.19, 10.2 2.63 C11.22 2.06, 12.31 1.57, 13.42 1.18 C14.53 0.79, 15.69 0.49, 16.86 0.3 C18.02 0.1, 19.22 0, 20.4 0 C21.58 0, 22.78 0.1, 23.94 0.3 C25.11 0.49, 26.27 0.79, 27.38 1.18 C28.49 1.57, 29.58 2.06, 30.6 2.63 C31.62 3.19, 32.61 3.86, 33.51 4.59 C34.42 5.31, 35.27 6.13, 36.03 7 C36.79 7.87, 37.48 8.82, 38.07 9.8 C38.66 10.78, 39.17 11.83, 39.57 12.9 C39.97 13.96, 40.29 15.08, 40.49 16.2 C40.7 17.31, 40.75 19.03, 40.8 19.6 C40.85 20.17, 40.85 19.03, 40.8 19.6" stroke="#fff" stroke-width="2" fill="none"></path></g><g stroke-opacity="0.4" fill-opacity="0.4" stroke-linecap="round" transform="translate(235.79995727539062 477.99998474121094) rotate(0 16.4000244140625 16.000030517578125)"><path d="M32.8 16 C32.8 16.93, 32.72 17.87, 32.55 18.78 C32.39 19.69, 32.14 20.6, 31.81 21.47 C31.49 22.34, 31.08 23.2, 30.6 24 C30.13 24.8, 29.57 25.58, 28.96 26.28 C28.35 26.99, 27.67 27.66, 26.94 28.26 C26.21 28.85, 25.42 29.39, 24.6 29.86 C23.78 30.32, 22.9 30.72, 22.01 31.04 C21.12 31.35, 20.18 31.6, 19.25 31.76 C18.31 31.92, 17.35 32, 16.4 32 C15.45 32, 14.49 31.92, 13.55 31.76 C12.62 31.6, 11.68 31.35, 10.79 31.04 C9.9 30.72, 9.02 30.32, 8.2 29.86 C7.38 29.39, 6.59 28.85, 5.86 28.26 C5.13 27.66, 4.45 26.99, 3.84 26.28 C3.23 25.58, 2.67 24.8, 2.2 24 C1.72 23.2, 1.31 22.34, 0.99 21.47 C0.66 20.6, 0.41 19.69, 0.25 18.78 C0.08 17.87, 0 16.93, 0 16 C0 15.07, 0.08 14.13, 0.25 13.22 C0.41 12.31, 0.66 11.4, 0.99 10.53 C1.31 9.66, 1.72 8.8, 2.2 8 C2.67 7.2, 3.23 6.42, 3.84 5.72 C4.45 5.01, 5.13 4.34, 5.86 3.74 C6.59 3.15, 7.38 2.61, 8.2 2.14 C9.02 1.68, 9.9 1.28, 10.79 0.96 C11.68 0.65, 12.62 0.4, 13.55 0.24 C14.49 0.08, 15.45 0, 16.4 0 C17.35 0, 18.31 0.08, 19.25 0.24 C20.18 0.4, 21.12 0.65, 22.01 0.96 C22.9 1.28, 23.78 1.68, 24.6 2.14 C25.42 2.61, 26.21 3.15, 26.94 3.74 C27.67 4.34, 28.35 5.01, 28.96 5.72 C29.57 6.42, 30.13 7.2, 30.6 8 C31.08 8.8, 31.49 9.66, 31.81 10.53 C32.14 11.4, 32.39 12.31, 32.55 13.22 C32.72 14.13, 32.76 15.54, 32.8 16 C32.84 16.46, 32.84 15.54, 32.8 16" stroke="#fff" stroke-width="2" fill="none"></path></g><g stroke-opacity="0.2" fill-opacity="0.2" stroke-linecap="round" transform="translate(242.19992065429688 520.7999725341797) rotate(0 13.20001220703125 12.4000244140625)"><path d="M26.4 12.4 C26.4 13.12, 26.33 13.85, 26.2 14.55 C26.07 15.26, 25.87 15.97, 25.6 16.64 C25.34 17.32, 25.01 17.98, 24.63 18.6 C24.25 19.22, 23.8 19.82, 23.31 20.37 C22.82 20.92, 22.27 21.44, 21.68 21.9 C21.1 22.36, 20.46 22.78, 19.8 23.14 C19.14 23.5, 18.43 23.81, 17.71 24.05 C17 24.3, 16.24 24.49, 15.49 24.61 C14.74 24.74, 13.96 24.8, 13.2 24.8 C12.44 24.8, 11.66 24.74, 10.91 24.61 C10.16 24.49, 9.4 24.3, 8.69 24.05 C7.97 23.81, 7.26 23.5, 6.6 23.14 C5.94 22.78, 5.3 22.36, 4.72 21.9 C4.13 21.44, 3.58 20.92, 3.09 20.37 C2.6 19.82, 2.15 19.22, 1.77 18.6 C1.39 17.98, 1.06 17.32, 0.8 16.64 C0.53 15.97, 0.33 15.26, 0.2 14.55 C0.07 13.85, 0 13.12, 0 12.4 C0 11.68, 0.07 10.95, 0.2 10.25 C0.33 9.54, 0.53 8.83, 0.8 8.16 C1.06 7.48, 1.39 6.82, 1.77 6.2 C2.15 5.58, 2.6 4.98, 3.09 4.43 C3.58 3.88, 4.13 3.36, 4.72 2.9 C5.3 2.44, 5.94 2.02, 6.6 1.66 C7.26 1.3, 7.97 0.99, 8.69 0.75 C9.4 0.5, 10.16 0.31, 10.91 0.19 C11.66 0.06, 12.44 0, 13.2 0 C13.96 0, 14.74 0.06, 15.49 0.19 C16.24 0.31, 17 0.5, 17.71 0.75 C18.43 0.99, 19.14 1.3, 19.8 1.66 C20.46 2.02, 21.1 2.44, 21.68 2.9 C22.27 3.36, 22.82 3.88, 23.31 4.43 C23.8 4.98, 24.25 5.58, 24.63 6.2 C25.01 6.82, 25.34 7.48, 25.6 8.16 C25.87 8.83, 26.07 9.54, 26.2 10.25 C26.33 10.95, 26.37 12.04, 26.4 12.4 C26.43 12.76, 26.43 12.04, 26.4 12.4" stroke="#fff" stroke-width="2" fill="none"></path></g><g stroke-opacity="0.2" fill-opacity="0.2" stroke-linecap="round" transform="translate(246.19998168945312 554.3999176025391) rotate(0 10.800018310546875 10.800079345703125)"><path d="M21.6 10.8 C21.6 11.43, 21.54 12.06, 21.44 12.68 C21.33 13.29, 21.16 13.91, 20.95 14.49 C20.73 15.08, 20.47 15.66, 20.15 16.2 C19.84 16.74, 19.48 17.26, 19.07 17.74 C18.67 18.22, 18.22 18.67, 17.74 19.07 C17.26 19.48, 16.74 19.84, 16.2 20.15 C15.66 20.47, 15.08 20.74, 14.49 20.95 C13.91 21.16, 13.29 21.33, 12.68 21.44 C12.06 21.54, 11.43 21.6, 10.8 21.6 C10.17 21.6, 9.54 21.54, 8.92 21.44 C8.31 21.33, 7.69 21.16, 7.11 20.95 C6.52 20.74, 5.94 20.47, 5.4 20.15 C4.86 19.84, 4.34 19.48, 3.86 19.07 C3.38 18.67, 2.93 18.22, 2.53 17.74 C2.12 17.26, 1.76 16.74, 1.45 16.2 C1.13 15.66, 0.87 15.08, 0.65 14.49 C0.44 13.91, 0.27 13.29, 0.16 12.68 C0.06 12.06, 0 11.43, 0 10.8 C0 10.17, 0.06 9.54, 0.16 8.92 C0.27 8.31, 0.44 7.69, 0.65 7.11 C0.87 6.52, 1.13 5.94, 1.45 5.4 C1.76 4.86, 2.12 4.34, 2.53 3.86 C2.93 3.38, 3.38 2.93, 3.86 2.53 C4.34 2.12, 4.86 1.76, 5.4 1.45 C5.94 1.13, 6.52 0.87, 7.11 0.65 C7.69 0.44, 8.31 0.27, 8.92 0.16 C9.54 0.06, 10.17 0, 10.8 0 C11.43 0, 12.06 0.06, 12.68 0.16 C13.29 0.27, 13.91 0.44, 14.49 0.65 C15.08 0.87, 15.66 1.13, 16.2 1.45 C16.74 1.76, 17.26 2.12, 17.74 2.53 C18.22 2.93, 18.67 3.38, 19.07 3.86 C19.48 4.34, 19.84 4.86, 20.15 5.4 C20.47 5.94, 20.73 6.52, 20.95 7.11 C21.16 7.69, 21.33 8.31, 21.44 8.92 C21.54 9.54, 21.57 10.49, 21.6 10.8 C21.63 11.11, 21.63 10.49, 21.6 10.8" stroke="#fff" stroke-width="2" fill="none"></path></g><g stroke-opacity="0.8" fill-opacity="0.8" stroke-linecap="round" transform="translate(275.4000244140625 581.9999847412109) rotate(0 14.4000244140625 14.40008544921875)"><path d="M28.8 14.4 C28.8 15.23, 28.73 16.08, 28.58 16.9 C28.44 17.72, 28.22 18.54, 27.93 19.33 C27.65 20.11, 27.29 20.88, 26.87 21.6 C26.45 22.32, 25.97 23.02, 25.43 23.66 C24.9 24.29, 24.29 24.9, 23.66 25.43 C23.02 25.97, 22.32 26.45, 21.6 26.87 C20.88 27.29, 20.11 27.65, 19.33 27.93 C18.54 28.22, 17.72 28.44, 16.9 28.58 C16.08 28.73, 15.23 28.8, 14.4 28.8 C13.57 28.8, 12.72 28.73, 11.9 28.58 C11.08 28.44, 10.26 28.22, 9.47 27.93 C8.69 27.65, 7.92 27.29, 7.2 26.87 C6.48 26.45, 5.78 25.97, 5.14 25.43 C4.51 24.9, 3.9 24.29, 3.37 23.66 C2.83 23.02, 2.35 22.32, 1.93 21.6 C1.51 20.88, 1.15 20.11, 0.87 19.33 C0.58 18.54, 0.36 17.72, 0.22 16.9 C0.07 16.08, 0 15.23, 0 14.4 C0 13.57, 0.07 12.72, 0.22 11.9 C0.36 11.08, 0.58 10.26, 0.87 9.47 C1.15 8.69, 1.51 7.92, 1.93 7.2 C2.35 6.48, 2.83 5.78, 3.37 5.14 C3.9 4.51, 4.51 3.9, 5.14 3.37 C5.78 2.83, 6.48 2.35, 7.2 1.93 C7.92 1.51, 8.69 1.15, 9.47 0.87 C10.26 0.58, 11.08 0.36, 11.9 0.22 C12.72 0.07, 13.57 0, 14.4 0 C15.23 0, 16.08 0.07, 16.9 0.22 C17.72 0.36, 18.54 0.58, 19.33 0.87 C20.11 1.15, 20.88 1.51, 21.6 1.93 C22.32 2.35, 23.02 2.83, 23.66 3.37 C24.29 3.9, 24.9 4.51, 25.43 5.14 C25.97 5.78, 26.45 6.48, 26.87 7.2 C27.29 7.92, 27.65 8.69, 27.93 9.47 C28.22 10.26, 28.44 11.08, 28.58 11.9 C28.73 12.72, 28.76 13.98, 28.8 14.4 C28.84 14.82, 28.84 13.98, 28.8 14.4" stroke="#fff" stroke-width="2" fill="none"></path></g><g stroke-opacity="0.2" fill-opacity="0.2" stroke-linecap="round" transform="translate(260.199951171875 609.9998626708984) rotate(0 10.800018310546875 10.800079345703125)"><path d="M21.6 10.8 C21.6 11.43, 21.54 12.06, 21.44 12.68 C21.33 13.29, 21.16 13.91, 20.95 14.49 C20.73 15.08, 20.47 15.66, 20.15 16.2 C19.84 16.74, 19.48 17.26, 19.07 17.74 C18.67 18.22, 18.22 18.67, 17.74 19.07 C17.26 19.48, 16.74 19.84, 16.2 20.15 C15.66 20.47, 15.08 20.74, 14.49 20.95 C13.91 21.16, 13.29 21.33, 12.68 21.44 C12.06 21.54, 11.43 21.6, 10.8 21.6 C10.17 21.6, 9.54 21.54, 8.92 21.44 C8.31 21.33, 7.69 21.16, 7.11 20.95 C6.52 20.74, 5.94 20.47, 5.4 20.15 C4.86 19.84, 4.34 19.48, 3.86 19.07 C3.38 18.67, 2.93 18.22, 2.53 17.74 C2.12 17.26, 1.76 16.74, 1.45 16.2 C1.13 15.66, 0.87 15.08, 0.65 14.49 C0.44 13.91, 0.27 13.29, 0.16 12.68 C0.06 12.06, 0 11.43, 0 10.8 C0 10.17, 0.06 9.54, 0.16 8.92 C0.27 8.31, 0.44 7.69, 0.65 7.11 C0.87 6.52, 1.13 5.94, 1.45 5.4 C1.76 4.86, 2.12 4.34, 2.53 3.86 C2.93 3.38, 3.38 2.93, 3.86 2.53 C4.34 2.12, 4.86 1.76, 5.4 1.45 C5.94 1.13, 6.52 0.87, 7.11 0.65 C7.69 0.44, 8.31 0.27, 8.92 0.16 C9.54 0.06, 10.17 0, 10.8 0 C11.43 0, 12.06 0.06, 12.68 0.16 C13.29 0.27, 13.91 0.44, 14.49 0.65 C15.08 0.87, 15.66 1.13, 16.2 1.45 C16.74 1.76, 17.26 2.12, 17.74 2.53 C18.22 2.93, 18.67 3.38, 19.07 3.86 C19.48 4.34, 19.84 4.86, 20.15 5.4 C20.47 5.94, 20.73 6.52, 20.95 7.11 C21.16 7.69, 21.33 8.31, 21.44 8.92 C21.54 9.54, 21.57 10.49, 21.6 10.8 C21.63 11.11, 21.63 10.49, 21.6 10.8" stroke="#fff" stroke-width="2" fill="none"></path></g><g stroke-opacity="0.5" fill-opacity="0.5" stroke-linecap="round" transform="translate(252.79998779296875 582.7999114990234) rotate(0 8.800018310546875 9.600067138671875)"><path d="M17.6 9.6 C17.6 10.16, 17.55 10.72, 17.47 11.27 C17.38 11.81, 17.24 12.36, 17.07 12.88 C16.9 13.41, 16.68 13.92, 16.42 14.4 C16.17 14.88, 15.87 15.35, 15.54 15.77 C15.21 16.2, 14.85 16.6, 14.46 16.95 C14.07 17.31, 13.64 17.64, 13.2 17.91 C12.76 18.19, 12.29 18.43, 11.81 18.62 C11.33 18.81, 10.83 18.96, 10.33 19.05 C9.83 19.15, 9.31 19.2, 8.8 19.2 C8.29 19.2, 7.77 19.15, 7.27 19.05 C6.77 18.96, 6.27 18.81, 5.79 18.62 C5.31 18.43, 4.84 18.19, 4.4 17.91 C3.96 17.64, 3.53 17.31, 3.14 16.95 C2.75 16.6, 2.39 16.2, 2.06 15.77 C1.73 15.35, 1.43 14.88, 1.18 14.4 C0.92 13.92, 0.7 13.41, 0.53 12.88 C0.36 12.36, 0.22 11.81, 0.13 11.27 C0.05 10.72, 0 10.16, 0 9.6 C0 9.04, 0.05 8.48, 0.13 7.93 C0.22 7.39, 0.36 6.84, 0.53 6.32 C0.7 5.79, 0.92 5.28, 1.18 4.8 C1.43 4.32, 1.73 3.85, 2.06 3.43 C2.39 3, 2.75 2.6, 3.14 2.25 C3.53 1.89, 3.96 1.56, 4.4 1.29 C4.84 1.01, 5.31 0.77, 5.79 0.58 C6.27 0.39, 6.77 0.24, 7.27 0.15 C7.77 0.05, 8.29 0, 8.8 0 C9.31 0, 9.83 0.05, 10.33 0.15 C10.83 0.24, 11.33 0.39, 11.81 0.58 C12.29 0.77, 12.76 1.01, 13.2 1.29 C13.64 1.56, 14.07 1.89, 14.46 2.25 C14.85 2.6, 15.21 3, 15.54 3.43 C15.87 3.85, 16.17 4.32, 16.42 4.8 C16.68 5.28, 16.9 5.79, 17.07 6.32 C17.24 6.84, 17.38 7.39, 17.47 7.93 C17.55 8.48, 17.58 9.32, 17.6 9.6 C17.62 9.88, 17.62 9.32, 17.6 9.6" stroke="#fff" stroke-width="2" fill="none"></path></g><g stroke-linecap="round"><g stroke-opacity="0.4" fill-opacity="0.4" transform="translate(986.8000183105469 283.59999084472656) rotate(0 120.4000244140625 -0.399993896484375)"><path d="M0 0 C40.13 -0.13, 200.67 -0.67, 240.8 -0.8 M0 0 C40.13 -0.13, 200.67 -0.67, 240.8 -0.8" stroke="#fff" stroke-width="2" fill="none"></path></g></g><g stroke-linecap="round"><g stroke-opacity="0.2" fill-opacity="0.2" transform="translate(904.3999938964844 331.59999084472656) rotate(0 160.79998779296875 -1.1999969482421875)"><path d="M0 0 C53.6 -0.4, 268 -2, 321.6 -2.4 M0 0 C53.6 -0.4, 268 -2, 321.6 -2.4" stroke="#fff" stroke-width="2" fill="none"></path></g></g><g stroke-linecap="round"><g stroke-opacity="0.6" fill-opacity="0.6" transform="translate(912.3999938964844 361.99998474121094) rotate(0 158.4000244140625 0)"><path d="M0 0 C52.8 0, 264 0, 316.8 0 M0 0 C52.8 0, 264 0, 316.8 0" stroke="#fff" stroke-width="2" fill="none"></path></g></g><g stroke-linecap="round"><g stroke-opacity="0.8" fill-opacity="0.8" transform="translate(1058.8000183105469 310.8000030517578) rotate(0 83.20001220703125 0)"><path d="M0 0 C27.73 0, 138.67 0, 166.4 0 M0 0 C27.73 0, 138.67 0, 166.4 0" stroke="#fff" stroke-width="2" fill="none"></path></g></g><g stroke-linecap="round"><g stroke-opacity="0.2" fill-opacity="0.2" transform="translate(899.6000671386719 404.40000915527344) rotate(0 162.39996337890625 0.79998779296875)"><path d="M0 0 C54.13 0.27, 270.67 1.33, 324.8 1.6 M0 0 C54.13 0.27, 270.67 1.33, 324.8 1.6" stroke="#fff" stroke-width="2" fill="none"></path></g></g><g stroke-linecap="round"><g stroke-opacity="0.5" fill-opacity="0.5" transform="translate(1066.8000183105469 435.59999084472656) rotate(0 80.79998779296875 0.8000335693359375)"><path d="M0 0 C26.93 0.27, 134.67 1.33, 161.6 1.6 M0 0 C26.93 0.27, 134.67 1.33, 161.6 1.6" stroke="#fff" stroke-width="2" fill="none"></path></g></g><g stroke-opacity="0.6" fill-opacity="0.6" stroke-linecap="round" transform="translate(1192.3998718261719 371.5999298095703) rotate(0 16 16.400009155273438)"><path d="M0 0 C11.6 0, 23.19 0, 32 0 M0 0 C6.78 0, 13.55 0, 32 0 M32 0 C32 11.16, 32 22.32, 32 32.8 M32 0 C32 10.4, 32 20.8, 32 32.8 M32 32.8 C24.73 32.8, 17.45 32.8, 0 32.8 M32 32.8 C25.23 32.8, 18.47 32.8, 0 32.8 M0 32.8 C0 22.64, 0 12.48, 0 0 M0 32.8 C0 22.99, 0 13.18, 0 0" stroke="#fff" stroke-width="2" fill="none"></path></g><g stroke-opacity="0.4" fill-opacity="0.4" stroke-linecap="round" transform="translate(1064.3998718261719 377.199951171875) rotate(0 11.60003662109375 12.400009155273438)"><path d="M0 0 C8.12 0, 16.24 0, 23.2 0 M0 0 C6.32 0, 12.63 0, 23.2 0 M23.2 0 C23.2 7.05, 23.2 14.1, 23.2 24.8 M23.2 0 C23.2 7.2, 23.2 14.41, 23.2 24.8 M23.2 24.8 C14.08 24.8, 4.96 24.8, 0 24.8 M23.2 24.8 C14.65 24.8, 6.1 24.8, 0 24.8 M0 24.8 C0 19.35, 0 13.9, 0 0 M0 24.8 C0 19.3, 0 13.8, 0 0" stroke="#fff" stroke-width="2" fill="none"></path></g><g stroke-opacity="0.2" fill-opacity="0.2" stroke-linecap="round" transform="translate(1096.8000183105469 387.2000732421875) rotate(0 9.20001220703125 8.399978637695312)"><path d="M0 0 C4.19 0, 8.38 0, 18.4 0 M0 0 C4.55 0, 9.11 0, 18.4 0 M18.4 0 C18.4 4.34, 18.4 8.68, 18.4 16.8 M18.4 0 C18.4 5.98, 18.4 11.96, 18.4 16.8 M18.4 16.8 C11.69 16.8, 4.99 16.8, 0 16.8 M18.4 16.8 C13.25 16.8, 8.1 16.8, 0 16.8 M0 16.8 C0 11.57, 0 6.33, 0 0 M0 16.8 C0 11.92, 0 7.03, 0 0" stroke="#fff" stroke-width="2" fill="none"></path></g><g stroke-opacity="0.2" fill-opacity="0.2" stroke-linecap="round" transform="translate(1143.5999450683594 373) rotate(0 16 16.400009155273438)"><path d="M0 0 C12.38 0, 24.77 0, 32 0 M0 0 C8.63 0, 17.26 0, 32 0 M32 0 C32 10.3, 32 20.61, 32 32.8 M32 0 C32 13.11, 32 26.23, 32 32.8 M32 32.8 C19.26 32.8, 6.51 32.8, 0 32.8 M32 32.8 C20.16 32.8, 8.32 32.8, 0 32.8 M0 32.8 C0 20.42, 0 8.03, 0 0 M0 32.8 C0 25.11, 0 17.41, 0 0" stroke="#fff" stroke-width="2" fill="none"></path></g><g stroke-opacity="0.3" fill-opacity="0.3" stroke-linecap="round" transform="translate(1179.8000183105469 379.6001281738281) rotate(0 8.79998779296875 11.199981689453125)"><path d="M0 0 C4.88 0, 9.75 0, 17.6 0 M0 0 C4.79 0, 9.59 0, 17.6 0 M17.6 0 C17.6 6.47, 17.6 12.93, 17.6 22.4 M17.6 0 C17.6 5.38, 17.6 10.76, 17.6 22.4 M17.6 22.4 C12.68 22.4, 7.76 22.4, 0 22.4 M17.6 22.4 C13.33 22.4, 9.05 22.4, 0 22.4 M0 22.4 C0 14.06, 0 5.71, 0 0 M0 22.4 C0 17.68, 0 12.97, 0 0" stroke="#fff" stroke-width="2" fill="none"></path></g><g stroke-opacity="0.5" fill-opacity="0.5" transform="translate(885.2000427246094 483.59999084472656) rotate(0 13.199981689453125 78.39999389648438)" stroke="none" fill="#fff"><path d="M 0.55,-1.57 Q 0.55,-1.57 4.44,-0.14 8.34,1.27 21.70,5.57 35.05,9.86 53.11,14.21 71.16,18.57 89.15,21.57 107.15,24.57 123.05,26.08 138.95,27.59 149.84,28.24 160.73,28.89 165.80,28.94 170.86,28.98 172.34,28.67 173.82,28.35 174.01,28.37 174.20,28.40 174.37,28.47 174.55,28.53 174.70,28.64 174.85,28.75 174.98,28.89 175.10,29.03 175.19,29.20 175.27,29.37 175.32,29.55 175.36,29.73 175.36,29.92 175.36,30.11 175.31,30.29 175.26,30.47 175.18,30.64 175.09,30.81 174.96,30.95 174.84,31.09 174.68,31.19 174.52,31.30 174.35,31.36 174.17,31.43 173.98,31.45 173.80,31.47 167.88,30.34 161.96,29.21 149.88,28.09 137.80,26.98 122.09,26.04 106.38,25.10 90.97,24.70 75.57,24.31 62.35,24.14 49.13,23.97 37.27,23.20 25.40,22.44 12.75,20.96 0.10,19.48 -12.18,17.70 -24.46,15.92 -32.21,14.71 -39.95,13.49 -43.02,12.97 -46.09,12.45 -47.18,12.36 -48.27,12.27 -48.46,12.22 -48.64,12.16 -48.80,12.07 -48.97,11.97 -49.10,11.84 -49.24,11.71 -49.34,11.55 -49.44,11.39 -49.50,11.21 -49.56,11.02 -49.57,10.84 -49.58,10.65 -49.55,10.46 -49.52,10.27 -49.45,10.10 -49.37,9.92 -49.26,9.77 -49.14,9.62 -48.99,9.50 -48.85,9.38 -48.67,9.30 -48.50,9.22 -48.32,9.19 -48.13,9.15 -47.94,9.16 -47.75,9.17 -45.49,10.10 -43.23,11.04 -41.09,12.61 -38.94,14.18 -37.15,15.54 -35.35,16.89 -34.15,18.51 -32.95,20.13 -32.19,21.22 -31.42,22.31 -31.00,24.11 -30.58,25.90 -32.00,28.57 -33.41,31.23 -35.95,33.89 -38.49,36.55 -41.15,39.22 -43.81,41.90 -45.61,43.91 -47.41,45.92 -48.31,47.41 -49.21,48.91 -49.32,50.87 -49.44,52.84 -48.29,54.17 -47.13,55.50 -43.10,57.94 -39.08,60.38 -33.49,62.61 -27.90,64.83 -23.42,66.50 -18.94,68.17 -16.58,68.89 -14.21,69.61 -14.06,69.69 -13.90,69.77 -13.77,69.88 -13.64,70.00 -13.54,70.14 -13.44,70.28 -13.38,70.44 -13.31,70.60 -13.29,70.77 -13.27,70.94 -13.29,71.12 -13.31,71.29 -13.37,71.45 -13.43,71.61 -13.52,71.76 -13.62,71.90 -13.75,72.02 -13.87,72.13 -14.03,72.22 -14.18,72.30 -14.35,72.34 -14.51,72.38 -14.69,72.39 -14.86,72.39 -15.03,72.35 -15.20,72.31 -16.57,72.71 -17.94,73.12 -23.17,73.22 -28.40,73.32 -35.01,72.88 -41.61,72.45 -46.90,72.26 -52.19,72.07 -54.90,71.98 -57.62,71.89 -58.71,72.00 -59.81,72.11 -60.01,72.08 -60.22,72.05 -60.40,71.97 -60.59,71.89 -60.76,71.77 -60.92,71.65 -61.05,71.49 -61.18,71.33 -61.27,71.15 -61.36,70.96 -61.40,70.76 -61.45,70.56 -61.44,70.36 -61.43,70.15 -61.38,69.96 -61.32,69.76 -61.22,69.58 -61.12,69.40 -60.98,69.25 -60.84,69.11 -60.66,69.00 -60.49,68.88 -60.30,68.82 -60.10,68.75 -59.90,68.73 -59.70,68.72 -57.00,69.76 -54.29,70.79 -50.69,72.38 -47.10,73.96 -43.29,75.55 -39.49,77.14 -36.30,78.27 -33.11,79.40 -31.52,79.80 -29.92,80.20 -28.91,81.48 -27.89,82.76 -23.60,82.57 -19.30,82.37 -13.92,83.06 -8.53,83.75 -3.06,84.30 2.41,84.84 7.27,85.33 12.14,85.81 16.01,86.02 19.89,86.24 23.37,86.34 26.85,86.44 30.54,86.04 34.24,85.63 37.60,84.79 40.96,83.95 44.02,83.13 47.09,82.31 48.95,81.33 50.81,80.35 51.70,79.44 52.58,78.53 48.06,76.67 43.54,74.82 32.55,71.94 21.56,69.06 9.08,66.43 -3.39,63.80 -15.10,62.21 -26.80,60.62 -34.32,59.70 -41.84,58.78 -45.93,58.38 -50.03,57.98 -53.27,58.26 -56.50,58.55 -58.57,58.88 -60.63,59.22 -56.93,62.53 -53.23,65.84 -44.48,69.71 -35.73,73.58 -26.71,76.86 -17.70,80.14 -11.32,82.48 -4.94,84.81 -2.02,85.81 0.89,86.80 1.95,87.10 3.01,87.40 3.19,87.49 3.37,87.58 3.53,87.70 3.68,87.83 3.80,87.99 3.92,88.15 4.00,88.33 4.08,88.52 4.11,88.71 4.14,88.91 4.13,89.11 4.11,89.31 4.05,89.50 3.98,89.69 3.88,89.86 3.77,90.03 3.63,90.17 3.48,90.31 3.31,90.41 3.14,90.51 2.94,90.56 2.75,90.62 2.55,90.63 2.35,90.63 2.16,90.59 1.96,90.55 -0.26,91.72 -2.50,92.89 -13.31,94.42 -24.12,95.96 -42.51,96.36 -60.90,96.76 -79.73,96.92 -98.56,97.09 -111.86,96.92 -125.17,96.76 -132.19,96.69 -139.22,96.62 -141.06,96.65 -142.89,96.68 -143.07,96.66 -143.24,96.64 -143.40,96.58 -143.56,96.51 -143.71,96.41 -143.85,96.31 -143.96,96.18 -144.08,96.05 -144.16,95.89 -144.24,95.74 -144.28,95.57 -144.32,95.40 -144.32,95.22 -144.31,95.05 -144.27,94.88 -144.23,94.71 -144.15,94.56 -144.06,94.40 -143.95,94.27 -143.83,94.14 -143.68,94.05 -143.54,93.95 -143.38,93.89 -143.21,93.83 -143.04,93.81 -142.87,93.79 -139.66,94.56 -136.46,95.32 -135.31,95.75 -134.17,96.18 -133.41,97.68 -132.66,99.17 -131.54,100.41 -130.42,101.66 -129.32,102.44 -128.23,103.22 -127.50,105.31 -126.77,107.39 -128.02,109.04 -129.27,110.69 -132.20,112.33 -135.13,113.97 -137.42,115.21 -139.71,116.45 -137.39,117.37 -135.06,118.29 -131.90,119.72 -128.75,121.15 -126.09,122.23 -123.42,123.31 -122.05,123.66 -120.67,124.02 -119.18,125.57 -117.69,127.13 -118.21,129.03 -118.73,130.93 -119.46,132.29 -120.20,133.65 -121.06,134.85 -121.92,136.06 -120.69,137.25 -119.47,138.43 -118.52,139.19 -117.57,139.95 -117.09,140.52 -116.61,141.08 -116.39,141.31 -116.17,141.54 -116.02,141.81 -115.86,142.08 -115.77,142.39 -115.68,142.69 -115.67,143.00 -115.66,143.32 -115.73,143.63 -115.79,143.94 -115.93,144.22 -116.06,144.51 -116.26,144.75 -116.46,144.99 -116.72,145.18 -116.97,145.37 -117.26,145.49 -117.55,145.62 -117.86,145.67 -118.17,145.72 -118.49,145.69 -118.80,145.66 -119.10,145.56 -119.40,145.46 -119.66,145.29 -119.93,145.12 -120.17,146.40 -120.42,147.69 -122.26,148.66 -124.10,149.63 -126.31,150.05 -128.52,150.47 -130.56,150.80 -132.59,151.13 -134.07,151.53 -135.55,151.93 -136.77,152.19 -137.99,152.44 -139.32,152.67 -140.66,152.89 -142.39,152.99 -144.13,153.09 -143.58,151.84 -143.03,150.58 -143.03,152.18 -143.03,153.79 -143.78,154.95 -144.54,156.11 -145.91,156.89 -147.28,157.67 -148.63,158.41 -149.98,159.16 -150.45,159.32 -150.91,159.48 -151.40,159.48 -151.89,159.48 -152.36,159.32 -152.83,159.17 -153.22,158.87 -153.61,158.57 -153.88,158.17 -154.16,157.76 -154.29,157.29 -154.43,156.82 -154.40,156.33 -154.37,155.84 -154.19,155.38 -154.01,154.92 -153.70,154.55 -153.38,154.17 -152.96,153.92 -152.54,153.67 -152.06,153.56 -151.58,153.45 -151.09,153.51 -150.60,153.56 -150.16,153.76 -149.71,153.97 -149.35,154.31 -149.00,154.64 -148.77,155.08 -148.54,155.51 -148.45,155.99 -148.37,156.48 -148.45,156.96 -148.53,157.45 -148.76,157.88 -148.99,158.32 -149.35,158.65 -149.70,158.99 -150.15,159.20 -150.59,159.41 -151.08,159.46 -151.57,159.51 -152.05,159.41 -152.53,159.30 -152.95,159.05 -153.37,158.80 -153.69,158.43 -154.01,158.05 -154.19,157.60 -154.37,157.14 -154.40,156.65 -154.43,156.16 -154.30,155.69 -154.17,155.21 -153.89,154.81 -153.62,154.40 -153.23,154.10 -152.84,153.80 -152.84,153.80 -152.84,153.80 -151.53,153.14 -150.22,152.47 -149.29,151.57 -148.36,150.67 -147.11,149.21 -145.86,147.76 -144.05,147.75 -142.24,147.73 -141.13,147.79 -140.02,147.85 -138.37,147.74 -136.72,147.63 -135.13,147.20 -133.55,146.77 -131.64,146.23 -129.72,145.68 -128.04,145.13 -126.36,144.58 -124.54,143.73 -122.72,142.87 -121.71,142.05 -120.71,141.22 -118.66,141.15 -116.61,141.08 -116.39,141.31 -116.17,141.54 -116.02,141.81 -115.86,142.08 -115.77,142.39 -115.68,142.69 -115.67,143.00 -115.66,143.32 -115.73,143.63 -115.79,143.94 -115.93,144.22 -116.06,144.51 -116.26,144.75 -116.46,144.99 -116.72,145.18 -116.97,145.37 -117.26,145.49 -117.55,145.62 -117.86,145.67 -118.17,145.72 -118.49,145.69 -118.80,145.66 -119.10,145.56 -119.40,145.46 -119.66,145.29 -119.93,145.12 -120.36,144.48 -120.79,143.83 -121.99,142.83 -123.19,141.82 -124.30,140.47 -125.42,139.11 -125.87,137.16 -126.32,135.21 -125.21,133.33 -124.10,131.44 -122.96,129.46 -121.82,127.48 -123.21,126.97 -124.61,126.45 -127.39,125.47 -130.16,124.50 -133.32,123.26 -136.48,122.03 -139.23,121.09 -141.99,120.16 -143.33,119.02 -144.67,117.89 -144.57,116.41 -144.48,114.93 -143.06,114.06 -141.65,113.20 -139.46,111.77 -137.26,110.35 -134.19,108.74 -131.12,107.13 -132.30,106.26 -133.48,105.39 -135.10,103.66 -136.72,101.93 -136.97,100.08 -137.21,98.23 -140.05,97.46 -142.89,96.68 -143.07,96.66 -143.24,96.64 -143.40,96.58 -143.56,96.51 -143.71,96.41 -143.85,96.31 -143.96,96.18 -144.08,96.05 -144.16,95.89 -144.24,95.74 -144.28,95.57 -144.32,95.40 -144.32,95.22 -144.31,95.05 -144.27,94.88 -144.23,94.71 -144.15,94.56 -144.06,94.40 -143.95,94.27 -143.83,94.14 -143.68,94.05 -143.54,93.95 -143.38,93.89 -143.21,93.83 -143.04,93.81 -142.87,93.79 -141.03,93.88 -139.19,93.97 -132.16,94.03 -125.13,94.09 -111.86,94.25 -98.58,94.40 -79.77,94.23 -60.96,94.05 -42.72,93.65 -24.49,93.25 -14.07,91.81 -3.66,90.37 -0.32,88.89 3.01,87.40 3.19,87.49 3.37,87.58 3.53,87.70 3.68,87.83 3.80,87.99 3.92,88.15 4.00,88.33 4.08,88.52 4.11,88.71 4.14,88.91 4.13,89.11 4.11,89.31 4.05,89.50 3.99,89.69 3.88,89.86 3.77,90.03 3.63,90.17 3.48,90.30 3.31,90.41 3.14,90.51 2.94,90.56 2.75,90.62 2.55,90.63 2.35,90.63 2.16,90.59 1.96,90.55 0.98,90.02 -0.00,89.49 -2.96,88.52 -5.93,87.55 -12.33,85.27 -18.72,82.99 -27.86,79.74 -37.00,76.49 -46.06,72.56 -55.12,68.63 -60.03,65.12 -64.93,61.61 -64.54,59.63 -64.14,57.65 -62.62,57.08 -61.09,56.51 -58.92,56.14 -56.75,55.76 -53.26,55.45 -49.78,55.13 -45.63,55.49 -41.49,55.85 -33.94,56.72 -26.40,57.58 -14.57,59.11 -2.74,60.63 9.83,63.17 22.42,65.71 33.61,68.50 44.81,71.28 50.21,73.25 55.62,75.21 56.07,76.19 56.53,77.18 55.57,79.05 54.62,80.93 53.34,81.83 52.07,82.73 49.94,83.83 47.81,84.93 44.72,85.78 41.63,86.62 38.09,87.52 34.55,88.42 30.67,88.87 26.79,89.32 23.27,89.26 19.75,89.20 15.80,89.05 11.86,88.89 6.99,88.50 2.12,88.10 -3.40,87.67 -8.93,87.24 -14.28,86.72 -19.63,86.19 -23.75,85.93 -27.87,85.67 -29.58,84.96 -31.28,84.25 -31.13,82.65 -30.98,81.04 -30.90,82.11 -30.81,83.18 -32.43,82.61 -34.04,82.05 -37.31,80.92 -40.59,79.80 -44.43,78.24 -48.27,76.68 -51.82,75.19 -55.37,73.69 -57.59,72.90 -59.81,72.11 -60.01,72.08 -60.22,72.05 -60.40,71.97 -60.59,71.89 -60.76,71.77 -60.92,71.65 -61.05,71.49 -61.18,71.33 -61.27,71.15 -61.36,70.96 -61.40,70.76 -61.45,70.56 -61.44,70.36 -61.43,70.15 -61.38,69.96 -61.32,69.76 -61.22,69.58 -61.12,69.40 -60.98,69.25 -60.84,69.11 -60.66,69.00 -60.49,68.88 -60.30,68.82 -60.10,68.75 -59.90,68.73 -59.70,68.72 -58.62,68.92 -57.54,69.11 -54.82,69.17 -52.10,69.23 -46.76,69.39 -41.43,69.54 -34.95,69.92 -28.47,70.30 -23.47,70.15 -18.47,69.99 -16.34,69.80 -14.21,69.61 -14.06,69.69 -13.90,69.77 -13.77,69.88 -13.64,70.00 -13.54,70.14 -13.44,70.28 -13.38,70.44 -13.31,70.60 -13.29,70.77 -13.27,70.94 -13.29,71.12 -13.31,71.29 -13.37,71.45 -13.43,71.61 -13.52,71.76 -13.62,71.90 -13.75,72.02 -13.87,72.13 -14.03,72.22 -14.18,72.30 -14.35,72.34 -14.51,72.38 -14.69,72.39 -14.86,72.39 -15.03,72.35 -15.20,72.31 -17.58,71.63 -19.96,70.96 -24.49,69.33 -29.03,67.71 -34.89,65.45 -40.76,63.18 -45.28,60.46 -49.80,57.74 -51.45,55.58 -53.10,53.42 -53.06,51.59 -53.03,49.76 -52.44,48.51 -51.84,47.25 -50.74,45.61 -49.65,43.97 -47.84,41.85 -46.03,39.74 -43.45,37.03 -40.88,34.32 -38.66,31.89 -36.44,29.46 -35.47,26.76 -34.49,24.07 -35.03,22.98 -35.57,21.89 -36.35,20.55 -37.13,19.22 -38.92,17.94 -40.72,16.67 -42.67,15.30 -44.62,13.94 -46.45,13.10 -48.27,12.27 -48.46,12.22 -48.64,12.16 -48.80,12.07 -48.97,11.97 -49.10,11.84 -49.24,11.71 -49.34,11.55 -49.44,11.39 -49.50,11.21 -49.56,11.02 -49.57,10.84 -49.58,10.65 -49.55,10.46 -49.52,10.27 -49.45,10.10 -49.37,9.92 -49.26,9.77 -49.14,9.62 -48.99,9.50 -48.85,9.38 -48.67,9.30 -48.50,9.22 -48.32,9.19 -48.13,9.15 -47.94,9.16 -47.75,9.17 -46.70,9.51 -45.65,9.86 -42.60,10.38 -39.55,10.89 -31.81,12.10 -24.08,13.32 -11.83,15.09 0.40,16.87 12.99,18.34 25.57,19.81 37.37,20.56 49.16,21.32 62.40,21.49 75.63,21.66 91.08,22.06 106.53,22.45 122.29,23.39 138.05,24.32 150.23,25.44 162.42,26.57 168.12,27.46 173.82,28.35 174.01,28.37 174.20,28.40 174.37,28.47 174.55,28.53 174.70,28.64 174.85,28.75 174.98,28.89 175.10,29.03 175.19,29.20 175.27,29.37 175.32,29.55 175.36,29.73 175.36,29.92 175.36,30.11 175.31,30.29 175.26,30.47 175.18,30.64 175.09,30.81 174.96,30.95 174.84,31.08 174.68,31.19 174.52,31.30 174.35,31.36 174.17,31.43 173.98,31.45 173.80,31.47 172.32,31.58 170.85,31.68 165.71,31.65 160.57,31.61 149.63,30.98 138.69,30.35 122.69,28.86 106.69,27.36 88.58,24.37 70.48,21.38 52.31,17.05 34.14,12.72 20.72,8.48 7.29,4.24 3.37,2.90 -0.55,1.57 -0.73,1.48 -0.91,1.39 -1.06,1.26 -1.22,1.13 -1.33,0.97 -1.45,0.80 -1.53,0.62 -1.60,0.43 -1.63,0.23 -1.66,0.03 -1.64,-0.16 -1.62,-0.36 -1.55,-0.55 -1.49,-0.73 -1.38,-0.90 -1.27,-1.07 -1.12,-1.21 -0.97,-1.34 -0.80,-1.44 -0.62,-1.54 -0.43,-1.59 -0.23,-1.64 -0.03,-1.65 0.16,-1.65 0.35,-1.61 0.55,-1.57 0.55,-1.57 L 0.55,-1.57 Z"></path></g><g stroke-opacity="0.5" fill-opacity="0.5" transform="translate(874.6444576220533 548.2921113105409) rotate(11.967946563946633 26.237130350227858 7.690193378515062)"><text x="52.47426070045573" y="12.380386757030127" font-family="Cascadia, Segoe UI Emoji" font-size="12.666200858730694px" fill="#fff" text-anchor="end" style="white-space: pre;" direction="ltr">express</text></g><g stroke-opacity="0.5" fill-opacity="0.5" transform="translate(71.79998779296875 72.5) rotate(356.5194373503261 23.5 9.626506024096386)"><text x="46.99999999999998" y="15.253012048192769" font-family="Cascadia, Segoe UI Emoji" font-size="15.85542168674698px" fill="#fff" text-anchor="end" style="white-space: pre;" direction="ltr">share</text></g><g stroke-linecap="round"><g stroke-opacity="0.5" fill-opacity="0.5" transform="translate(393.2000427246094 10) rotate(0 0 24)"><path d="M0 0 C0 8, 0 40, 0 48 M0 0 C0 8, 0 40, 0 48" stroke="#fff" stroke-width="1" fill="none"></path></g></g><g stroke-linecap="round"><g stroke-opacity="0.5" fill-opacity="0.5" transform="translate(450.8000183105469 11.599998474121094) rotate(0 0 26.800006866455078)"><path d="M0 0 C0 8.93, 0 44.67, 0 53.6 M0 0 C0 8.93, 0 44.67, 0 53.6" stroke="#fff" stroke-width="1" fill="none"></path></g></g><g stroke-linecap="round"><g stroke-opacity="0.5" fill-opacity="0.5" transform="translate(512.4000549316406 11.600013732910156) rotate(0 0 10.799999237060547)"><path d="M0 0 C0 3.6, 0 18, 0 21.6 M0 0 C0 3.6, 0 18, 0 21.6" stroke="#fff" stroke-width="1" fill="none"></path></g></g><g stroke-opacity="0.5" fill-opacity="0.5" stroke-linecap="round" transform="translate(377.2000427246094 58.79999542236328) rotate(0 15.5999755859375 16)"><path d="M0 0 C10.14 0, 20.28 0, 31.2 0 M0 0 C9.04 0, 18.08 0, 31.2 0 M31.2 0 C31.2 12.1, 31.2 24.19, 31.2 32 M31.2 0 C31.2 11.8, 31.2 23.61, 31.2 32 M31.2 32 C22.73 32, 14.26 32, 0 32 M31.2 32 C18.97 32, 6.73 32, 0 32 M0 32 C0 24.06, 0 16.12, 0 0 M0 32 C0 20, 0 8.01, 0 0" stroke="#fff" stroke-width="1" fill="none"></path></g><g stroke-opacity="0.5" fill-opacity="0.5" stroke-linecap="round" transform="translate(434.7999572753906 64.4000015258789) rotate(0 16 16.800003051757812)"><path d="M32 16.8 C32 17.77, 31.92 18.76, 31.76 19.72 C31.6 20.67, 31.35 21.63, 31.04 22.55 C30.72 23.46, 30.32 24.36, 29.86 25.2 C29.39 26.04, 28.85 26.85, 28.26 27.6 C27.66 28.34, 26.99 29.04, 26.28 29.67 C25.58 30.29, 24.8 30.86, 24 31.35 C23.2 31.84, 22.34 32.25, 21.47 32.59 C20.6 32.92, 19.69 33.18, 18.78 33.34 C17.87 33.51, 16.93 33.6, 16 33.6 C15.07 33.6, 14.13 33.51, 13.22 33.34 C12.31 33.18, 11.4 32.92, 10.53 32.59 C9.66 32.25, 8.8 31.84, 8 31.35 C7.2 30.86, 6.42 30.29, 5.72 29.67 C5.01 29.04, 4.34 28.34, 3.74 27.6 C3.15 26.85, 2.61 26.04, 2.14 25.2 C1.68 24.36, 1.28 23.46, 0.96 22.55 C0.65 21.63, 0.4 20.67, 0.24 19.72 C0.08 18.76, 0 17.77, 0 16.8 C0 15.83, 0.08 14.84, 0.24 13.88 C0.4 12.93, 0.65 11.97, 0.96 11.05 C1.28 10.14, 1.68 9.24, 2.14 8.4 C2.61 7.56, 3.15 6.75, 3.74 6 C4.34 5.26, 5.01 4.56, 5.72 3.93 C6.42 3.31, 7.2 2.74, 8 2.25 C8.8 1.76, 9.66 1.35, 10.53 1.01 C11.4 0.68, 12.31 0.42, 13.22 0.26 C14.13 0.09, 15.07 0, 16 0 C16.93 0, 17.87 0.09, 18.78 0.26 C19.69 0.42, 20.6 0.68, 21.47 1.01 C22.34 1.35, 23.2 1.76, 24 2.25 C24.8 2.74, 25.58 3.31, 26.28 3.93 C26.99 4.56, 27.66 5.26, 28.26 6 C28.85 6.75, 29.39 7.56, 29.86 8.4 C30.32 9.24, 30.72 10.14, 31.04 11.05 C31.35 11.97, 31.6 12.93, 31.76 13.88 C31.92 14.84, 31.96 16.31, 32 16.8 C32.04 17.29, 32.04 16.31, 32 16.8" stroke="#fff" stroke-width="1" fill="none"></path></g><g stroke-opacity="0.5" fill-opacity="0.5" stroke-linecap="round" transform="translate(497.2000427246094 38.00000762939453) rotate(315.40632853431214 15.20001220703125 15.599987030029297)"><path d="M0 0 C11.92 0, 23.84 0, 30.4 0 M0 0 C7.72 0, 15.44 0, 30.4 0 M30.4 0 C30.4 6.64, 30.4 13.28, 30.4 31.2 M30.4 0 C30.4 11.31, 30.4 22.63, 30.4 31.2 M30.4 31.2 C19.83 31.2, 9.26 31.2, 0 31.2 M30.4 31.2 C19.75 31.2, 9.11 31.2, 0 31.2 M0 31.2 C0 19.04, 0 6.87, 0 0 M0 31.2 C0 19.66, 0 8.12, 0 0" stroke="#fff" stroke-width="1" fill="none"></path></g></svg>